<?xml version="1.0" encoding="utf-8"?>
<!-- Generator: Adobe Illustrator 25.4.1, SVG Export Plug-In . SVG Version: 6.00 Build 0)  -->
<svg version="1.1" id="Layer_1" xmlns="http://www.w3.org/2000/svg" xmlns:xlink="http://www.w3.org/1999/xlink" x="0px" y="0px"
	 viewBox="0 0 951.73 398.73" style="enable-background:new 0 0 951.73 398.73;" xml:space="preserve">
<style type="text/css">
	.st0{fill:#223C74;}
	.st1{fill:#D1162A;}
	.st2{fill:#6D2A5D;}
	.st3{fill:#9E2053;}
	.st4{fill:#E2A38B;}
	.st5{fill:#FCEE21;}
	.st6{fill:#FAFBF6;}
	.st7{fill:none;}
</style>
<g>
	<path class="st0" d="M279.18,56.55c-7.49,1.89-14.97,3.85-22.49,5.62c-1.79,0.42-2.28,1.19-2.27,2.93
		c0.06,10.95-0.02,21.91,0.05,32.86c0.01,1.83-0.32,2.47-2.38,2.34c-9.54-0.61-18.69-3.15-27.97-5.12
		c-27.07-5.75-54.16-6.22-81.27-0.08c-7.61,1.72-15.18,3.72-22.92,4.87c-0.55,0.08-1.1,0.18-1.66,0.22
		c-2.98,0.23-3.87-0.57-3.9-3.63c-0.09-9.27-0.14-18.55-0.23-27.82c-0.05-5.15-0.5-5.68-5.57-6.97
		c-16.45-4.19-33.08-7.58-49.61-11.45c-0.74-0.17-1.47-0.39-2.25-1.04c5.64-1.66,11.26-3.35,16.91-4.98
		c35.2-10.18,70.41-20.33,105.59-30.57c3.04-0.89,5.85-0.85,8.89,0.04c29.67,8.65,59.33,17.33,88.89,26.33
		c-0.9,3.08-0.84,6.26-1.02,9.43C275.81,52.51,276.42,54.97,279.18,56.55z"/>
	<path class="st1" d="M743.78,181.53c-0.58-7.31,1.63-14.02,4.46-20.58c7.6-17.59,21.48-26.67,39.98-29.56
		c10.81-1.69,21.7-1.05,32.56-1.12c32.38-0.23,64.77-0.22,97.15-0.3c0.48,0,0.95,0,1.4,0c0.36,0.83-0.21,1.29-0.52,1.8
		c-6.16,10.07-12.37,20.12-18.48,30.23c-0.96,1.59-2.05,2.08-3.85,2.08c-29.9,0.03-59.81,0.14-89.71,0.23
		c-2.8,0.01-5.6,0.07-8.29,0.95c-8.01,2.61-12.42,10.98-10.06,19.08c0.27,0.92,0.56,1.83,0.84,2.74c-0.48,0.01-0.96,0.05-1.44,0.03
		c-6.33-0.23-12.49-1.82-18.81-2.26c-2.63-0.18-5.38-0.25-8-0.83c-4.25-0.94-8.56-1.23-12.86-1.71
		C746.66,182.14,745.18,182.07,743.78,181.53z"/>
	<path class="st2" d="M538.13,243.82c-0.03-16.14-0.05-32.29-0.08-48.43c0-2.53,0-5.07-0.52-7.87c-1.1,1.48-2.24,2.93-3.29,4.45
		c-12.59,18.37-25.15,36.76-37.74,55.14c-3.57,5.21-4.33,5.28-8.05,0.03c-11.21-15.84-22.31-31.74-33.45-47.63
		c2.01-1.23,4.36-1.32,6.56-1.86c8.57-2.07,17.27-3.41,25.98-4.74c3.93,3.91,4.78,3.82,7.86-0.78c1.81-2.7,3.64-5.39,5.46-8.08
		c0.62,2.12,2.21,2.09,4.02,2.08c1.35-0.01,2.38-0.83,3.62-0.94c4.84-0.44,9.64-1.24,14.45-1.84c5.69-0.7,11.41-1.38,17.11-1.88
		c7.77-0.68,15.55-1.49,23.33-1.91c7.19-0.39,14.35-1.63,21.59-1.27c0.04,15.57,0.09,31.14,0.11,46.71
		c0.01,6.23-0.05,12.45-0.08,18.68C569.4,245.27,553.77,245.05,538.13,243.82z"/>
	<path class="st1" d="M595.68,176.54c-0.06-14.87-0.1-29.74-0.21-44.61c-0.01-1.86,1.03-1.81,2.3-1.81c6.72,0,13.43-0.02,20.15-0.03
		c39.02-0.03,78.05-0.05,117.07-0.14c2.12-0.01,2.84,0.42,2.82,2.71c-0.07,9.43,0.09,18.87,0.17,28.3c0.03,3.44,0.03,3.45-3.31,3.44
		c-29.43-0.1-58.86-0.2-88.29-0.28c-4.29-0.01-4.05-0.62-4.11,4.17c-0.03,2.4-0.1,4.79-0.15,7.19
		C626.65,176.15,611.17,176.79,595.68,176.54z"/>
	<path class="st2" d="M595.68,176.54c15.49,0.25,30.97-0.39,46.44-1.06c-0.01,4.62,0.07,9.25-0.07,13.87
		c-0.06,1.9,0.53,2.47,2.43,2.46c13.72-0.05,27.44,0,41.15,0.02c0.4,0,0.79,0.06,1.19,0.09c3.13,3.79,6.7,7.13,10.29,10.45
		c1.36,1.26,2.86,2.31,4.02,3.88c2.14,2.88,3.62,6.15,6.23,8.81c2.22,2.25,4.57,4.81,5.18,8.35c0.48,2.8,2.23,3.93,5.09,3.97
		c0.78,0.01,1.61-0.21,2.3,0.36c-16.63-0.04-33.27-0.08-49.9-0.14c-8.64-0.03-17.28-0.05-25.91-0.17c-1.59-0.02-2.02,0.46-2.02,2.03
		c0.02,5.11,0.05,10.23-0.4,15.33c-15.35-0.07-30.71-0.14-46.06-0.21c-0.04-1.03-0.12-2.07-0.12-3.1
		c0.01-20.85,0.03-41.7,0.05-62.54C595.59,178.13,595.65,177.34,595.68,176.54z"/>
	<path class="st1" d="M595.65,244.57c15.35,0.07,30.71,0.14,46.06,0.21c0.02,2.88,0.22,5.77,0,8.62c-0.19,2.43,0.7,2.84,2.93,2.82
		c29.98-0.22,59.97-0.33,89.95-0.47c3.62-0.02,3.61-0.01,3.6,3.72c-0.02,8.95-0.09,17.91-0.02,26.86c0.01,1.89-0.51,2.44-2.43,2.44
		c-45.89-0.07-91.79-0.08-137.68-0.1c-1.17,0-2.46,0.3-2.46-1.65C595.65,272.87,595.64,258.72,595.65,244.57z"/>
	<path class="st1" d="M917.93,254.32c-4.07,12.78-12.88,21.39-24.33,27.67c-9.51,5.22-19.85,6.73-30.52,6.73
		c-37.73,0-75.46,0-113.2,0c-1.6,0-3.2-0.04-4.8,0.02c-1.76,0.07-1.94-0.53-1.05-1.93c6.21-9.76,12.4-19.53,18.56-29.33
		c0.61-0.97,1.3-1.52,2.48-1.53c1.36,0,2.71-0.17,4.07-0.17c25.66-0.01,51.32-0.01,76.98,0.02c3.12,0,6.23,0.22,9.35,0.23
		c5.75,0.02,11.04-1.45,15.6-5.12c5.85,0.74,11.68,1.83,17.55,2.13c9.2,0.46,18.39,1.52,27.63,1.18
		C916.82,254.21,917.37,254.29,917.93,254.32z"/>
	<path class="st0" d="M917.93,254.32c-0.56-0.03-1.11-0.11-1.67-0.09c-9.24,0.34-18.43-0.71-27.63-1.18
		c-5.87-0.3-11.7-1.39-17.55-2.13c1.48-2.17,2.97-4.31,3.95-6.79c2.58-6.52-0.87-16.64-11.43-16.45
		c-24.2,0.44-48.41,0.36-72.62,0.17c-22.7-0.19-41.48-15.35-46.32-37.57c-0.63-2.87-1.03-5.79-0.88-8.76
		c1.4,0.55,2.88,0.62,4.36,0.78c4.3,0.48,8.61,0.76,12.86,1.71c2.61,0.58,5.37,0.64,8,0.83c6.33,0.44,12.49,2.03,18.81,2.26
		c0.48,0.02,0.96-0.02,1.44-0.03c1.41,1.14,2.81,2.28,4.22,3.43c-0.04,1.87,1.51,2.52,2.73,3.2c2.2,1.22,4.79,1.42,7.11,2.29
		c5.62,2.12,11.29,4.1,16.9,6.26c10.26,3.96,20.79,7.26,30.81,11.82c9.44,4.3,18.47,9.37,25.5,17.29c1.21,1.37,2.4,2.84,4.09,3.45
		c4.92,1.79,9.91,3.38,14.87,5.06c4.51,1.53,8.97,3.25,13.53,4.59c3.53,1.03,6.79,2.92,10.53,3.26
		C919.32,250,918.5,252.13,917.93,254.32z"/>
	<path class="st3" d="M400.29,185.64c-0.02-17.9-0.02-35.8-0.08-53.7c0-1.42,0.37-1.96,1.88-1.95c14.62,0.09,29.25,0.13,43.87,0.15
		c1.4,0,2.36,0.44,3.15,1.69c12.09,19.17,24.22,38.31,36.35,57.46c0.13,0.2,0.22,0.42,0.32,0.64c-0.71-0.05-1.44-0.03-2.14-0.17
		c-14.25-2.84-28.67-4.15-43.16-4.55C427.08,184.85,413.68,185.12,400.29,185.64z"/>
	<path class="st1" d="M585,178.28c-7.24-0.36-14.39,0.88-21.59,1.27c-7.78,0.42-15.56,1.23-23.33,1.91
		c-5.7,0.5-11.42,1.18-17.11,1.88c-4.82,0.6-9.61,1.4-14.45,1.84c-1.23,0.11-2.27,0.93-3.62,0.94c-1.81,0.02-3.41,0.04-4.02-2.08
		c11.22-17.55,22.46-35.1,33.66-52.67c0.69-1.08,1.53-1.43,2.77-1.42c15.36,0.05,30.71,0.06,46.07,0.04c1.48,0,2.16,0.34,2.14,2
		C585.31,147.42,585.17,162.85,585,178.28z"/>
	<path class="st1" d="M919.54,247.72c-3.74-0.34-7-2.23-10.53-3.26c-4.57-1.34-9.02-3.05-13.53-4.59
		c-4.96-1.68-9.95-3.27-14.87-5.06c-1.7-0.62-2.88-2.09-4.09-3.45c-7.03-7.91-16.06-12.99-25.5-17.29
		c-10.01-4.56-20.55-7.86-30.81-11.82c-5.61-2.16-11.28-4.14-16.9-6.26c-2.32-0.88-4.92-1.07-7.11-2.29
		c-1.22-0.68-2.77-1.33-2.73-3.2c2.64,0.65,5.31,0.95,8.05,0.95c21.42-0.02,42.83-0.07,64.25,0.06c15.99,0.1,30.08,5.47,41.56,16.67
		c10.77,10.51,14.07,23.74,12.55,38.4C919.84,246.96,919.65,247.34,919.54,247.72z"/>
	<path class="st3" d="M343.25,195.66c0-12.23,0-24.46,0.02-36.69c0.02-8.8,0.12-17.59,0.08-26.39c-0.01-1.79,0.53-2.29,2.32-2.29
		c15.03,0.05,30.07,0.03,45.1-0.06c1.84-0.01,2.43,0.42,2.43,2.36c0.02,14.95,0.16,29.9,0.26,44.85c-0.55,2.04-0.4,4.14-0.17,6.16
		c0.29,2.63-0.96,3.19-3.17,3.45C374.31,188.94,358.71,191.93,343.25,195.66z"/>
	<path class="st3" d="M393.39,238.52c0.04,14.13,0.09,28.25,0.1,42.38c0,2.3,0.24,4.62-0.17,6.92c-16.09,0.02-32.19,0.03-48.28,0.05
		c-0.09-0.3-0.26-0.59-0.26-0.89c-0.02-16.67-0.02-33.33-0.03-50c1.53-0.33,2.66,1.01,4.14,0.95c8.93-0.41,17.8,0.84,26.71,1.01
		c5.32,0.1,10.62-0.84,15.93-0.07C392.18,238.96,392.81,238.86,393.39,238.52z"/>
	<path class="st3" d="M447.3,241.78c0.02,15.11,0.04,30.22,0.09,45.32c0,1.25-0.41,1.65-1.66,1.64
		c-14.47-0.06-28.95-0.07-43.42-0.09c-1.14,0-2.02-0.09-2.01-1.63c0.05-15.11,0.06-30.21,0.08-45.32c0.64-0.89,1.57-0.84,2.55-0.93
		c3.45-0.34,6.67,1.1,10.14,1.04C424.47,241.6,435.89,241.76,447.3,241.78z"/>
	<path class="st1" d="M538.13,243.82c15.64,1.23,31.27,1.46,46.9-0.14c0.01,14.39,0,28.78,0.05,43.16c0.01,1.54-0.64,1.88-2.01,1.88
		c-14.39-0.01-28.78,0.01-43.18,0.07c-1.36,0.01-1.82-0.47-1.81-1.81C538.13,272.59,538.12,258.21,538.13,243.82z"/>
	<path class="st4" d="M343.25,195.66c15.46-3.73,31.06-6.72,46.87-8.6c2.2-0.26,3.46-0.83,3.17-3.45c-0.22-2.01-0.38-4.12,0.17-6.16
		c0.41,3.81,0.11,7.62,0.09,11.43c-0.03,9.46-0.04,18.92-0.06,28.39c-0.81-0.61-1.55-0.03-2.24,0.21
		c-14.97,5.07-29.94,10.17-44.9,15.28c-0.71,0.24-1.62,0.31-1.81,1.31c-0.39-0.49-0.26-1.06-0.28-1.61
		c-0.21-7.97-0.28-15.94-0.66-23.9C343.39,204.26,343.17,199.97,343.25,195.66z"/>
	<path class="st2" d="M447.3,241.78c-11.41-0.02-22.83-0.18-34.23,0.03c-3.47,0.06-6.69-1.38-10.14-1.04
		c-0.97,0.1-1.9,0.04-2.55,0.93c-0.01-9.27-0.01-18.54-0.02-27.81c15.52-5.08,31.24-9.42,47.24-12.75
		c-0.04,8.44-0.08,16.88-0.11,25.31c-0.25,2.04-0.23,4.09-0.03,6.13C447.4,235.65,447.35,238.71,447.3,241.78z"/>
	<path class="st4" d="M447.6,201.14c-15.99,3.34-31.71,7.67-47.24,12.75c-0.02-9.42-0.05-18.84-0.07-28.25
		c13.39-0.52,26.79-0.79,40.19-0.42c14.49,0.4,28.91,1.71,43.16,4.55c0.7,0.14,1.42,0.11,2.14,0.17c0.7,0.93,1.78,1.63,1.79,2.98
		c-8.71,1.33-17.41,2.67-25.98,4.74c-2.2,0.53-4.55,0.63-6.56,1.86c-1.73-2.18-3.46-4.35-5.18-6.54c-0.39-0.5-0.7-1.25-1.43-1.05
		c-0.97,0.25-0.56,1.19-0.59,1.83C447.71,196.21,447.66,198.67,447.6,201.14z"/>
	<path class="st0" d="M719.94,227.73c-0.7-0.57-1.53-0.34-2.3-0.36c-2.86-0.05-4.61-1.18-5.09-3.97c-0.61-3.54-2.96-6.1-5.18-8.35
		c-2.62-2.66-4.1-5.93-6.23-8.81c-1.17-1.57-2.66-2.61-4.02-3.88c-3.59-3.33-7.17-6.67-10.29-10.45
		c16.71-0.06,33.42-0.11,50.13-0.21c1.45-0.01,1.69,0.59,1.69,1.86c-0.08,10.71-0.11,21.43-0.13,32.14c0,1.27-0.14,2.12-1.79,2.09
		C731.13,227.71,725.53,227.74,719.94,227.73z"/>
	<path class="st5" d="M279.18,56.55c-2.76-1.58-3.37-4.04-3.2-7.03c0.18-3.17,0.12-6.35,1.02-9.43c2.34,0.49,4.66,1.06,6.84,2.08
		c1.41,4.35,1.06,8.65-0.33,12.93c-1.46,1.31-1.55,3.13-1.59,4.86c-0.09,4.56-0.03,9.11-0.08,13.67c-0.01,1.04,0.22,1.98,1.03,2.56
		c4.18,2.97,6.32,7.51,9.07,11.58c0.27,0.4,0.49,0.85,0.93,1.39C294.39,91,296.3,91.72,297,92c3.13,1.23,6.06,2.9,8,4
		c1.5,0.85,3.84,3.04,8.51,7.42c0.37,0.35,1.17,1.16,1.11,2.09c-0.02,0.33-0.17,0.67-0.5,1.04c-0.98,1.1-2.29,1.2-3.51,0.57
		c-0.97-0.5-1.85-1.24-2.63-2.02c-2.83-2.8-5.61-5.66-8.38-8.52c-0.38-0.39-0.67-0.85-1.67-0.79c1.03,2.02,2.39,3.51,3.76,4.96
		c3.39,3.59,6.87,7.1,9.71,11.16c0.75,1.07,1.95,2.18,0.44,3.52c-1.35,1.2-2.61,0.72-3.83-0.31c-3.5-2.99-7.02-5.97-10.68-8.84
		c0.58,1.88,1.93,3.29,3.23,4.6c2.4,2.4,4.26,5.15,5.93,8.05c0.43,0.75,1,1.54,0.23,2.4c-0.73,0.81-1.6,0.41-2.44,0.18
		c-2.5-0.67-4.13-2.6-6.03-4.15c-1.48-1.2-2.98-2.36-4.47-3.54c-0.43-0.34-0.86-0.89-1.42-0.34c-0.52,0.51-0.04,1.06,0.22,1.51
		c0.65,1.1,1.38,2.15,2.05,3.24c0.36,0.6,0.86,1.2,0.43,1.98c-0.5,0.9-1.36,0.62-2.13,0.69c-1.06,0.09-1.91-0.47-2.59-1.08
		c-3.6-3.25-7.3-6.42-10.3-10.26c-1.83-2.34-2.92-5.04-3.24-8.11c-0.45-4.35-1.25-8.66-1.83-13c-0.45-3.4,0.43-6.39,2.65-9.13
		c1.83-2.27,2.73-5.02,2.69-8.02c-0.12-9.14,0.35-11.11-0.42-13.17C279.61,57.45,279.35,56.9,279.18,56.55z"/>
	<ellipse class="st0" cx="178" cy="244.5" rx="144" ry="143.5"/>
	<path class="st5" d="M97.17,104.73c-0.08,5.61-3.24,9.69-8.92,11.29c-1.91,0.54-3.81,1.03-5.85,1.14
		c-2.26,0.13-3.23-0.92-3.69-2.84c-1.08-4.49-2.33-8.96-3.15-13.5c-1.06-5.89-1.69-11.84-1.69-17.84c0-1.88,0.43-3.37,2.02-4.57
		c2.1-1.57,2.95-3.7,2.97-6.43c0.05-4.62,0.87-9.19,1.84-13.71c0.15-0.69,0.1-1.62,1.04-1.63c1.04-0.01,1.2,0.95,1.22,1.74
		c0.06,2.72,0.05,5.43,0.06,8.15c0.01,1.2,0.1,2.41-0.01,3.59c-0.24,2.4,0.22,4.21,2.68,5.41c2.14,1.04,2.59,3.54,3.51,5.53
		c3.1,6.64,6.24,13.28,7.59,20.57C97,102.67,97.05,103.71,97.17,104.73z"/>
	<path class="st2" d="M344.53,234.07c0.19-1,1.1-1.07,1.81-1.31c14.96-5.11,29.93-10.21,44.9-15.28c0.7-0.24,1.44-0.82,2.24-0.21
		c-0.03,7.08-0.06,14.17-0.09,21.25c-0.58,0.34-1.21,0.44-1.85,0.35c-5.31-0.77-10.62,0.17-15.93,0.07
		c-8.91-0.17-17.78-1.42-26.71-1.01c-1.47,0.07-2.61-1.28-4.14-0.95C344.68,236.01,344.6,235.04,344.53,234.07z"/>
	<path class="st0" d="M283.51,55.1c1.39-4.28,1.74-8.58,0.33-12.93c8.42,2.53,16.83,5.06,25.25,7.59c-0.01,0.25-0.03,0.5-0.04,0.76
		C300.53,52.04,292.02,53.57,283.51,55.1z"/>
	<path class="st2" d="M345.05,287.87c16.09-0.02,32.19-0.03,48.28-0.05c-0.54,0.94-1.44,0.47-2.15,0.47
		c-14.58,0.08-29.17,0.13-43.76,0.15C346.62,288.44,345.64,288.87,345.05,287.87z"/>
	<path class="st4" d="M447.45,232.58c-0.2-2.05-0.22-4.09,0.03-6.13C447.92,228.5,447.91,230.54,447.45,232.58z"/>
	<path class="st6" d="M178.79,113c0.04,0.01,0.08,0.01,0.12,0.02c-0.03,0.14-0.06,0.28-0.1,0.42c-0.03-0.07-0.07-0.15-0.07-0.22
		C178.73,113.14,178.77,113.07,178.79,113z"/>
	<g>
		<path class="st4" d="M289.78,204.05c-4.53,1.21-9.06,2.41-13.59,3.62c0.05,14.08,0.1,28.15,0.15,42.22h0v0
			c5.83-1.75,11.66-3.51,17.49-5.26c5.83-1.75,11.66-3.5,17.5-5.24c3.58-1.07,7.18-2.1,10.77-3.13
			c-0.77-13.56-3.42-26.62-7.69-38.91c-3.68,1.02-7.36,2.05-11.05,3.04C298.84,201.63,294.31,202.84,289.78,204.05z"/>
		<g>
			<path class="st7" d="M202.51,109.09c-0.29-1.66-0.5-3.33-0.77-4.98c-0.07-0.44-0.15-0.88-0.24-1.32
				C201.72,104.73,202.04,106.84,202.51,109.09C202.51,109.08,202.51,109.09,202.51,109.09z"/>
			<path class="st2" d="M254.42,164.21c-0.37-3.52-1.12-10.31-4.07-18.66c-2.65-7.49-5.99-13.15-8.31-16.66
				c-5.44-3.62-12.8-7.73-22.03-10.89c-5.99-2.05-11.52-3.28-16.28-4.03c0,0,0,0,0-0.01s0,0,0-0.01c-0.36-1.31-0.77-2.91-1.21-4.87
				c0,0,0-0.01,0-0.01c-0.47-2.24-0.79-4.35-1-6.3c-7.38-1.17-14.94-1.79-22.65-1.79c-3.44,0-6.85,0.13-10.23,0.37
				c0.55,1,1.09,2.06,1.61,3.18c1.93,4.14,3.14,8.1,3.9,11.61c-0.06,19.53-0.13,39.07-0.19,58.6c4.26,0.68,8.52,1.35,12.78,2.03
				c0.16-6.85,0.31-13.71,0.47-20.56c3.09,0.24,6.19,0.48,9.28,0.73c-0.24,12.37-0.17,24.93,0.25,37.66
				c0.03,0.83,0.06,1.65,0.09,2.48c0.21-0.52,0.31-1.08,0.43-1.65c-0.12,0.57-0.23,1.13-0.43,1.65c-0.03,6.14-0.05,12.27-0.08,18.41
				c-15.91-0.17-31.81-0.33-47.72-0.5c0,6,0,12,0,18c15.88,0.17,31.76,0.33,47.65,0.5c-0.04,10.5-0.1,21-0.15,31.5H112v18h129h13
				v-18C256.09,215.32,255.86,178.05,254.42,164.21z"/>
			<path class="st3" d="M201.5,102.79c0.08,0.44,0.16,0.88,0.24,1.32c0.27,1.66,0.48,3.33,0.77,4.98c0.28,1.65,0.64,3.28,1.21,4.87
				c0,0,0,0.01,0,0.01c12.02,3,23.68,7,34.78,12.55c0.87,0.43,1.67,0.98,2.51,1.48c0.37,0.16,0.63,0.37,0.83,0.61c0,0,0,0,0.01,0
				c0.01,0.02,0.02,0.03,0.03,0.05c0.06,0.07,0.11,0.15,0.15,0.23c2.69,4.06,5.82,9.63,8.31,16.66c2.57,7.25,3.63,13.74,4.07,18.66
				c0,0.01,0,0.02,0,0.03c6.28,0.05,12.56,0.15,18.84,0.1c2.18-0.02,2.88,0.82,2.87,2.93c-0.06,12.56-0.03,25.12-0.03,37.68
				c0,0.91,0.06,1.81,0.1,2.72c4.53-1.21,9.06-2.42,13.59-3.62c4.53-1.21,9.06-2.42,13.59-3.64c3.69-1,7.37-2.02,11.05-3.04
				C297.31,148.16,254.18,111.14,201.5,102.79z"/>
		</g>
		<path class="st1" d="M322.35,244.5c0-2.76-0.09-5.5-0.24-8.22c-3.59,1.03-7.19,2.06-10.77,3.13c-5.84,1.74-11.67,3.48-17.5,5.24
			c-5.83,1.75-11.66,3.51-17.49,5.26c0,12.58,0,25.16,0,37.74c0,3.19,0,3.21-3.3,3.23c-33.61,0.23-67.22,0.46-100.83,0.69
			c-0.87,0.01-1.74,0.04-2.61,0.07h-3.19v95.82c4.1,0.35,8.24,0.54,12.43,0.54C258.1,388,322.35,323.75,322.35,244.5z"/>
		<path class="st1" d="M276.35,249.9c5.83-1.75,11.66-3.51,17.49-5.26C288.01,246.39,282.18,248.15,276.35,249.9L276.35,249.9z"/>
		<g>
			<path class="st6" d="M182.93,244.24v-83.19c-1.02-0.64-1.8-1.61-2.44-2.97c-0.52-1.11-0.85-2.56-2.28-3.08
				c-0.15,3.34-0.29,6.67-0.44,10.01v78.95c-6.01,0.92-10.63,6.1-10.63,12.37c0,6.92,5.61,12.53,12.53,12.53
				c6.92,0,12.53-5.61,12.53-12.53C192.19,250.54,188.26,245.68,182.93,244.24z"/>
			<path class="st6" d="M177.62,249.32l-43.84-43.84c-1.06,0.38-2.12,0.42-3.29,0.16c-0.95-0.21-1.95-0.75-3.23-0.01
				c1.65,1.86,3.31,3.73,4.96,5.59l41.6,41.6c-1.66,2.63-1.66,5.86-0.05,8.11c2.27,3.17,7.02,3.4,9.9,1.41
				c3.91-2.7,4.04-9.29,0.71-12.02C181.81,248.21,178.14,249.18,177.62,249.32z"/>
			<g>
				<path class="st6" d="M179.67,108.77c-74.96,0-135.73,60.77-135.73,135.73s60.77,135.73,135.73,135.73S315.4,319.46,315.4,244.5
					S254.63,108.77,179.67,108.77z M179.67,371.94c-70.38,0-127.44-57.06-127.44-127.44s57.06-127.44,127.44-127.44
					s127.44,57.06,127.44,127.44S250.05,371.94,179.67,371.94z"/>
			</g>
		</g>
	</g>
	<g>
		<path class="st6" d="M58.63,262.81v-0.47c1.87-0.43,3.46-1.06,4.76-1.89c1.3-0.83,2.33-1.86,3.09-3.09s1.29-2.64,1.6-4.24
			c-0.7,0.36-1.29,0.61-1.78,0.75c-0.49,0.14-1.01,0.21-1.55,0.21c-1.74,0-3.18-0.63-4.34-1.88s-1.73-2.96-1.73-5.14
			c0-1.51,0.31-2.89,0.94-4.15c0.63-1.26,1.52-2.23,2.68-2.92s2.37-1.04,3.62-1.04c1.34,0,2.61,0.38,3.8,1.15
			c1.19,0.77,2.15,1.88,2.86,3.33c0.71,1.45,1.06,3.11,1.06,4.97c0,2.41-0.58,4.72-1.73,6.93c-1.16,2.21-2.88,3.98-5.16,5.32
			C64.45,261.97,61.75,262.7,58.63,262.81z M68.33,251.69c0.11-1.26,0.17-2.37,0.17-3.33c0-2.05-0.24-3.96-0.71-5.73
			c-0.27-0.98-0.67-1.7-1.2-2.16c-0.28-0.25-0.65-0.37-1.1-0.37c-0.56,0-1,0.24-1.32,0.73c-0.44,0.67-0.66,1.93-0.66,3.8
			c0,3.12,0.37,5.27,1.12,6.46c0.48,0.77,1.14,1.15,1.96,1.15C67.03,252.23,67.61,252.05,68.33,251.69z"/>
		<path class="st6" d="M286.81,250.84v-0.59c1.28-0.37,2.17-0.72,2.67-1.04c0.5-0.32,0.92-0.81,1.28-1.47
			c0.36-0.66,0.54-1.33,0.54-2c0-0.94-0.34-1.74-1.02-2.41c-0.68-0.67-1.53-1.01-2.54-1.01c-1.58,0-2.92,0.83-4.02,2.5l-0.63-0.22
			c0.81-1.88,1.85-3.3,3.12-4.24c1.27-0.95,2.68-1.42,4.23-1.42c1.59,0,2.9,0.49,3.93,1.45c1.03,0.97,1.55,2.1,1.55,3.4
			c0,0.85-0.24,1.66-0.72,2.44c-0.48,0.78-1.23,1.47-2.26,2.07c1.32,0.64,2.32,1.43,3.02,2.38c0.69,0.94,1.04,2.12,1.04,3.54
			c0,2.39-0.86,4.42-2.59,6.09c-1.73,1.67-4.05,2.51-6.96,2.51c-1.94,0-3.35-0.32-4.24-0.96c-0.64-0.45-0.96-1.03-0.96-1.74
			c0-0.52,0.19-0.96,0.56-1.33s0.8-0.55,1.28-0.55c0.37,0,0.72,0.08,1.05,0.24c0.18,0.09,0.82,0.58,1.92,1.48
			c1.1,0.9,2.13,1.34,3.08,1.34c0.83,0,1.55-0.33,2.15-0.99c0.6-0.66,0.9-1.5,0.9-2.51c0-1.54-0.54-2.97-1.62-4.27
			C290.48,252.23,288.9,251.34,286.81,250.84z"/>
	</g>
	<g>
		<path class="st6" d="M81.84,183.94v18.75c0,1.41,0.06,2.31,0.19,2.7s0.38,0.71,0.78,0.96c0.39,0.25,1.02,0.37,1.89,0.37h0.52v0.62
			H73.15v-0.62h0.61c0.98,0,1.68-0.11,2.1-0.34c0.42-0.22,0.7-0.54,0.85-0.93c0.15-0.39,0.22-1.31,0.22-2.75V190.8
			c0-1.06-0.05-1.72-0.15-1.99c-0.1-0.26-0.29-0.49-0.57-0.68c-0.28-0.19-0.59-0.28-0.96-0.28c-0.57,0-1.27,0.18-2.1,0.54l-0.3-0.61
			l8.44-3.85H81.84z"/>
		<path class="st6" d="M103.91,195.87c0,2.29-0.32,4.42-0.96,6.41c-0.38,1.22-0.9,2.21-1.55,2.99c-0.65,0.78-1.38,1.39-2.21,1.85
			c-0.82,0.46-1.72,0.68-2.69,0.68c-1.1,0-2.1-0.28-2.99-0.85c-0.89-0.56-1.68-1.37-2.37-2.42c-0.5-0.77-0.93-1.79-1.3-3.06
			c-0.48-1.72-0.73-3.5-0.73-5.34c0-2.49,0.35-4.78,1.05-6.86c0.57-1.72,1.45-3.04,2.62-3.96c1.17-0.92,2.41-1.38,3.72-1.38
			c1.33,0,2.57,0.45,3.73,1.36s2,2.13,2.54,3.66C103.53,191.07,103.91,193.37,103.91,195.87z M98.71,195.84
			c0-4.01-0.02-6.35-0.07-7.01c-0.11-1.57-0.38-2.63-0.81-3.18c-0.28-0.36-0.74-0.54-1.37-0.54c-0.48,0-0.87,0.13-1.15,0.41
			c-0.42,0.39-0.7,1.09-0.85,2.09c-0.15,1-0.22,4.48-0.22,10.44c0,3.25,0.11,5.42,0.34,6.52c0.17,0.8,0.41,1.34,0.73,1.61
			c0.31,0.27,0.73,0.41,1.25,0.41c0.56,0,0.99-0.18,1.27-0.54c0.47-0.63,0.74-1.61,0.81-2.92L98.71,195.84z"/>
		<path class="st6" d="M283.06,207.33h-13.49v-0.37c4.14-4.92,6.65-8.24,7.53-9.94c0.88-1.7,1.33-3.36,1.33-4.99
			c0-1.18-0.37-2.17-1.1-2.95s-1.63-1.17-2.69-1.17c-1.74,0-3.08,0.87-4.04,2.6l-0.63-0.22c0.61-2.16,1.53-3.76,2.77-4.8
			s2.67-1.56,4.29-1.56c1.16,0,2.22,0.27,3.18,0.81s1.71,1.28,2.25,2.22c0.54,0.94,0.81,1.82,0.81,2.65c0,1.5-0.42,3.02-1.25,4.56
			c-1.14,2.08-3.62,4.99-7.46,8.72h4.95c1.22,0,2.01-0.05,2.38-0.15s0.67-0.27,0.9-0.52s0.55-0.75,0.93-1.53h0.61L283.06,207.33z"/>
	</g>
	<g>
		<path class="st6" d="M82.36,293.39c1.61,1.18,2.73,2.29,3.36,3.3s0.94,2.19,0.94,3.51c0,1.85-0.7,3.41-2.09,4.69
			s-3.28,1.92-5.67,1.92c-2.27,0-4.02-0.56-5.26-1.67c-1.24-1.12-1.86-2.48-1.86-4.09c0-1.23,0.36-2.3,1.07-3.23
			c0.72-0.92,1.91-1.77,3.58-2.54c-1.81-1.39-2.98-2.52-3.49-3.4s-0.77-1.9-0.77-3.06c0-1.53,0.65-2.88,1.95-4.05
			c1.3-1.17,3.08-1.75,5.35-1.75c2.19,0,3.87,0.52,5.05,1.55s1.77,2.27,1.77,3.71c0,1.08-0.32,2.04-0.96,2.87
			S83.7,292.72,82.36,293.39z M77.69,296.09c-0.35,0.32-0.6,0.6-0.74,0.86c-0.23,0.39-0.43,0.97-0.61,1.72
			c-0.18,0.75-0.27,1.54-0.27,2.37c0,1.06,0.14,1.95,0.41,2.66c0.27,0.72,0.66,1.23,1.16,1.55s1.02,0.47,1.55,0.47
			c0.82,0,1.52-0.3,2.08-0.9s0.85-1.43,0.85-2.48C82.11,300.16,80.64,298.07,77.69,296.09z M81.07,292.52
			c0.42-0.56,0.73-1.19,0.93-1.89c0.2-0.7,0.3-1.46,0.3-2.3c0-1.46-0.32-2.59-0.95-3.36c-0.47-0.6-1.13-0.9-1.96-0.9
			c-0.76,0-1.4,0.27-1.93,0.82c-0.53,0.55-0.79,1.23-0.79,2.04c0,0.82,0.3,1.68,0.89,2.56C78.16,290.38,79.33,291.39,81.07,292.52z"
			/>
		<path class="st6" d="M269.59,297.7l10.89-14.76h2.06v14.76h2.1v3.5h-2.1v5.14h-4.65v-5.14h-8.3V297.7z M271.23,297.7h6.66v-9.04
			L271.23,297.7z"/>
	</g>
	<g>
		<path class="st6" d="M114.84,143.94v18.75c0,1.41,0.06,2.31,0.19,2.7s0.38,0.71,0.78,0.96c0.39,0.25,1.02,0.37,1.89,0.37h0.52
			v0.62h-12.07v-0.62h0.61c0.98,0,1.68-0.11,2.1-0.34c0.42-0.22,0.7-0.54,0.85-0.93c0.15-0.39,0.22-1.31,0.22-2.75V150.8
			c0-1.06-0.05-1.72-0.15-1.99c-0.1-0.26-0.29-0.49-0.57-0.68c-0.28-0.19-0.59-0.28-0.96-0.28c-0.57,0-1.27,0.18-2.1,0.54l-0.3-0.61
			l8.44-3.85H114.84z"/>
		<path class="st6" d="M130.23,143.94v18.75c0,1.41,0.06,2.31,0.19,2.7s0.38,0.71,0.78,0.96c0.39,0.25,1.02,0.37,1.89,0.37h0.52
			v0.62h-12.07v-0.62h0.61c0.98,0,1.68-0.11,2.1-0.34c0.42-0.22,0.7-0.54,0.85-0.93c0.15-0.39,0.22-1.31,0.22-2.75V150.8
			c0-1.06-0.05-1.72-0.15-1.99c-0.1-0.26-0.29-0.49-0.57-0.68c-0.28-0.19-0.59-0.28-0.96-0.28c-0.57,0-1.27,0.18-2.1,0.54l-0.3-0.61
			l8.44-3.85H130.23z"/>
		<path class="st6" d="M243.76,143.94v18.75c0,1.41,0.06,2.31,0.19,2.7s0.38,0.71,0.78,0.96c0.39,0.25,1.02,0.37,1.89,0.37h0.52
			v0.62h-12.07v-0.62h0.61c0.98,0,1.68-0.11,2.1-0.34c0.42-0.22,0.7-0.54,0.85-0.93c0.15-0.39,0.22-1.31,0.22-2.75V150.8
			c0-1.06-0.05-1.72-0.15-1.99c-0.1-0.26-0.29-0.49-0.57-0.68c-0.28-0.19-0.59-0.28-0.96-0.28c-0.57,0-1.27,0.18-2.1,0.54l-0.3-0.61
			l8.44-3.85H243.76z"/>
	</g>
	<g>
		<path class="st6" d="M112.7,346.81l6.24-18.92h-4.75c-1.86,0-3.26,0.24-4.19,0.73c-0.65,0.34-1.19,0.98-1.62,1.91h-0.64l1.66-7.12
			h13.66l-7.69,23.4H112.7z"/>
		<path class="st6" d="M241.06,323.41h10.73l-1.71,4.36h-9.03l-0.86,2.28c3.89,0.15,6.88,1.12,8.98,2.91
			c1.72,1.48,2.59,3.31,2.59,5.51c0,1.41-0.4,2.79-1.2,4.13s-1.93,2.38-3.38,3.11c-1.45,0.73-3.05,1.09-4.78,1.09
			c-1.87,0-3.31-0.35-4.31-1.05c-0.7-0.5-1.05-1.06-1.05-1.69c0-0.48,0.18-0.91,0.55-1.28s0.79-0.56,1.28-0.56
			c0.44,0,0.88,0.09,1.34,0.27c0.45,0.18,1.22,0.65,2.32,1.42c0.69,0.47,1.28,0.8,1.77,0.98c0.35,0.13,0.74,0.2,1.18,0.2
			c0.92,0,1.71-0.34,2.36-1.01c0.65-0.68,0.97-1.49,0.97-2.43c0-1.98-0.99-3.59-2.98-4.83c-1.98-1.24-4.49-1.86-7.51-1.86
			c-0.3,0-0.76,0-1.37,0.02L241.06,323.41z"/>
	</g>
	<g>
		<path class="st6" d="M186.32,343.07v0.47c-2.02,0.51-3.64,1.17-4.86,1.98c-1.22,0.81-2.18,1.79-2.89,2.94
			c-0.71,1.15-1.26,2.58-1.65,4.29c0.49-0.33,0.9-0.55,1.22-0.65c0.72-0.22,1.45-0.33,2.19-0.33c1.69,0,3.11,0.62,4.24,1.85
			c1.13,1.23,1.7,2.91,1.7,5.04c0,1.49-0.31,2.86-0.92,4.11s-1.48,2.21-2.61,2.89c-1.13,0.68-2.33,1.02-3.61,1.02
			c-1.39,0-2.68-0.38-3.86-1.14c-1.18-0.76-2.1-1.88-2.77-3.35c-0.66-1.47-0.99-3.07-0.99-4.8c0-2.54,0.61-4.91,1.83-7.1
			c1.22-2.19,2.95-3.93,5.2-5.23C180.79,343.76,183.38,343.1,186.32,343.07z M176.71,354.11c-0.09,1.54-0.13,2.66-0.13,3.38
			c0,1.54,0.15,3.03,0.44,4.46s0.7,2.45,1.21,3.03c0.37,0.41,0.8,0.62,1.3,0.62c0.51,0,0.97-0.3,1.37-0.89
			c0.4-0.6,0.6-1.81,0.6-3.64c0-3.08-0.37-5.2-1.12-6.37c-0.48-0.76-1.13-1.14-1.94-1.14C178,353.56,177.42,353.74,176.71,354.11z"
			/>
	</g>
	<g>
		<path class="st6" d="M172.83,122.26v18.54c0,1.39,0.06,2.28,0.18,2.67c0.12,0.38,0.38,0.7,0.77,0.94s1.01,0.37,1.87,0.37h0.52
			v0.62h-11.94v-0.62h0.6c0.97,0,1.66-0.11,2.07-0.33c0.41-0.22,0.69-0.53,0.84-0.92s0.22-1.3,0.22-2.73v-11.75
			c0-1.05-0.05-1.7-0.15-1.96c-0.1-0.26-0.29-0.48-0.56-0.67c-0.27-0.18-0.59-0.28-0.94-0.28c-0.57,0-1.26,0.18-2.07,0.54l-0.3-0.6
			l8.34-3.81H172.83z"/>
		<path class="st6" d="M192.97,145.4h-13.34v-0.37c4.09-4.87,6.57-8.15,7.45-9.83s1.31-3.33,1.31-4.93c0-1.17-0.36-2.14-1.09-2.92
			c-0.72-0.77-1.61-1.16-2.66-1.16c-1.72,0-3.05,0.86-4,2.57l-0.62-0.22c0.6-2.14,1.52-3.72,2.74-4.75
			c1.23-1.03,2.64-1.54,4.25-1.54c1.15,0,2.2,0.27,3.14,0.8c0.95,0.54,1.69,1.27,2.22,2.2c0.53,0.93,0.8,1.8,0.8,2.62
			c0,1.48-0.41,2.99-1.24,4.51c-1.13,2.06-3.58,4.94-7.37,8.63h4.9c1.2,0,1.99-0.05,2.35-0.15c0.36-0.1,0.66-0.27,0.89-0.51
			c0.23-0.24,0.54-0.74,0.92-1.51h0.6L192.97,145.4z"/>
	</g>
</g>
</svg>
