<?xml version="1.0" encoding="utf-8"?>
<!-- Generator: Adobe Illustrator 25.4.1, SVG Export Plug-In . SVG Version: 6.00 Build 0)  -->
<svg version="1.1" id="Layer_1" xmlns="http://www.w3.org/2000/svg" xmlns:xlink="http://www.w3.org/1999/xlink" x="0px" y="0px"
	 viewBox="0 0 4936.1 1436.9" style="enable-background:new 0 0 4936.1 1436.9;" xml:space="preserve">
<style type="text/css">
	.st0{fill-rule:evenodd;clip-rule:evenodd;fill:#FCBC00;}
	
		.st1{clip-path:url(#SVGID_00000119807869560185279950000000974853680719239086_);fill-rule:evenodd;clip-rule:evenodd;fill:#038137;}
	
		.st2{clip-path:url(#SVGID_00000134212727504068799740000010639307443207629502_);fill-rule:evenodd;clip-rule:evenodd;fill:#FFFFFF;}
	
		.st3{clip-path:url(#SVGID_00000004548087672078780620000013541674000736251047_);fill:none;stroke:#FFFFFF;stroke-width:0.9873;stroke-miterlimit:2.5797;}
	
		.st4{clip-path:url(#SVGID_00000109026543933856527710000018101931755959119535_);fill:none;stroke:#FFFFFF;stroke-width:0.9873;stroke-miterlimit:2.5797;}
	
		.st5{clip-path:url(#SVGID_00000009589611514673157690000000538226084370138033_);fill:none;stroke:#FFFFFF;stroke-width:0.9873;stroke-miterlimit:2.5797;}
	
		.st6{clip-path:url(#SVGID_00000049199113479073043420000011230912240877462670_);fill:none;stroke:#FFFFFF;stroke-width:0.9873;stroke-miterlimit:2.5797;}
	
		.st7{clip-path:url(#SVGID_00000093146060342253597960000015926391129119390124_);fill:none;stroke:#FFFFFF;stroke-width:0.9873;stroke-miterlimit:2.5797;}
	
		.st8{clip-path:url(#SVGID_00000160182241392473233330000002107179942482725004_);fill:none;stroke:#FFFFFF;stroke-width:0.9873;stroke-miterlimit:2.5797;}
	
		.st9{clip-path:url(#SVGID_00000001639392573719919830000016967521524422049430_);fill:none;stroke:#FFFFFF;stroke-width:0.9873;stroke-miterlimit:2.5797;}
	
		.st10{clip-path:url(#SVGID_00000010273390872321444680000015687629791569293499_);fill:none;stroke:#FFFFFF;stroke-width:0.9873;stroke-miterlimit:2.5797;}
	
		.st11{clip-path:url(#SVGID_00000006700916599529806380000018247930169571383741_);fill:none;stroke:#FFFFFF;stroke-width:0.9873;stroke-miterlimit:2.5797;}
	
		.st12{clip-path:url(#SVGID_00000004546325499618133420000001592618867110113449_);fill-rule:evenodd;clip-rule:evenodd;fill:#FCBC00;}
	
		.st13{clip-path:url(#SVGID_00000000205591247894221340000015308905622690581924_);fill-rule:evenodd;clip-rule:evenodd;fill:#FFFFFF;}
	
		.st14{clip-path:url(#SVGID_00000082347932276682910110000003666649377914038160_);fill:none;stroke:#FFFFFF;stroke-width:0.9873;stroke-miterlimit:2.5797;}
	
		.st15{clip-path:url(#SVGID_00000075868054725246785450000010335652861615477125_);fill:none;stroke:#FFFFFF;stroke-width:0.9873;stroke-miterlimit:2.5797;}
	
		.st16{clip-path:url(#SVGID_00000130636364061315930320000004887840076668200869_);fill:none;stroke:#FFFFFF;stroke-width:0.9873;stroke-miterlimit:2.5797;}
	
		.st17{clip-path:url(#SVGID_00000099655065240427822730000012791363850050656936_);fill:none;stroke:#FFFFFF;stroke-width:0.9873;stroke-miterlimit:2.5797;}
	
		.st18{clip-path:url(#SVGID_00000047032347938871385880000004069224829920324494_);fill:none;stroke:#FFFFFF;stroke-width:0.9873;stroke-miterlimit:2.5797;}
	
		.st19{clip-path:url(#SVGID_00000083811168889655505930000005989720633380146085_);fill:none;stroke:#FFFFFF;stroke-width:0.9873;stroke-miterlimit:2.5797;}
	
		.st20{clip-path:url(#SVGID_00000067933390801498940720000010031833618226325654_);fill:none;stroke:#FFFFFF;stroke-width:0.9873;stroke-miterlimit:2.5797;}
	
		.st21{clip-path:url(#SVGID_00000156583145096863551290000011776009169069781142_);fill:none;stroke:#FFFFFF;stroke-width:0.9873;stroke-miterlimit:2.5797;}
	
		.st22{clip-path:url(#SVGID_00000158018731232691852590000003471405887904881340_);fill:none;stroke:#FFFFFF;stroke-width:0.9873;stroke-miterlimit:2.5797;}
	
		.st23{clip-path:url(#SVGID_00000079471805979622375150000013745823324195532990_);fill:none;stroke:#FFFFFF;stroke-width:0.9873;stroke-miterlimit:2.5797;}
	
		.st24{clip-path:url(#SVGID_00000071556291495953279250000013929517757204618431_);fill:none;stroke:#FFFFFF;stroke-width:0.9873;stroke-miterlimit:2.5797;}
	
		.st25{clip-path:url(#SVGID_00000129201947082606288040000002175887046415466413_);fill:none;stroke:#FFFFFF;stroke-width:0.9873;stroke-miterlimit:2.5797;}
	
		.st26{clip-path:url(#SVGID_00000160886632036093875620000005187693425127702164_);fill:none;stroke:#FFFFFF;stroke-width:0.9873;stroke-miterlimit:2.5797;}
	
		.st27{clip-path:url(#SVGID_00000165946719684551907320000006472636099739518383_);fill:none;stroke:#FFFFFF;stroke-width:0.9873;stroke-miterlimit:2.5797;}
	
		.st28{clip-path:url(#SVGID_00000078739109010412122500000001930531483914936721_);fill:none;stroke:#FFFFFF;stroke-width:0.9873;stroke-miterlimit:2.5797;}
	
		.st29{clip-path:url(#SVGID_00000142862667348312745480000008849065742355317682_);fill:none;stroke:#FFFFFF;stroke-width:0.9873;stroke-miterlimit:2.5797;}
	
		.st30{clip-path:url(#SVGID_00000042734460254703318920000003920847473950712216_);fill:none;stroke:#FFFFFF;stroke-width:0.9873;stroke-miterlimit:2.5797;}
	.st31{fill:#E3000F;}
	.st32{fill:none;stroke:#038137;stroke-width:34.5531;stroke-miterlimit:2.5797;}
	.st33{enable-background:new    ;}
	.st34{fill:#FFFFFF;}
	.st35{fill:#038137;}
</style>
<g>
	<g>
		<g>
			<g>
				<path class="st0" d="M1527.3,658.8c2,19.6,3.1,39.5,3.1,59.6c0,360-326,651.9-727.9,651.9S74.6,1078.4,74.6,718.4
					c0-20.1,1.1-40,3.1-59.6L1527.3,658.8L1527.3,658.8z"/>
				<g>
					<g>
						<g>
							<g>
								<g>
									<defs>
										<path id="SVGID_1_" d="M1527.3,658.8c2,19.6,3.1,39.5,3.1,59.6c0,360-326,651.9-727.9,651.9S74.6,1078.4,74.6,718.4
											c0-20.1,1.1-40,3.1-59.6L1527.3,658.8L1527.3,658.8z"/>
									</defs>
									<clipPath id="SVGID_00000111879315565373242680000013502698223248672698_">
										<use xlink:href="#SVGID_1_"  style="overflow:visible;"/>
									</clipPath>
									
										<rect x="38.1" y="626.7" style="clip-path:url(#SVGID_00000111879315565373242680000013502698223248672698_);fill-rule:evenodd;clip-rule:evenodd;fill:#038137;" width="1619.6" height="259.5"/>
								</g>
							</g>
						</g>
					</g>
					<g>
						<g>
							<g>
								<g>
									<defs>
										<path id="SVGID_00000096032363912756093700000003155612642188934793_" d="M1527.3,658.8c2,19.6,3.1,39.5,3.1,59.6
											c0,360-326,651.9-727.9,651.9S74.6,1078.4,74.6,718.4c0-20.1,1.1-40,3.1-59.6L1527.3,658.8L1527.3,658.8z"/>
									</defs>
									<clipPath id="SVGID_00000152959735430020106800000015924880202763848586_">
										<use xlink:href="#SVGID_00000096032363912756093700000003155612642188934793_"  style="overflow:visible;"/>
									</clipPath>
									
										<path style="clip-path:url(#SVGID_00000152959735430020106800000015924880202763848586_);fill-rule:evenodd;clip-rule:evenodd;fill:#FFFFFF;" d="
										M529.7,1029.4l22.4-7.9c116.6,33.5,189.6,93.7,250.4,161.3c60.8-67.7,133.9-127.8,250.4-161.3l22.4,7.9
										c-105.1,23.6-191.7,78.7-261.6,162.6c58.5-42,107.5-113.3,324.6-147.7l33.2,18.1c-159.2,3.7-255.8,70.8-347.2,143.2
										c137.2-91.8,278.8-131,424.8-117.8l20.3,40.3c-153.6-11.2-294.2,43.2-427.3,134.4l-13,25.8l-26.6,0.2l-26.6-0.2l-13-25.8
										c-133.1-91.2-273.6-145.6-427.3-134.4l20.3-40.3c146-13.2,287.6,26.1,424.8,117.8c-91.4-72.4-188-139.4-347.2-143.2
										l33.2-18.1c217.2,34.5,266.2,105.7,324.6,147.7C721.4,1108.1,634.8,1052.9,529.7,1029.4"/>
								</g>
							</g>
						</g>
					</g>
					<g>
						<g>
							<g>
								<g>
									<defs>
										<path id="SVGID_00000175296228729157308090000012531232181432912534_" d="M1527.3,658.8c2,19.6,3.1,39.5,3.1,59.6
											c0,360-326,651.9-727.9,651.9S74.6,1078.4,74.6,718.4c0-20.1,1.1-40,3.1-59.6L1527.3,658.8L1527.3,658.8z"/>
									</defs>
									<clipPath id="SVGID_00000158002516653231621140000009764809512063243153_">
										<use xlink:href="#SVGID_00000175296228729157308090000012531232181432912534_"  style="overflow:visible;"/>
									</clipPath>
									
										<line style="clip-path:url(#SVGID_00000158002516653231621140000009764809512063243153_);fill:none;stroke:#FFFFFF;stroke-width:0.9873;stroke-miterlimit:2.5797;" x1="802.5" y1="1039.3" x2="802.5" y2="947.8"/>
								</g>
							</g>
						</g>
					</g>
					<g>
						<g>
							<g>
								<g>
									<defs>
										<path id="SVGID_00000148663021573789457810000014156222326715252131_" d="M1527.3,658.8c2,19.6,3.1,39.5,3.1,59.6
											c0,360-326,651.9-727.9,651.9S74.6,1078.4,74.6,718.4c0-20.1,1.1-40,3.1-59.6L1527.3,658.8L1527.3,658.8z"/>
									</defs>
									<clipPath id="SVGID_00000006695057242797095280000011235043738704381320_">
										<use xlink:href="#SVGID_00000148663021573789457810000014156222326715252131_"  style="overflow:visible;"/>
									</clipPath>
									
										<line style="clip-path:url(#SVGID_00000006695057242797095280000011235043738704381320_);fill:none;stroke:#FFFFFF;stroke-width:0.9873;stroke-miterlimit:2.5797;" x1="802.5" y1="1039.3" x2="837.5" y2="953.3"/>
								</g>
							</g>
						</g>
					</g>
					<g>
						<g>
							<g>
								<g>
									<defs>
										<path id="SVGID_00000028292971921370768750000001056591845338700454_" d="M1527.3,658.8c2,19.6,3.1,39.5,3.1,59.6
											c0,360-326,651.9-727.9,651.9S74.6,1078.4,74.6,718.4c0-20.1,1.1-40,3.1-59.6L1527.3,658.8L1527.3,658.8z"/>
									</defs>
									<clipPath id="SVGID_00000155119845965144673250000016880337645000368786_">
										<use xlink:href="#SVGID_00000028292971921370768750000001056591845338700454_"  style="overflow:visible;"/>
									</clipPath>
									
										<line style="clip-path:url(#SVGID_00000155119845965144673250000016880337645000368786_);fill:none;stroke:#FFFFFF;stroke-width:0.9873;stroke-miterlimit:2.5797;" x1="802.5" y1="1039.3" x2="868.2" y2="969.2"/>
								</g>
							</g>
						</g>
					</g>
					<g>
						<g>
							<g>
								<g>
									<defs>
										<path id="SVGID_00000006702584729939884230000015584869867302440348_" d="M1527.3,658.8c2,19.6,3.1,39.5,3.1,59.6
											c0,360-326,651.9-727.9,651.9S74.6,1078.4,74.6,718.4c0-20.1,1.1-40,3.1-59.6L1527.3,658.8L1527.3,658.8z"/>
									</defs>
									<clipPath id="SVGID_00000100379358018682497760000007834541014098605456_">
										<use xlink:href="#SVGID_00000006702584729939884230000015584869867302440348_"  style="overflow:visible;"/>
									</clipPath>
									
										<line style="clip-path:url(#SVGID_00000100379358018682497760000007834541014098605456_);fill:none;stroke:#FFFFFF;stroke-width:0.9873;stroke-miterlimit:2.5797;" x1="802.5" y1="1039.3" x2="891" y2="993.6"/>
								</g>
							</g>
						</g>
					</g>
					<g>
						<g>
							<g>
								<g>
									<defs>
										<path id="SVGID_00000179647171573284929620000002029799825315129230_" d="M1527.3,658.8c2,19.6,3.1,39.5,3.1,59.6
											c0,360-326,651.9-727.9,651.9S74.6,1078.4,74.6,718.4c0-20.1,1.1-40,3.1-59.6L1527.3,658.8L1527.3,658.8z"/>
									</defs>
									<clipPath id="SVGID_00000134216707041759038360000005286219595145467049_">
										<use xlink:href="#SVGID_00000179647171573284929620000002029799825315129230_"  style="overflow:visible;"/>
									</clipPath>
									
										<line style="clip-path:url(#SVGID_00000134216707041759038360000005286219595145467049_);fill:none;stroke:#FFFFFF;stroke-width:0.9873;stroke-miterlimit:2.5797;" x1="802.5" y1="1039.3" x2="903.2" y2="1023.4"/>
								</g>
							</g>
						</g>
					</g>
					<g>
						<g>
							<g>
								<g>
									<defs>
										<path id="SVGID_00000088816425338085978170000010714263375123355067_" d="M1527.3,658.8c2,19.6,3.1,39.5,3.1,59.6
											c0,360-326,651.9-727.9,651.9S74.6,1078.4,74.6,718.4c0-20.1,1.1-40,3.1-59.6L1527.3,658.8L1527.3,658.8z"/>
									</defs>
									<clipPath id="SVGID_00000152244773393419782040000004485204564987034547_">
										<use xlink:href="#SVGID_00000088816425338085978170000010714263375123355067_"  style="overflow:visible;"/>
									</clipPath>
									
										<line style="clip-path:url(#SVGID_00000152244773393419782040000004485204564987034547_);fill:none;stroke:#FFFFFF;stroke-width:0.9873;stroke-miterlimit:2.5797;" x1="802.5" y1="1039.3" x2="767.6" y2="953.3"/>
								</g>
							</g>
						</g>
					</g>
					<g>
						<g>
							<g>
								<g>
									<defs>
										<path id="SVGID_00000125590163554086420670000010857846486911293366_" d="M1527.3,658.8c2,19.6,3.1,39.5,3.1,59.6
											c0,360-326,651.9-727.9,651.9S74.6,1078.4,74.6,718.4c0-20.1,1.1-40,3.1-59.6L1527.3,658.8L1527.3,658.8z"/>
									</defs>
									<clipPath id="SVGID_00000105385615214415733910000004865398468111712656_">
										<use xlink:href="#SVGID_00000125590163554086420670000010857846486911293366_"  style="overflow:visible;"/>
									</clipPath>
									
										<line style="clip-path:url(#SVGID_00000105385615214415733910000004865398468111712656_);fill:none;stroke:#FFFFFF;stroke-width:0.9873;stroke-miterlimit:2.5797;" x1="802.5" y1="1039.3" x2="736.8" y2="969.2"/>
								</g>
							</g>
						</g>
					</g>
					<g>
						<g>
							<g>
								<g>
									<defs>
										<path id="SVGID_00000079479296813455786920000014057940164800942009_" d="M1527.3,658.8c2,19.6,3.1,39.5,3.1,59.6
											c0,360-326,651.9-727.9,651.9S74.6,1078.4,74.6,718.4c0-20.1,1.1-40,3.1-59.6L1527.3,658.8L1527.3,658.8z"/>
									</defs>
									<clipPath id="SVGID_00000057111835041232374570000001783434107717647490_">
										<use xlink:href="#SVGID_00000079479296813455786920000014057940164800942009_"  style="overflow:visible;"/>
									</clipPath>
									
										<line style="clip-path:url(#SVGID_00000057111835041232374570000001783434107717647490_);fill:none;stroke:#FFFFFF;stroke-width:0.9873;stroke-miterlimit:2.5797;" x1="802.5" y1="1039.3" x2="714" y2="993.6"/>
								</g>
							</g>
						</g>
					</g>
					<g>
						<g>
							<g>
								<g>
									<defs>
										<path id="SVGID_00000089561356102094864040000001847777268898982304_" d="M1527.3,658.8c2,19.6,3.1,39.5,3.1,59.6
											c0,360-326,651.9-727.9,651.9S74.6,1078.4,74.6,718.4c0-20.1,1.1-40,3.1-59.6L1527.3,658.8L1527.3,658.8z"/>
									</defs>
									<clipPath id="SVGID_00000049191022182367320150000015276809310166410163_">
										<use xlink:href="#SVGID_00000089561356102094864040000001847777268898982304_"  style="overflow:visible;"/>
									</clipPath>
									
										<line style="clip-path:url(#SVGID_00000049191022182367320150000015276809310166410163_);fill:none;stroke:#FFFFFF;stroke-width:0.9873;stroke-miterlimit:2.5797;" x1="802.5" y1="1039.3" x2="701.9" y2="1023.4"/>
								</g>
							</g>
						</g>
					</g>
					<g>
						<g>
							<g>
								<g>
									<defs>
										<path id="SVGID_00000044159120488547961510000005780896899060280995_" d="M1527.3,658.8c2,19.6,3.1,39.5,3.1,59.6
											c0,360-326,651.9-727.9,651.9S74.6,1078.4,74.6,718.4c0-20.1,1.1-40,3.1-59.6L1527.3,658.8L1527.3,658.8z"/>
									</defs>
									<clipPath id="SVGID_00000110450732081301596120000007727761994868041133_">
										<use xlink:href="#SVGID_00000044159120488547961510000005780896899060280995_"  style="overflow:visible;"/>
									</clipPath>
									
										<path style="clip-path:url(#SVGID_00000110450732081301596120000007727761994868041133_);fill-rule:evenodd;clip-rule:evenodd;fill:#FCBC00;" d="
										M801.5,1010.5c18.8,0,34.1,19.2,34.1,42.9c0,23.7-15.3,42.9-34.1,42.9s-34.1-19.2-34.1-42.9
										C767.4,1029.7,782.6,1010.5,801.5,1010.5"/>
								</g>
							</g>
						</g>
					</g>
					<g>
						<g>
							<g>
								<g>
									<defs>
										<path id="SVGID_00000145043284726784221800000007917819184098555554_" d="M1527.3,658.8c2,19.6,3.1,39.5,3.1,59.6
											c0,360-326,651.9-727.9,651.9S74.6,1078.4,74.6,718.4c0-20.1,1.1-40,3.1-59.6L1527.3,658.8L1527.3,658.8z"/>
									</defs>
									<clipPath id="SVGID_00000072979857843286188980000012379126394044560271_">
										<use xlink:href="#SVGID_00000145043284726784221800000007917819184098555554_"  style="overflow:visible;"/>
									</clipPath>
									
										<path style="clip-path:url(#SVGID_00000072979857843286188980000012379126394044560271_);fill-rule:evenodd;clip-rule:evenodd;fill:#FFFFFF;" d="
										M797.9,1104.8v-5.8c-15.8,1.1-23.8,3.3-23.8,6.8c0,1.5,2.7,2.9,8.1,4.2c5.4,1.3,11.3,2,17.7,2c9.3,0,16.2-0.6,20.8-1.6
										c4.6-1.1,6.9-2.6,6.9-4.7c0-3.3-7.8-5.5-23.5-6.7v5.8H797.9L797.9,1104.8L797.9,1104.8z M799.8,1028.6
										c-1,4.2-4.1,10.2-9.5,18.1l-2.9,4.2c-4.6,6.9-6.9,12.1-6.9,15.7c0,3.9,1.9,7.3,5.7,10c3.8,2.8,8.3,4.2,13.5,4.2
										c5.7,0,10.5-1.8,14.5-5.3c4-3.6,6-7.9,6-13C820.1,1051.1,813.3,1039.8,799.8,1028.6z M804.2,1085.6v7.3
										c13.6,1.1,22.3,3.2,26.1,6.1c3.8,2.9,5.7,8.8,5.7,17.9v47.7h-6.4v-52.7c-3.3,1.9-7.4,3.4-12.1,4.3
										c-4.8,1-10.2,1.4-16.4,1.4c-6.1,0-11.5-0.5-16.3-1.4c-4.7-0.9-8.9-2.4-12.3-4.3v52.7h-6.3v-47.6c0-7.1,0.4-11.6,1.1-13.4
										c0.7-1.9,2.9-3.6,6.4-5.3c5.3-2.6,13.4-4.4,24.3-5.3v-7.3c-7.2-0.4-13-2.4-17.3-6c-4.3-3.6-6.5-8.1-6.5-13.6
										c0-5.9,2.8-12.4,8.4-19.6l3.2-4.2c5.7-7.4,8.6-13.7,8.6-19c0-1-0.2-2.4-0.5-4.2c21.7,11,32.6,25,32.6,42
										c0,6.4-1.8,11.6-5.5,15.7C817.3,1080.8,811.7,1083.8,804.2,1085.6z"/>
								</g>
							</g>
						</g>
					</g>
				</g>
				<path class="st0" d="M802.5,66.5c219.8,0,416.8,87.3,550.3,225.2H252.2C385.7,153.8,582.8,66.5,802.5,66.5"/>
				<g>
					<g>
						<g>
							<g>
								<g>
									<defs>
										<path id="SVGID_00000067955612076402704370000017693086238703922310_" d="M802.5,66.5c219.8,0,416.8,87.3,550.3,225.2
											H252.2C385.7,153.8,582.8,66.5,802.5,66.5"/>
									</defs>
									<clipPath id="SVGID_00000067207340591404833470000013635785081953082524_">
										<use xlink:href="#SVGID_00000067955612076402704370000017693086238703922310_"  style="overflow:visible;"/>
									</clipPath>
									
										<line style="clip-path:url(#SVGID_00000067207340591404833470000013635785081953082524_);fill:none;stroke:#FFFFFF;stroke-width:0.9873;stroke-miterlimit:2.5797;" x1="802.5" y1="308.5" x2="802.5" y2="-179.4"/>
								</g>
							</g>
						</g>
					</g>
					<g>
						<g>
							<g>
								<g>
									<defs>
										<path id="SVGID_00000135673775473189188100000009277985905023638185_" d="M802.5,66.5c219.8,0,416.8,87.3,550.3,225.2
											H252.2C385.7,153.8,582.8,66.5,802.5,66.5"/>
									</defs>
									<clipPath id="SVGID_00000115492656629540426590000005897307126730496939_">
										<use xlink:href="#SVGID_00000135673775473189188100000009277985905023638185_"  style="overflow:visible;"/>
									</clipPath>
									
										<line style="clip-path:url(#SVGID_00000115492656629540426590000005897307126730496939_);fill:none;stroke:#FFFFFF;stroke-width:0.9873;stroke-miterlimit:2.5797;" x1="802.5" y1="308.5" x2="897.1" y2="-172"/>
								</g>
							</g>
						</g>
					</g>
					<g>
						<g>
							<g>
								<g>
									<defs>
										<path id="SVGID_00000132794277018040949730000013000484200345114246_" d="M802.5,66.5c219.8,0,416.8,87.3,550.3,225.2
											H252.2C385.7,153.8,582.8,66.5,802.5,66.5"/>
									</defs>
									<clipPath id="SVGID_00000128449053716889267950000007046184169448758940_">
										<use xlink:href="#SVGID_00000132794277018040949730000013000484200345114246_"  style="overflow:visible;"/>
									</clipPath>
									
										<line style="clip-path:url(#SVGID_00000128449053716889267950000007046184169448758940_);fill:none;stroke:#FFFFFF;stroke-width:0.9873;stroke-miterlimit:2.5797;" x1="802.5" y1="308.5" x2="988.9" y2="-150"/>
								</g>
							</g>
						</g>
					</g>
					<g>
						<g>
							<g>
								<g>
									<defs>
										<path id="SVGID_00000094588139668480031050000005055367770314469785_" d="M802.5,66.5c219.8,0,416.8,87.3,550.3,225.2
											H252.2C385.7,153.8,582.8,66.5,802.5,66.5"/>
									</defs>
									<clipPath id="SVGID_00000133489776753988711050000010690851565429552012_">
										<use xlink:href="#SVGID_00000094588139668480031050000005055367770314469785_"  style="overflow:visible;"/>
									</clipPath>
									
										<line style="clip-path:url(#SVGID_00000133489776753988711050000010690851565429552012_);fill:none;stroke:#FFFFFF;stroke-width:0.9873;stroke-miterlimit:2.5797;" x1="802.5" y1="308.5" x2="1074.9" y2="-114"/>
								</g>
							</g>
						</g>
					</g>
					<g>
						<g>
							<g>
								<g>
									<defs>
										<path id="SVGID_00000110448904554970519780000000444608601816455072_" d="M802.5,66.5c219.8,0,416.8,87.3,550.3,225.2
											H252.2C385.7,153.8,582.8,66.5,802.5,66.5"/>
									</defs>
									<clipPath id="SVGID_00000169556813656795607430000004479020995302627499_">
										<use xlink:href="#SVGID_00000110448904554970519780000000444608601816455072_"  style="overflow:visible;"/>
									</clipPath>
									
										<line style="clip-path:url(#SVGID_00000169556813656795607430000004479020995302627499_);fill:none;stroke:#FFFFFF;stroke-width:0.9873;stroke-miterlimit:2.5797;" x1="802.5" y1="308.5" x2="1152.7" y2="-65.3"/>
								</g>
							</g>
						</g>
					</g>
					<g>
						<g>
							<g>
								<g>
									<defs>
										<path id="SVGID_00000150097723834336423550000009286903303243117221_" d="M802.5,66.5c219.8,0,416.8,87.3,550.3,225.2
											H252.2C385.7,153.8,582.8,66.5,802.5,66.5"/>
									</defs>
									<clipPath id="SVGID_00000110449540679925160540000015305499827807076501_">
										<use xlink:href="#SVGID_00000150097723834336423550000009286903303243117221_"  style="overflow:visible;"/>
									</clipPath>
									
										<line style="clip-path:url(#SVGID_00000110449540679925160540000015305499827807076501_);fill:none;stroke:#FFFFFF;stroke-width:0.9873;stroke-miterlimit:2.5797;" x1="802.5" y1="308.5" x2="1219.9" y2="-5.1"/>
								</g>
							</g>
						</g>
					</g>
					<g>
						<g>
							<g>
								<g>
									<defs>
										<path id="SVGID_00000142868850569918518670000005449886245200310714_" d="M802.5,66.5c219.8,0,416.8,87.3,550.3,225.2
											H252.2C385.7,153.8,582.8,66.5,802.5,66.5"/>
									</defs>
									<clipPath id="SVGID_00000127740984617294910550000009676523489188662177_">
										<use xlink:href="#SVGID_00000142868850569918518670000005449886245200310714_"  style="overflow:visible;"/>
									</clipPath>
									
										<line style="clip-path:url(#SVGID_00000127740984617294910550000009676523489188662177_);fill:none;stroke:#FFFFFF;stroke-width:0.9873;stroke-miterlimit:2.5797;" x1="802.5" y1="308.5" x2="1274.4" y2="64.6"/>
								</g>
							</g>
						</g>
					</g>
					<g>
						<g>
							<g>
								<g>
									<defs>
										<path id="SVGID_00000019679031367888760480000014581771439697841074_" d="M802.5,66.5c219.8,0,416.8,87.3,550.3,225.2
											H252.2C385.7,153.8,582.8,66.5,802.5,66.5"/>
									</defs>
									<clipPath id="SVGID_00000047027582058018860890000013616548509841879698_">
										<use xlink:href="#SVGID_00000019679031367888760480000014581771439697841074_"  style="overflow:visible;"/>
									</clipPath>
									
										<line style="clip-path:url(#SVGID_00000047027582058018860890000013616548509841879698_);fill:none;stroke:#FFFFFF;stroke-width:0.9873;stroke-miterlimit:2.5797;" x1="802.5" y1="308.5" x2="1314.5" y2="141.6"/>
								</g>
							</g>
						</g>
					</g>
					<g>
						<g>
							<g>
								<g>
									<defs>
										<path id="SVGID_00000046311608387641594070000005689539023166189499_" d="M802.5,66.5c219.8,0,416.8,87.3,550.3,225.2
											H252.2C385.7,153.8,582.8,66.5,802.5,66.5"/>
									</defs>
									<clipPath id="SVGID_00000100355661880604385890000002657385763812719777_">
										<use xlink:href="#SVGID_00000046311608387641594070000005689539023166189499_"  style="overflow:visible;"/>
									</clipPath>
									
										<line style="clip-path:url(#SVGID_00000100355661880604385890000002657385763812719777_);fill:none;stroke:#FFFFFF;stroke-width:0.9873;stroke-miterlimit:2.5797;" x1="802.5" y1="308.5" x2="1339.1" y2="223.8"/>
								</g>
							</g>
						</g>
					</g>
					<g>
						<g>
							<g>
								<g>
									<defs>
										<path id="SVGID_00000058557559295485601940000011387663233350795648_" d="M802.5,66.5c219.8,0,416.8,87.3,550.3,225.2
											H252.2C385.7,153.8,582.8,66.5,802.5,66.5"/>
									</defs>
									<clipPath id="SVGID_00000181806681252127031270000010301536540648842663_">
										<use xlink:href="#SVGID_00000058557559295485601940000011387663233350795648_"  style="overflow:visible;"/>
									</clipPath>
									
										<line style="clip-path:url(#SVGID_00000181806681252127031270000010301536540648842663_);fill:none;stroke:#FFFFFF;stroke-width:0.9873;stroke-miterlimit:2.5797;" x1="802.5" y1="308.5" x2="707.9" y2="-172"/>
								</g>
							</g>
						</g>
					</g>
					<g>
						<g>
							<g>
								<g>
									<defs>
										<path id="SVGID_00000072278956120116374000000009316085904196693164_" d="M802.5,66.5c219.8,0,416.8,87.3,550.3,225.2
											H252.2C385.7,153.8,582.8,66.5,802.5,66.5"/>
									</defs>
									<clipPath id="SVGID_00000101104671495810107370000000418765862011717799_">
										<use xlink:href="#SVGID_00000072278956120116374000000009316085904196693164_"  style="overflow:visible;"/>
									</clipPath>
									
										<line style="clip-path:url(#SVGID_00000101104671495810107370000000418765862011717799_);fill:none;stroke:#FFFFFF;stroke-width:0.9873;stroke-miterlimit:2.5797;" x1="802.5" y1="308.5" x2="616.2" y2="-150"/>
								</g>
							</g>
						</g>
					</g>
					<g>
						<g>
							<g>
								<g>
									<defs>
										<path id="SVGID_00000049193367519410673520000017999041364299278265_" d="M802.5,66.5c219.8,0,416.8,87.3,550.3,225.2
											H252.2C385.7,153.8,582.8,66.5,802.5,66.5"/>
									</defs>
									<clipPath id="SVGID_00000116230575479479245270000011453267861377903016_">
										<use xlink:href="#SVGID_00000049193367519410673520000017999041364299278265_"  style="overflow:visible;"/>
									</clipPath>
									
										<line style="clip-path:url(#SVGID_00000116230575479479245270000011453267861377903016_);fill:none;stroke:#FFFFFF;stroke-width:0.9873;stroke-miterlimit:2.5797;" x1="802.5" y1="308.5" x2="530.1" y2="-114"/>
								</g>
							</g>
						</g>
					</g>
					<g>
						<g>
							<g>
								<g>
									<defs>
										<path id="SVGID_00000181089125703386085690000005561313072299482244_" d="M802.5,66.5c219.8,0,416.8,87.3,550.3,225.2
											H252.2C385.7,153.8,582.8,66.5,802.5,66.5"/>
									</defs>
									<clipPath id="SVGID_00000117646543064155694320000015479719439420548255_">
										<use xlink:href="#SVGID_00000181089125703386085690000005561313072299482244_"  style="overflow:visible;"/>
									</clipPath>
									
										<line style="clip-path:url(#SVGID_00000117646543064155694320000015479719439420548255_);fill:none;stroke:#FFFFFF;stroke-width:0.9873;stroke-miterlimit:2.5797;" x1="802.5" y1="308.5" x2="452.3" y2="-65.3"/>
								</g>
							</g>
						</g>
					</g>
					<g>
						<g>
							<g>
								<g>
									<defs>
										<path id="SVGID_00000183946968353928874990000000527104151279959444_" d="M802.5,66.5c219.8,0,416.8,87.3,550.3,225.2
											H252.2C385.7,153.8,582.8,66.5,802.5,66.5"/>
									</defs>
									<clipPath id="SVGID_00000032642462393965913920000011420772023312667299_">
										<use xlink:href="#SVGID_00000183946968353928874990000000527104151279959444_"  style="overflow:visible;"/>
									</clipPath>
									
										<line style="clip-path:url(#SVGID_00000032642462393965913920000011420772023312667299_);fill:none;stroke:#FFFFFF;stroke-width:0.9873;stroke-miterlimit:2.5797;" x1="802.5" y1="308.5" x2="385.2" y2="-5.1"/>
								</g>
							</g>
						</g>
					</g>
					<g>
						<g>
							<g>
								<g>
									<defs>
										<path id="SVGID_00000010996340581628339890000009850267311287779241_" d="M802.5,66.5c219.8,0,416.8,87.3,550.3,225.2
											H252.2C385.7,153.8,582.8,66.5,802.5,66.5"/>
									</defs>
									<clipPath id="SVGID_00000078036448990724530690000010848657945307141024_">
										<use xlink:href="#SVGID_00000010996340581628339890000009850267311287779241_"  style="overflow:visible;"/>
									</clipPath>
									
										<line style="clip-path:url(#SVGID_00000078036448990724530690000010848657945307141024_);fill:none;stroke:#FFFFFF;stroke-width:0.9873;stroke-miterlimit:2.5797;" x1="802.5" y1="308.5" x2="330.7" y2="64.6"/>
								</g>
							</g>
						</g>
					</g>
					<g>
						<g>
							<g>
								<g>
									<defs>
										<path id="SVGID_00000164508442910817260790000015591105819868290459_" d="M802.5,66.5c219.8,0,416.8,87.3,550.3,225.2
											H252.2C385.7,153.8,582.8,66.5,802.5,66.5"/>
									</defs>
									<clipPath id="SVGID_00000108285116646687492920000010997405600044696991_">
										<use xlink:href="#SVGID_00000164508442910817260790000015591105819868290459_"  style="overflow:visible;"/>
									</clipPath>
									
										<line style="clip-path:url(#SVGID_00000108285116646687492920000010997405600044696991_);fill:none;stroke:#FFFFFF;stroke-width:0.9873;stroke-miterlimit:2.5797;" x1="802.5" y1="308.5" x2="290.6" y2="141.6"/>
								</g>
							</g>
						</g>
					</g>
					<g>
						<g>
							<g>
								<g>
									<defs>
										<path id="SVGID_00000089532080877795071690000011355951371484696729_" d="M802.5,66.5c219.8,0,416.8,87.3,550.3,225.2
											H252.2C385.7,153.8,582.8,66.5,802.5,66.5"/>
									</defs>
									<clipPath id="SVGID_00000140006398954758891320000002968875091682638758_">
										<use xlink:href="#SVGID_00000089532080877795071690000011355951371484696729_"  style="overflow:visible;"/>
									</clipPath>
									
										<line style="clip-path:url(#SVGID_00000140006398954758891320000002968875091682638758_);fill:none;stroke:#FFFFFF;stroke-width:0.9873;stroke-miterlimit:2.5797;" x1="802.5" y1="308.5" x2="266" y2="223.8"/>
								</g>
							</g>
						</g>
					</g>
				</g>
				<path class="st31" d="M1381.7,403.5c-8.4-9.2-16.8-15.7-25.3-19.9c-8.5-4.1-17.8-6.2-27.9-6.2c-10.5,0-19.2,2.8-26.2,8.4
					c-7,5.6-10.5,12.6-10.5,21.1c0,7.5,2.4,14.4,7.4,20.9c4.9,6.5,13.9,14.6,27.1,24.3c21.6,16,37.6,31.6,48,47
					c10.4,15.3,15.6,30.8,15.6,46.8c0,26.1-9.2,47.9-27.6,65.3c-18.4,17.3-41.5,26-69.2,26c-13.9,0-25.7-0.9-35.4-2.7
					c-9.7-1.9-21.3-5.4-34.6-10.6v-65.1c9.2,11,18.6,19.1,28.3,24.2c9.6,5.1,20.2,7.6,31.8,7.6c11.4,0,20.9-3.4,28.4-10.2
					c7.6-6.7,11.3-15.2,11.3-25.4c0-9.4-3.3-18.3-9.9-26.8c-6.4-8.3-18.5-19-36.1-31.9c-17.8-13.1-30.9-26.1-39.5-39.2
					c-8.4-13.1-12.7-26.8-12.7-41.3c0-24.3,9.5-44.6,28.6-60.8c19.1-16.2,43.1-24.2,71.8-24.2c11.4,0,22,1.2,31.8,3.5
					c9.9,2.3,18.1,5.7,24.7,9.8L1381.7,403.5L1381.7,403.5z M998.1,632.9c3.9-7.5,6.6-15.5,8.2-24c1.7-8.5,2.5-19.3,2.5-32.5V391.7
					c0-13.2-0.8-24-2.5-32.5c-1.6-8.5-4.3-16.5-8.2-24h74.6H1178l-13.4,29.3l-13.6,29.3c-12.2-5.6-23.6-9.5-34.2-11.8
					c-10.6-2.3-22.8-3.4-36.7-3.4h-7.4v81.8h95.9l-14.5,27l-14.6,27c-14.5-4.5-25.9-7.8-34.1-9.7c-8.2-1.9-15.1-2.9-20.7-2.9h-12
					v87.3c22-0.8,41.1-2.7,57.1-5.9c21.4-4.2,42.3-11.4,62.8-21.5l-14.9,35.6l-15,35.6h-89.9L998.1,632.9L998.1,632.9z M696.3,576.4
					c0,13.2,0.8,24,2.5,32.5c1.6,8.5,4.3,16.5,8.2,24h-41.6h-41.8c3.9-7.5,6.6-15.5,8.2-24c1.7-8.5,2.5-19.3,2.5-32.5V375.7
					l-36.2-40.5h49.2h49.1c1.1,5.6,3.6,11.8,7.6,18.6c4,6.7,10.4,15.6,19.2,26.7l68.8,87.5h0.3l69.9-87.5c9-11,15.7-19.9,19.8-26.8
					c4.2-6.8,6.9-13,8.1-18.4h37.1h37.3c-9,17.3-15.3,31.4-19,42.4c-3.6,11-5.5,21.4-5.5,31v167.8c0,13.2,0.8,24,2.5,32.5
					c1.6,8.5,4.3,16.5,8.2,24h-42.6h-42.7c3.9-7.5,6.6-15.5,8.2-24c1.7-8.5,2.5-19.3,2.5-32.5V446.7h0.2l-90.1,111.8l-90-114.7h0.1
					L696.3,576.4L696.3,576.4z M497.2,576.4V391.7c0-13.2-0.8-24-2.5-32.5c-1.6-8.5-4.3-16.5-8.2-24h42.6h42.7
					c-3.9,7.5-6.6,15.4-8.2,24c-1.7,8.5-2.5,19.3-2.5,32.5v184.7c0,13.3,0.8,24.2,2.5,32.6c1.6,8.4,4.3,16.4,8.2,23.9h-42.6h-42.7
					c3.9-7.5,6.7-15.5,8.4-24C496.4,600.6,497.2,589.7,497.2,576.4z M307.6,576.4V378.9c-22.1,0.4-39.8,1.4-52.9,2.9
					c-18.9,2.1-32.1,5.9-39.5,11.2l7-29l7.2-28.9h110h124.2l-8,29l-8.2,28.9c-7.9-5.3-18-9.1-30.3-11.2c-11.1-2-26.4-3.1-45.7-3.2
					v197.9c0,12.4,0.9,22.9,2.7,31.4c1.7,8.5,4.8,16.9,9.2,25.1h-43.8h-43.9c4.4-8.2,7.5-16.6,9.3-25.1
					C306.7,599.3,307.6,588.8,307.6,576.4z"/>
			</g>
			<ellipse class="st32" cx="802.5" cy="718.4" rx="770" ry="691.2"/>
		</g>
		<g class="st33">
			<path class="st34" d="M497.2,772.1l-2.7,4.9c-2.9,6.2-4.4,12.4-4.4,18.6v27.6c0,6.4,0.2,11.1,0.7,14.3c0.5,3.2,1.6,6.9,3.2,11.1
				l-9.5,3.4c-20.5,7.2-39.9,10.8-58,10.8c-28.2,0-50.7-8.2-67.4-24.6c-16.7-16.4-25.1-37.9-25.1-64.7c0-25.8,9-47.1,26.9-64.1
				c17.9-17,40.8-25.4,68.7-25.4c7.7,0,15.5,0.7,23.5,2.1c8,1.4,15.9,3.5,23.7,6.2l5.9,2.2v34c-4.4-5.2-9.9-10-16.4-14.4
				c-12.1-8.5-24.4-12.7-37.2-12.7c-11.3,0-21.4,3.3-30.6,9.9c-9.1,6.6-15.8,15.6-20.1,27.1c-4.2,11.5-6.4,22.9-6.4,34.1
				c0,21.2,5.6,38.1,16.9,50.9c11.3,12.7,25.6,19.1,43,19.1c5.7,0,11.9-0.9,18.6-2.7l2.9-1l1.5-0.2v-43c0-3.7-0.7-7.7-2.1-12
				c-1.4-4.2-3.1-8.1-5-11.5H497.2L497.2,772.1z"/>
			<path class="st34" d="M690.9,861.4h-33.7c-25.1-22.7-45.6-49.3-61.6-80v55.3c0,7.5,1.5,14.3,4.4,20.5l2.4,4.2H552
				c2.6-3.3,4.5-6.8,5.7-10.8c1.2-3.9,1.8-8.6,1.8-13.9V708.8c0-9-2.4-16.8-7.3-23.5h49.6l11.3,0.7c15,2.1,27.2,7,36.7,14.7
				c5.5,4.4,9.8,9.7,12.7,15.8c2.9,6.1,4.4,12.4,4.4,19c0,8.1-2.2,15.9-6.6,23.1c-4.4,7.3-10.7,13.2-18.8,17.7l-7.1,3.4
				C649.7,809.7,668.6,836.9,690.9,861.4z M626.4,751.8c1.8-5,2.7-9.8,2.7-14.2c0-8.1-2.6-15.1-7.7-20.9s-12-9.3-20.7-10.6
				c-1.3-0.3-3.3-0.5-5.9-0.5v67l4.4-0.5C613.4,770,622.4,763.2,626.4,751.8z"/>
			<path class="st34" d="M902.4,745.9c2.9,10.1,4.4,19.9,4.4,29.3c0,20.2-6.1,38.2-18.2,53.9c-12.1,15.7-28.2,26.1-48,31.2
				c-8.5,2.1-17,3.2-25.7,3.2c-21,0-39.4-6.3-55-19c-15.6-12.6-25.8-29.5-30.3-50.5c-1.6-6.5-2.4-13.4-2.4-20.8
				c0-26.1,8.4-47.6,25.3-64.7c16.9-17,37.9-25.6,63.2-25.6c7.8,0,15.9,1,24.2,2.9c15.2,3.4,28.2,10.4,39.2,20.9
				C890.1,717.5,897.9,730.5,902.4,745.9z M866.5,808c1.8-8.5,2.7-17.2,2.7-26.2c0-12.9-1.9-24.3-5.7-34.1
				c-3.8-9.9-9.4-18.3-16.7-25.3c-5.7-5.4-12.2-9.5-19.4-12.2c-7.3-2.8-14.4-4.2-21.4-4.2c-8.3,0-15.6,1.7-22,5.1
				c-6.4,3.4-10.6,7.9-12.6,13.3c-2,5.5-3.6,10.9-4.6,16.3c-1.1,5.4-1.6,11.9-1.6,19.6c0,2.3,0,4.4,0,6.5c0,2,0.2,4.4,0.5,7.2
				c1.5,13,4.8,24.1,9.9,33.1c5.1,9,12.1,16.6,20.9,22.6c6,4.1,11.8,7,17.4,8.8c5.5,1.8,11.1,2.7,16.6,2.7c7.5,0,14-1.7,19.6-5
				c5.5-3.3,9.5-7.9,12-13.6C863.6,818.3,865.2,813.4,866.5,808z"/>
			<path class="st34" d="M1110.5,685.3l-2.4,4.2c-2.9,6.2-4.4,12.7-4.4,19.6v127.6c0,9.5,2.1,17.7,6.4,24.7h-43.8
				c1.6-3.9,2.4-8.1,2.4-12.7c0-1,0-2.4,0-4.4c-5.5,5.4-12.4,9.9-20.7,13.4c-8.2,3.6-16.8,5.4-25.8,5.4c-13.9,0-25.8-4.2-35.8-12.6
				c-10-8.4-15.9-19.3-17.7-32.6c-0.3-2.4-0.6-4.9-0.7-7.2c-0.2-2.4-0.2-5.1-0.2-8.2v-93.7c0-8.6-2.4-16.5-7.1-23.5h50.1
				c-1.8,2.9-3.2,5.8-4.2,8.6c-1.8,5.1-2.7,10-2.7,14.9v99.8c0,9.6,2.5,17.2,7.6,22.7c5,5.5,11.9,8.3,20.5,8.3
				c1.3,0,2.8-0.1,4.4-0.4c1.6-0.2,2.9-0.4,3.9-0.6c6-1.3,11.1-3.6,15.2-6.8c8-6.2,12-12.1,12-17.8V709c0-6.5-1.6-13-4.6-19.6
				l-2.4-4.2L1110.5,685.3L1110.5,685.3z"/>
			<path class="st34" d="M1267.7,705.1c6.8,8.3,10.3,18,10.3,29c0,8.5-2,16.3-5.9,23.7c-3.9,7.3-9.5,13.3-16.9,17.8
				c-5.1,2.9-10.9,5.2-17.6,7c-6.7,1.7-14.5,2.6-23.5,2.6h-4.2v51.6c0,9.9,2.2,18.2,6.6,24.7h-50.4l2.9-3.9c1.8-2.8,3-5.5,3.7-8.3
				c0.7-2.8,1-6.9,1-12.5V708.8c0-9.3-2.4-17.1-7.3-23.5h47.7c12.7,0,23.5,1.7,32.3,5C1255.3,693.6,1262.4,698.5,1267.7,705.1z
				 M1240.6,739.3c0-14.8-5.1-25.2-15.4-31.1c-5.1-2.8-10.4-3.9-16.1-3.4v71.6c3.4,0,6.8-0.5,10.3-1.5c6.5-2.1,11.7-6.3,15.5-12.5
				C1238.7,756.4,1240.6,748.6,1240.6,739.3z"/>
		</g>
	</g>
	<g class="st33">
		<path class="st35" d="M1881.4,373.6v65.6h-6.4c-3.8-15.1-8-26-12.7-32.6c-4.6-6.6-11-11.9-19.1-15.8c-4.5-2.1-12.5-3.2-23.8-3.2
			h-18.1v187c0,12.4,0.7,20.1,2.1,23.2c1.4,3.1,4.1,5.8,8,8.1c4,2.3,9.4,3.5,16.4,3.5h8v6.6h-126.9v-6.6h8c7,0,12.7-1.2,17-3.8
			c3.1-1.7,5.5-4.5,7.3-8.6c1.3-2.9,2-10.4,2-22.5v-187h-17.5c-16.3,0-28.2,3.5-35.6,10.4c-10.4,9.7-16.9,23.4-19.7,41.3h-6.8v-65.6
			L1881.4,373.6L1881.4,373.6L1881.4,373.6z"/>
		<path class="st35" d="M2035.6,609.4v6.6h-126.8v-6.6h8c7,0,12.7-1.2,17-3.8c3.1-1.7,5.5-4.5,7.2-8.6c1.3-2.9,2-10.4,2-22.5V415.1
			c0-12.4-0.7-20.1-2-23.2c-1.3-3.1-4-5.8-8-8.1s-9.4-3.5-16.2-3.5h-8v-6.6h126.8v6.6h-8c-7,0-12.7,1.2-17,3.8
			c-3.1,1.7-5.5,4.5-7.3,8.6c-1.3,2.9-2,10.4-2,22.5v159.5c0,12.4,0.7,20.1,2.1,23.2c1.4,3.1,4.1,5.8,8,8.1c4,2.3,9.4,3.5,16.2,3.5
			L2035.6,609.4L2035.6,609.4z"/>
		<path class="st35" d="M2225.5,533.4l65.8-159.8h98.7v6.6h-7.9c-7.2,0-12.9,1.2-17.2,3.8c-3,1.7-5.4,4.5-7.2,8.4
			c-1.3,2.9-2,10.3-2,22.4v159.8c0,12.4,0.7,20.1,2,23.2c1.3,3.1,4,5.8,8,8.1c4.1,2.3,9.5,3.5,16.3,3.5h7.9v6.6h-126.6v-6.6h7.9
			c7.2,0,12.9-1.2,17.2-3.8c3-1.7,5.4-4.5,7.2-8.6c1.3-2.9,2-10.4,2-22.5V394.9l-93,221.2h-4.3l-94.4-219.6v170.7
			c0,11.9,0.3,19.3,0.9,22c1.6,6,4.9,10.8,10.1,14.6c5.2,3.8,13.3,5.6,24.4,5.6v6.6h-83v-6.6h2.5c5.4,0.1,10.4-0.7,15-2.6
			c4.6-1.9,8.2-4.3,10.6-7.4c2.4-3.1,4.2-7.4,5.5-13c0.2-1.3,0.4-7.4,0.4-18.2V414.7c0-12.3-0.7-19.9-2-23c-1.3-3-4-5.7-8-8
			c-4.1-2.3-9.5-3.5-16.3-3.5h-7.7v-6.6h99.1L2225.5,533.4z"/>
		<path class="st35" d="M2503.3,387.5v98.7h4.8c15.4,0,26.5-4.8,33.4-14.5s11.3-23.9,13.2-42.7h6.8V556h-6.8
			c-1.4-13.8-4.4-25.1-9-34c-4.6-8.8-9.9-14.7-16-17.8c-6.1-3-14.9-4.6-26.5-4.6v68.3c0,13.3,0.6,21.5,1.7,24.5
			c1.1,3,3.3,5.4,6.3,7.3c3.1,1.9,8.1,2.9,15,2.9h14.5c22.6,0,40.8-5.2,54.4-15.7c13.6-10.5,23.4-26.5,29.4-47.9h6.6l-10.9,77.1
			h-209.5v-6.6h8c7,0,12.7-1.2,17-3.8c3.1-1.7,5.5-4.5,7.2-8.6c1.3-2.9,2-10.4,2-22.5V415.1c0-11-0.3-17.7-0.9-20.2
			c-1.2-4.2-3.4-7.4-6.6-9.7c-4.5-3.3-10.7-5-18.6-5h-8v-6.6h202.9v71.7h-6.8c-3.5-17.5-8.3-30.1-14.6-37.7
			c-6.3-7.6-15.1-13.2-26.5-16.8c-6.7-2.1-19.2-3.2-37.5-3.2L2503.3,387.5L2503.3,387.5L2503.3,387.5z"/>
		<path class="st35" d="M2826.7,368l2,80.8h-7.3c-3.5-20.3-12-36.6-25.5-48.9c-13.5-12.3-28.2-18.5-43.9-18.5
			c-12.2,0-21.8,3.3-28.9,9.7c-7.1,6.5-10.6,14-10.6,22.4c0,5.4,1.2,10.1,3.8,14.3c3.5,5.6,9,11.1,16.6,16.6
			c5.6,3.9,18.5,10.9,38.8,20.9c28.4,13.9,47.5,27.1,57.4,39.5c9.8,12.4,14.7,26.6,14.7,42.5c0,20.3-7.9,37.7-23.7,52.3
			c-15.8,14.6-35.9,21.9-60.2,21.9c-7.6,0-14.8-0.8-21.6-2.3c-6.8-1.6-15.3-4.5-25.6-8.8c-5.7-2.4-10.4-3.6-14.1-3.6
			c-3.1,0-6.4,1.2-9.8,3.6c-3.5,2.4-6.3,6-8.4,10.9h-6.6V530h6.6c5.2,25.7,15.3,45.4,30.3,58.9c15,13.5,31.1,20.3,48.4,20.3
			c13.3,0,24-3.6,31.9-10.9c7.9-7.3,11.9-15.7,11.9-25.4c0-5.7-1.5-11.3-4.6-16.6c-3-5.4-7.7-10.5-13.8-15.3
			c-6.2-4.8-17.2-11.1-32.9-18.9c-22-10.8-37.9-20.1-47.6-27.7c-9.7-7.6-17.1-16.1-22.3-25.6c-5.2-9.4-7.8-19.8-7.8-31.1
			c0-19.3,7.1-35.8,21.3-49.3c14.2-13.6,32.1-20.4,53.6-20.4c7.9,0,15.5,1,22.9,2.9c5.6,1.4,12.4,4.1,20.5,8
			c8,3.9,13.7,5.8,16.9,5.8c3.1,0,5.5-1,7.3-2.9c1.8-1.9,3.5-6.5,5-13.8L2826.7,368L2826.7,368z"/>
		<path class="st35" d="M3216.5,368v85.5h-6.6c-8-23.4-20-41.1-35.9-53.3c-16-12.2-33.4-18.2-52.4-18.2c-18.1,0-33.2,5.1-45.2,15.3
			s-20.6,24.4-25.6,42.6c-5,18.2-7.5,36.9-7.5,56.1c0,23.2,2.7,43.6,8.2,61.1c5.5,17.5,14.3,30.4,26.6,38.6
			c12.2,8.2,26.7,12.3,43.5,12.3c5.8,0,11.8-0.6,18-1.9c6.1-1.2,12.4-3.1,18.9-5.4v-50.4c0-9.5-0.7-15.7-2-18.5
			c-1.3-2.8-4-5.3-8.1-7.6c-4.1-2.3-9.1-3.4-14.9-3.4h-6.3v-6.6h117.8v6.6c-8.9,0.6-15.2,1.8-18.7,3.7c-3.5,1.9-6.2,4.9-8.1,9.2
			c-1.1,2.3-1.6,7.8-1.6,16.6v50.4c-15.5,6.9-31.6,12.1-48.4,15.6c-16.7,3.5-34.1,5.3-52.1,5.3c-23,0-42.1-3.1-57.3-9.4
			c-15.2-6.3-28.6-14.5-40.2-24.7c-11.6-10.2-20.7-21.7-27.3-34.4c-8.3-16.4-12.5-34.9-12.5-55.2c0-36.5,12.8-67.3,38.4-92.4
			c25.6-25.1,57.9-37.7,96.7-37.7c12,0,22.9,1,32.5,2.9c5.2,1,13.7,3.7,25.5,8.1c11.7,4.5,18.7,6.7,20.8,6.7c3.3,0,6.4-1.2,9.3-3.7
			c2.9-2.4,5.5-7.1,7.9-13.8L3216.5,368L3216.5,368L3216.5,368L3216.5,368z"/>
		<path class="st35" d="M3352.9,505.5v67.9c0,13.1,0.8,21.4,2.4,24.8c1.6,3.4,4.4,6.1,8.5,8.1c4.1,2,11.6,3,22.7,3v6.6h-124.1v-6.6
			c11.2,0,18.8-1,22.8-3.1c4-2.1,6.8-4.8,8.4-8.1c1.6-3.3,2.4-11.6,2.4-24.7V416.1c0-13.1-0.8-21.4-2.4-24.8
			c-1.6-3.4-4.4-6.1-8.5-8.1c-4.1-2-11.6-3-22.7-3v-6.6H3375c29.3,0,50.8,2,64.4,6.1c13.6,4.1,24.7,11.5,33.3,22.4
			c8.6,10.9,12.9,23.7,12.9,38.3c0,17.9-6.4,32.7-19.3,44.3c-8.2,7.4-19.7,12.9-34.5,16.6l58.3,82.1c7.6,10.6,13,17.2,16.3,19.8
			c4.9,3.7,10.6,5.7,17,6.1v6.6h-76.3l-78.1-110.5L3352.9,505.5L3352.9,505.5L3352.9,505.5z M3352.9,386.6v106.2h10.2
			c16.6,0,29-1.5,37.2-4.6c8.2-3,14.7-8.5,19.4-16.4c4.7-7.9,7.1-18.3,7.1-31c0-18.5-4.3-32.1-13-40.9c-8.6-8.8-22.6-13.2-41.7-13.2
			L3352.9,386.6L3352.9,386.6z"/>
		<path class="st35" d="M3668.4,370.2c38.6-1.4,70,9.8,94.1,33.8c24.1,24,36.2,53.9,36.2,89.9c0,30.8-9,57.8-27,81.2
			c-23.8,31-57.5,46.5-101,46.5c-43.6,0-77.4-14.8-101.2-44.3c-18.8-23.4-28.2-51.1-28.2-83.1c0-36,12.3-66,36.7-90
			C3602.5,380.1,3632.7,368.8,3668.4,370.2z M3670.6,381.6c-22.2,0-39,11.3-50.6,34c-9.4,18.6-14.1,45.3-14.1,80.1
			c0,41.4,7.3,71.9,21.8,91.7c10.1,13.8,24.3,20.7,42.5,20.7c12.3,0,22.5-3,30.8-8.9c10.5-7.6,18.7-19.8,24.5-36.6
			s8.8-38.6,8.8-65.5c0-32.1-3-56.1-8.9-72c-6-15.9-13.6-27.1-22.8-33.7C3693.2,384.9,3682.6,381.6,3670.6,381.6z"/>
		<path class="st35" d="M3827.3,373.6h125.2v6.6h-6.3c-9.4,0-15.9,1-19.4,3c-3.5,2-6,4.7-7.5,8.1c-1.5,3.5-2.2,12.1-2.2,25.9v118.7
			c0,21.7,1.6,36.1,4.9,43.1c3.3,7,8.7,12.9,16.2,17.5c7.5,4.6,17,7,28.4,7c13.1,0,24.3-3,33.5-8.9c9.2-5.9,16.1-14,20.7-24.4
			c4.6-10.4,6.9-28.4,6.9-54.2v-98.9c0-10.8-1.1-18.6-3.4-23.2c-2.3-4.6-5.1-7.9-8.6-9.7c-5.4-2.7-12.9-4.1-22.7-4.1v-6.6h83.9v6.6
			h-5c-6.8,0-12.5,1.4-17,4.1c-4.5,2.7-7.8,6.9-9.8,12.3c-1.6,3.8-2.3,10.7-2.3,20.6v92.1c0,28.5-1.9,49-5.6,61.7
			s-12.9,24.3-27.4,34.9c-14.5,10.6-34.4,15.9-59.5,15.9c-21,0-37.2-2.8-48.6-8.4c-15.6-7.6-26.6-17.4-33.1-29.3
			c-6.4-11.9-9.7-27.9-9.7-48.1V417.2c0-13.9-0.8-22.6-2.3-26c-1.6-3.4-4.2-6.1-8-8.1c-3.8-2-10.8-3-21.1-2.9L3827.3,373.6
			L3827.3,373.6L3827.3,373.6z"/>
		<path class="st35" d="M4189,506.2v67.2c0,13.1,0.8,21.4,2.4,24.8c1.6,3.4,4.5,6.1,8.6,8.1c4.1,2,11.7,3,22.6,3v6.6h-123.2v-6.6
			c11.2,0,18.8-1,22.8-3.1c4-2.1,6.8-4.8,8.4-8.1c1.6-3.3,2.4-11.6,2.4-24.7V416.1c0-13.1-0.8-21.4-2.4-24.8
			c-1.6-3.4-4.4-6.1-8.5-8.1c-4.1-2-11.6-3-22.7-3v-6.6h105.7c34.8,0,59.8,6.2,74.9,18.6c15.1,12.4,22.7,27.9,22.7,46.5
			c0,15.7-4.9,29.2-14.7,40.4s-23.2,18.8-40.4,22.9C4236.1,504.8,4216.5,506.2,4189,506.2z M4189,387.5v104.8
			c3.9,0.2,6.9,0.4,8.9,0.4c14.5,0,25.7-4.3,33.6-13c7.9-8.6,11.8-22,11.8-40.1c0-18-3.9-31.2-11.8-39.5
			c-7.9-8.3-19.6-12.5-35.2-12.5L4189,387.5L4189,387.5z"/>
		<path class="st35" d="M4540.5,370.2c38.6-1.4,70,9.8,94.1,33.8c24.1,24,36.2,53.9,36.2,89.9c0,30.8-9,57.8-27,81.2
			c-23.8,31-57.5,46.5-101,46.5c-43.6,0-77.4-14.8-101.2-44.3c-18.8-23.4-28.2-51.1-28.2-83.1c0-36,12.3-66,36.7-90
			C4474.6,380.1,4504.7,368.8,4540.5,370.2z M4542.6,381.6c-22.2,0-39,11.3-50.6,34c-9.4,18.6-14.1,45.3-14.1,80.1
			c0,41.4,7.3,71.9,21.8,91.7c10.1,13.8,24.3,20.7,42.5,20.7c12.3,0,22.5-3,30.8-8.9c10.5-7.6,18.7-19.8,24.5-36.6
			c5.8-16.7,8.8-38.6,8.8-65.5c0-32.1-3-56.1-8.9-72s-13.6-27.1-22.8-33.7C4565.3,384.9,4554.7,381.6,4542.6,381.6z"/>
		<path class="st35" d="M4791.5,387.5v99.6h7c10.7,0,19.5-1.6,26.3-4.8c6.8-3.2,12.5-8.6,17.3-16.3c4.7-7.6,7.8-17.9,9.2-30.9h6.3
			v121.8h-6.3c-2.3-23-8.4-38.2-18.5-45.5c-10.1-7.3-21.5-11-34.2-11h-7v74.2c0,12.4,0.7,20.1,2.1,23.2c1.4,3.1,4.1,5.8,8,8.1
			c4,2.3,9.4,3.5,16.2,3.5h8v6.6H4699v-6.6h8c7,0,12.7-1.2,17-3.8c3.1-1.7,5.5-4.5,7.2-8.6c1.3-2.9,2-10.4,2-22.5V415.1
			c0-12.4-0.7-20.1-2-23.2c-1.3-3.1-4-5.8-8-8.1c-4-2.3-9.4-3.5-16.2-3.5h-8v-6.6h204.5v69.6h-7.3c-1.7-16.3-5.9-28.4-12.8-36.3
			c-6.9-7.9-16.8-13.4-29.8-16.6c-7.2-1.8-20.4-2.7-39.7-2.7L4791.5,387.5L4791.5,387.5z"/>
	</g>
	<g class="st33">
		<path class="st35" d="M1784.5,1048.8v6.6h-126.8v-6.6h8c7,0,12.7-1.2,17-3.8c3.1-1.7,5.5-4.5,7.2-8.6c1.3-2.9,2-10.4,2-22.5V854.5
			c0-12.4-0.7-20.1-2-23.2c-1.3-3.1-4-5.8-8-8.1c-4-2.3-9.4-3.5-16.2-3.5h-8V813h126.8v6.6h-8c-7,0-12.7,1.2-17,3.8
			c-3.1,1.7-5.5,4.5-7.3,8.6c-1.3,2.9-2,10.4-2,22.5v159.5c0,12.4,0.7,20.1,2.1,23.2c1.4,3.1,4.1,5.8,8,8.1c4,2.3,9.4,3.5,16.2,3.5
			H1784.5z"/>
		<path class="st35" d="M1891,813l119.6,150.4V859.1c0-14.5-2.1-24.4-6.3-29.5c-5.7-6.9-15.3-10.3-28.8-10V813h80.1v6.6
			c-10.3,1.3-17.1,3-20.7,5.1c-3.5,2.1-6.3,5.5-8.2,10.2c-2,4.7-3,12.8-3,24.2V1061h-6.1l-163.9-201.9v154.1
			c0,13.9,3.2,23.4,9.6,28.2c6.4,4.9,13.7,7.3,21.9,7.3h5.7v6.6h-86v-6.6c13.3-0.1,22.6-2.9,27.9-8.2c5.2-5.4,7.9-14.5,7.9-27.4
			V842.1l-5.2-6.4c-5.1-6.4-9.7-10.7-13.6-12.7c-3.9-2-9.6-3.2-17-3.4V813L1891,813L1891,813z"/>
		<path class="st35" d="M2243.2,807.4l2,80.8h-7.3c-3.5-20.3-12-36.6-25.5-48.9c-13.5-12.3-28.2-18.5-43.9-18.5
			c-12.2,0-21.8,3.3-28.9,9.7c-7.1,6.5-10.6,14-10.6,22.4c0,5.4,1.2,10.1,3.8,14.3c3.5,5.6,9,11.1,16.6,16.6
			c5.6,3.9,18.5,10.9,38.8,20.9c28.4,13.9,47.5,27.1,57.4,39.5c9.8,12.4,14.7,26.6,14.7,42.5c0,20.3-7.9,37.7-23.7,52.3
			c-15.8,14.6-35.9,21.9-60.2,21.9c-7.6,0-14.8-0.8-21.6-2.3c-6.8-1.6-15.3-4.5-25.6-8.8c-5.7-2.4-10.4-3.6-14.1-3.6
			c-3.1,0-6.4,1.2-9.8,3.6c-3.5,2.4-6.3,6-8.4,10.9h-6.6v-91.5h6.6c5.2,25.7,15.4,45.4,30.3,58.9c15,13.5,31.1,20.3,48.4,20.3
			c13.3,0,24-3.6,31.9-10.9c7.9-7.3,11.9-15.7,11.9-25.4c0-5.7-1.5-11.3-4.6-16.6c-3-5.4-7.7-10.5-13.8-15.3
			c-6.2-4.8-17.2-11.1-32.9-18.9c-22-10.8-37.9-20.1-47.6-27.7c-9.7-7.6-17.1-16.1-22.3-25.6c-5.2-9.4-7.8-19.8-7.8-31.1
			c0-19.3,7.1-35.8,21.3-49.3c14.2-13.6,32.1-20.4,53.6-20.4c7.9,0,15.5,1,22.9,2.9c5.6,1.4,12.4,4.1,20.5,8
			c8,3.9,13.7,5.8,16.9,5.8c3.1,0,5.5-1,7.3-2.9c1.8-1.9,3.5-6.5,5-13.8L2243.2,807.4L2243.2,807.4L2243.2,807.4z"/>
		<path class="st35" d="M2512.8,813v65.6h-6.4c-3.8-15.1-8-26-12.7-32.6c-4.6-6.6-11-11.9-19.1-15.8c-4.5-2.1-12.5-3.2-23.8-3.2
			h-18.1v187c0,12.4,0.7,20.1,2.1,23.2c1.4,3.1,4.1,5.8,8,8.1c4,2.3,9.4,3.5,16.4,3.5h8v6.6h-126.9v-6.6h8c7,0,12.7-1.2,17-3.8
			c3.1-1.7,5.5-4.5,7.3-8.6c1.3-2.9,2-10.4,2-22.5v-187h-17.5c-16.3,0-28.2,3.5-35.6,10.4c-10.4,9.7-16.9,23.4-19.7,41.3h-6.8V813
			L2512.8,813L2512.8,813z"/>
		<path class="st35" d="M2667.1,1048.8v6.6h-126.8v-6.6h8c7,0,12.7-1.2,17-3.8c3.1-1.7,5.5-4.5,7.2-8.6c1.3-2.9,2-10.4,2-22.5V854.5
			c0-12.4-0.7-20.1-2-23.2c-1.3-3.1-4-5.8-8-8.1c-4-2.3-9.4-3.5-16.2-3.5h-8V813h126.8v6.6h-8c-7,0-12.7,1.2-17,3.8
			c-3.1,1.7-5.5,4.5-7.3,8.6c-1.3,2.9-2,10.4-2,22.5v159.5c0,12.4,0.7,20.1,2.1,23.2c1.4,3.1,4.1,5.8,8,8.1c4,2.3,9.4,3.5,16.2,3.5
			H2667.1z"/>
		<path class="st35" d="M2913.4,813v65.6h-6.4c-3.8-15.1-8-26-12.7-32.6c-4.6-6.6-11-11.9-19.1-15.8c-4.5-2.1-12.5-3.2-23.8-3.2
			h-18.1v187c0,12.4,0.7,20.1,2.1,23.2c1.4,3.1,4.1,5.8,8,8.1c4,2.3,9.4,3.5,16.4,3.5h8v6.6h-126.9v-6.6h8c7,0,12.7-1.2,17-3.8
			c3.1-1.7,5.5-4.5,7.3-8.6c1.3-2.9,2-10.4,2-22.5v-187h-17.5c-16.3,0-28.2,3.5-35.6,10.4c-10.4,9.7-16.9,23.4-19.7,41.3h-6.8V813
			L2913.4,813L2913.4,813z"/>
		<path class="st35" d="M2942.2,813h125.2v6.6h-6.3c-9.4,0-15.9,1-19.4,3c-3.5,2-6,4.7-7.5,8.1c-1.5,3.5-2.2,12.1-2.2,25.9v118.7
			c0,21.7,1.6,36.1,4.9,43.1c3.3,7,8.7,12.9,16.2,17.5c7.5,4.6,17,7,28.4,7c13.1,0,24.3-3,33.5-8.9c9.2-5.9,16.1-14,20.7-24.4
			c4.6-10.4,6.9-28.4,6.9-54.2v-98.9c0-10.8-1.1-18.6-3.4-23.2c-2.3-4.6-5.1-7.9-8.6-9.7c-5.4-2.7-12.9-4.1-22.7-4.1V813h83.9v6.6
			h-5c-6.8,0-12.5,1.4-17,4.1c-4.5,2.7-7.8,6.9-9.8,12.3c-1.6,3.8-2.3,10.7-2.3,20.6v92.1c0,28.5-1.9,49-5.6,61.7
			s-12.9,24.3-27.4,34.9c-14.5,10.6-34.4,15.9-59.5,15.9c-21,0-37.2-2.8-48.6-8.4c-15.6-7.6-26.6-17.4-33.1-29.3
			c-6.4-11.9-9.7-27.9-9.7-48.1V856.6c0-13.9-0.8-22.6-2.3-26c-1.6-3.4-4.2-6.1-8-8.1c-3.8-2-10.8-3-21.1-2.9L2942.2,813L2942.2,813
			L2942.2,813z"/>
		<path class="st35" d="M3436,813v65.6h-6.4c-3.8-15.1-8-26-12.7-32.6c-4.6-6.6-11-11.9-19.1-15.8c-4.5-2.1-12.5-3.2-23.8-3.2h-18.1
			v187c0,12.4,0.7,20.1,2.1,23.2c1.4,3.1,4.1,5.8,8,8.1c4,2.3,9.4,3.5,16.4,3.5h8v6.6h-126.9v-6.6h8c7,0,12.7-1.2,17-3.8
			c3.1-1.7,5.5-4.5,7.3-8.6c1.3-2.9,2-10.4,2-22.5v-187h-17.5c-16.3,0-28.2,3.5-35.6,10.4c-10.4,9.7-16.9,23.4-19.7,41.3h-6.8V813
			L3436,813L3436,813z"/>
		<path class="st35" d="M3590.3,1048.8v6.6h-126.8v-6.6h8c7,0,12.7-1.2,17-3.8c3.1-1.7,5.5-4.5,7.2-8.6c1.3-2.9,2-10.4,2-22.5V854.5
			c0-12.4-0.7-20.1-2-23.2c-1.3-3.1-4-5.8-8-8.1c-4-2.3-9.4-3.5-16.2-3.5h-8V813h126.8v6.6h-8c-7,0-12.7,1.2-17,3.8
			c-3.1,1.7-5.5,4.5-7.3,8.6c-1.3,2.9-2,10.4-2,22.5v159.5c0,12.4,0.7,20.1,2.1,23.2c1.4,3.1,4.1,5.8,8,8.1c4,2.3,9.4,3.5,16.2,3.5
			H3590.3z"/>
		<path class="st35" d="M3747.1,809.6c38.6-1.4,70,9.8,94.1,33.8c24.1,24,36.2,53.9,36.2,89.9c0,30.8-9,57.8-27,81.2
			c-23.8,31-57.5,46.5-101,46.5c-43.6,0-77.4-14.8-101.2-44.3c-18.8-23.4-28.2-51.1-28.2-83.1c0-36,12.3-66,36.7-90
			C3681.2,819.5,3711.3,808.2,3747.1,809.6z M3749.2,821c-22.2,0-39,11.3-50.6,34c-9.4,18.6-14.1,45.3-14.1,80.1
			c0,41.4,7.3,71.9,21.8,91.7c10.1,13.8,24.3,20.7,42.5,20.7c12.3,0,22.5-3,30.8-8.9c10.5-7.6,18.7-19.8,24.5-36.6
			c5.8-16.7,8.8-38.6,8.8-65.5c0-32.1-3-56.1-8.9-72c-6-15.9-13.6-27.1-22.8-33.7C3771.9,824.3,3761.2,821,3749.2,821z"/>
		<path class="st35" d="M3988.6,813l119.6,150.4V859.1c0-14.5-2.1-24.4-6.3-29.5c-5.7-6.9-15.3-10.3-28.8-10V813h80.1v6.6
			c-10.3,1.3-17.1,3-20.7,5.1c-3.5,2.1-6.3,5.5-8.2,10.2c-2,4.7-3,12.8-3,24.2V1061h-6.1l-163.9-201.9v154.1
			c0,13.9,3.2,23.4,9.6,28.2c6.4,4.9,13.7,7.3,21.9,7.3h5.7v6.6h-86v-6.6c13.3-0.1,22.6-2.9,27.9-8.2c5.2-5.4,7.9-14.5,7.9-27.4
			V842.1l-5.2-6.4c-5.1-6.4-9.7-10.7-13.6-12.7c-3.9-2-9.6-3.2-17-3.4V813L3988.6,813L3988.6,813z"/>
		<path class="st35" d="M4340.8,807.4l2,80.8h-7.3c-3.5-20.3-12-36.6-25.5-48.9c-13.5-12.3-28.2-18.5-43.9-18.5
			c-12.2,0-21.8,3.3-28.9,9.7c-7.1,6.5-10.6,14-10.6,22.4c0,5.4,1.2,10.1,3.8,14.3c3.5,5.6,9,11.1,16.6,16.6
			c5.6,3.9,18.5,10.9,38.8,20.9c28.4,13.9,47.5,27.1,57.4,39.5c9.8,12.4,14.7,26.6,14.7,42.5c0,20.3-7.9,37.7-23.7,52.3
			c-15.8,14.6-35.9,21.9-60.2,21.9c-7.6,0-14.8-0.8-21.6-2.3c-6.8-1.6-15.3-4.5-25.6-8.8c-5.7-2.4-10.4-3.6-14.1-3.6
			c-3.1,0-6.4,1.2-9.8,3.6c-3.5,2.4-6.3,6-8.4,10.9h-6.6v-91.5h6.6c5.2,25.7,15.3,45.4,30.3,58.9c15,13.5,31.1,20.3,48.4,20.3
			c13.3,0,24-3.6,31.9-10.9c7.9-7.3,11.9-15.7,11.9-25.4c0-5.7-1.5-11.3-4.6-16.6c-3-5.4-7.7-10.5-13.8-15.3
			c-6.2-4.8-17.2-11.1-32.9-18.9c-22-10.8-37.9-20.1-47.6-27.7c-9.7-7.6-17.1-16.1-22.3-25.6c-5.2-9.4-7.8-19.8-7.8-31.1
			c0-19.3,7.1-35.8,21.3-49.3c14.2-13.6,32.1-20.4,53.6-20.4c7.9,0,15.5,1,22.9,2.9c5.6,1.4,12.4,4.1,20.5,8
			c8,3.9,13.7,5.8,16.9,5.8c3.1,0,5.5-1,7.3-2.9s3.5-6.5,5-13.8L4340.8,807.4L4340.8,807.4L4340.8,807.4z"/>
	</g>
</g>
</svg>
