<?xml version="1.0" encoding="utf-8"?>
<!-- Generator: Adobe Illustrator 25.4.1, SVG Export Plug-In . SVG Version: 6.00 Build 0)  -->
<svg version="1.1" id="Layer_1" xmlns="http://www.w3.org/2000/svg" xmlns:xlink="http://www.w3.org/1999/xlink" x="0px" y="0px"
	 viewBox="0 0 60 17.36" style="enable-background:new 0 0 60 17.36;" xml:space="preserve">
<style type="text/css">
	.st0{fill-rule:evenodd;clip-rule:evenodd;fill:#FCBC00;}
	
		.st1{clip-path:url(#SVGID_00000026882993394960002380000014934229779045517489_);fill-rule:evenodd;clip-rule:evenodd;fill:#038137;}
	
		.st2{clip-path:url(#SVGID_00000164476189515186534770000006964691929917542310_);fill-rule:evenodd;clip-rule:evenodd;fill:#FFFFFF;}
	
		.st3{clip-path:url(#SVGID_00000139977694763223305750000013297052901450024075_);fill:none;stroke:#FFFFFF;stroke-width:0.9873;stroke-miterlimit:2.5797;}
	
		.st4{clip-path:url(#SVGID_00000124156423517768051590000006001596951270592663_);fill:none;stroke:#FFFFFF;stroke-width:0.9873;stroke-miterlimit:2.5797;}
	
		.st5{clip-path:url(#SVGID_00000052074610381180399250000001382775554550767020_);fill:none;stroke:#FFFFFF;stroke-width:0.9873;stroke-miterlimit:2.5797;}
	
		.st6{clip-path:url(#SVGID_00000052823236487309937380000006004027091949786527_);fill:none;stroke:#FFFFFF;stroke-width:0.9873;stroke-miterlimit:2.5797;}
	
		.st7{clip-path:url(#SVGID_00000096758190708365338370000014530167139532577666_);fill:none;stroke:#FFFFFF;stroke-width:0.9873;stroke-miterlimit:2.5797;}
	
		.st8{clip-path:url(#SVGID_00000053524752020099043400000018177746580701138351_);fill:none;stroke:#FFFFFF;stroke-width:0.9873;stroke-miterlimit:2.5797;}
	
		.st9{clip-path:url(#SVGID_00000177449848968163967800000008846736601896106130_);fill:none;stroke:#FFFFFF;stroke-width:0.9873;stroke-miterlimit:2.5797;}
	
		.st10{clip-path:url(#SVGID_00000139293901906583957560000002064204467173055408_);fill:none;stroke:#FFFFFF;stroke-width:0.9873;stroke-miterlimit:2.5797;}
	
		.st11{clip-path:url(#SVGID_00000131346334191795463650000015514194914110675078_);fill:none;stroke:#FFFFFF;stroke-width:0.9873;stroke-miterlimit:2.5797;}
	
		.st12{clip-path:url(#SVGID_00000162315111600741300610000006378585700922698120_);fill-rule:evenodd;clip-rule:evenodd;fill:#FCBC00;}
	
		.st13{clip-path:url(#SVGID_00000065037413832019666510000007827647289906425261_);fill-rule:evenodd;clip-rule:evenodd;fill:#FFFFFF;}
	
		.st14{clip-path:url(#SVGID_00000116949457488084657350000014935496033811573437_);fill:none;stroke:#FFFFFF;stroke-width:0.1;stroke-miterlimit:10;}
	
		.st15{clip-path:url(#SVGID_00000112606959819705217910000009542311636473746081_);fill:none;stroke:#FFFFFF;stroke-width:0.1;stroke-miterlimit:10;}
	
		.st16{clip-path:url(#SVGID_00000087397464518540688110000004294220160679371397_);fill:none;stroke:#FFFFFF;stroke-width:0.1;stroke-miterlimit:10;}
	
		.st17{clip-path:url(#SVGID_00000039815853236416183930000008359517138361614013_);fill:none;stroke:#FFFFFF;stroke-width:0.1;stroke-miterlimit:10;}
	
		.st18{clip-path:url(#SVGID_00000058559235658309478420000006014264409412950969_);fill:none;stroke:#FFFFFF;stroke-width:0.1;stroke-miterlimit:10;}
	
		.st19{clip-path:url(#SVGID_00000005250395629861272960000012308882206336691846_);fill:none;stroke:#FFFFFF;stroke-width:0.1;stroke-miterlimit:10;}
	
		.st20{clip-path:url(#SVGID_00000153703122028274310810000002135737524189415849_);fill:none;stroke:#FFFFFF;stroke-width:0.1;stroke-miterlimit:10;}
	
		.st21{clip-path:url(#SVGID_00000011000788758995782370000012320970153308635280_);fill:none;stroke:#FFFFFF;stroke-width:0.1;stroke-miterlimit:10;}
	
		.st22{clip-path:url(#SVGID_00000099631799616787056380000002715077913409919643_);fill:none;stroke:#FFFFFF;stroke-width:0.1;stroke-miterlimit:10;}
	
		.st23{clip-path:url(#SVGID_00000098919963046942720450000015847095579739763373_);fill:none;stroke:#FFFFFF;stroke-width:0.1;stroke-miterlimit:10;}
	
		.st24{clip-path:url(#SVGID_00000103248698976398046330000007662889511818768828_);fill:none;stroke:#FFFFFF;stroke-width:0.1;stroke-miterlimit:10;}
	
		.st25{clip-path:url(#SVGID_00000178927454267485397780000001625572002382944934_);fill:none;stroke:#FFFFFF;stroke-width:0.1;stroke-miterlimit:10;}
	
		.st26{clip-path:url(#SVGID_00000063618305771335679770000007323138076368392114_);fill:none;stroke:#FFFFFF;stroke-width:0.1;stroke-miterlimit:10;}
	
		.st27{clip-path:url(#SVGID_00000130606808787570028770000017328053874407497913_);fill:none;stroke:#FFFFFF;stroke-width:0.1;stroke-miterlimit:10;}
	
		.st28{clip-path:url(#SVGID_00000061459436732284901790000012583165817110323850_);fill:none;stroke:#FFFFFF;stroke-width:0.1;stroke-miterlimit:10;}
	
		.st29{clip-path:url(#SVGID_00000060718160308923020550000010055448959123308471_);fill:none;stroke:#FFFFFF;stroke-width:0.1;stroke-miterlimit:10;}
	
		.st30{clip-path:url(#SVGID_00000083075806594212142900000004497299643413098166_);fill:none;stroke:#FFFFFF;stroke-width:0.1;stroke-miterlimit:10;}
	.st31{fill:#E3000F;}
	.st32{fill:none;stroke:#038137;stroke-width:0.5;stroke-miterlimit:2.5797;}
	.st33{enable-background:new    ;}
	.st34{fill:#FFFFFF;}
	.st35{fill:#038137;}
</style>
<g>
	<g>
		<g>
			<g>
				<path class="st0" d="M18.63,7.96c0.02,0.24,0.04,0.48,0.04,0.72c0,4.35-3.94,7.88-8.8,7.88s-8.8-3.53-8.8-7.88
					c0-0.24,0.01-0.48,0.04-0.72L18.63,7.96L18.63,7.96z"/>
				<g>
					<g>
						<g>
							<g>
								<g>
									<g>
										<defs>
											<path id="SVGID_1_" d="M18.63,7.96c0.02,0.24,0.04,0.48,0.04,0.72c0,4.35-3.94,7.88-8.8,7.88s-8.8-3.53-8.8-7.88
												c0-0.24,0.01-0.48,0.04-0.72L18.63,7.96L18.63,7.96z"/>
										</defs>
										<clipPath id="SVGID_00000152973923560340595800000000502380732305952141_">
											<use xlink:href="#SVGID_1_"  style="overflow:visible;"/>
										</clipPath>
										
											<rect x="0.64" y="7.57" style="clip-path:url(#SVGID_00000152973923560340595800000000502380732305952141_);fill-rule:evenodd;clip-rule:evenodd;fill:#038137;" width="19.57" height="3.14"/>
									</g>
								</g>
							</g>
						</g>
					</g>
					<g>
						<g>
							<g>
								<g>
									<g>
										<defs>
											<path id="SVGID_00000067215935956911885680000003439655039038031755_" d="M18.63,7.96c0.02,0.24,0.04,0.48,0.04,0.72
												c0,4.35-3.94,7.88-8.8,7.88s-8.8-3.53-8.8-7.88c0-0.24,0.01-0.48,0.04-0.72L18.63,7.96L18.63,7.96z"/>
										</defs>
										<clipPath id="SVGID_00000156581977902443542220000003633282790823964082_">
											<use xlink:href="#SVGID_00000067215935956911885680000003439655039038031755_"  style="overflow:visible;"/>
										</clipPath>
										
											<path style="clip-path:url(#SVGID_00000156581977902443542220000003633282790823964082_);fill-rule:evenodd;clip-rule:evenodd;fill:#FFFFFF;" d="
											M6.58,12.44l0.27-0.1c1.41,0.4,2.29,1.13,3.03,1.95c0.73-0.82,1.62-1.54,3.03-1.95l0.27,0.1
											c-1.27,0.29-2.32,0.95-3.16,1.96c0.71-0.51,1.3-1.37,3.92-1.78l0.4,0.22c-1.92,0.04-3.09,0.86-4.2,1.73
											c1.66-1.11,3.37-1.58,5.13-1.42l0.25,0.49c-1.86-0.14-3.55,0.52-5.16,1.62l-0.16,0.31l-0.32,0l-0.32,0L9.4,15.25
											c-1.61-1.1-3.31-1.76-5.16-1.62l0.25-0.49c1.76-0.16,3.48,0.32,5.13,1.42c-1.1-0.87-2.27-1.68-4.2-1.73l0.4-0.22
											c2.62,0.42,3.22,1.28,3.92,1.78C8.9,13.39,7.85,12.72,6.58,12.44"/>
									</g>
								</g>
							</g>
						</g>
					</g>
					<g>
						<g>
							<g>
								<g>
									<g>
										<defs>
											<path id="SVGID_00000149361292148634801590000008416050894134634636_" d="M18.63,7.96c0.02,0.24,0.04,0.48,0.04,0.72
												c0,4.35-3.94,7.88-8.8,7.88s-8.8-3.53-8.8-7.88c0-0.24,0.01-0.48,0.04-0.72L18.63,7.96L18.63,7.96z"/>
										</defs>
										<clipPath id="SVGID_00000099657645821930023650000003661457582728304011_">
											<use xlink:href="#SVGID_00000149361292148634801590000008416050894134634636_"  style="overflow:visible;"/>
										</clipPath>
										
											<line style="clip-path:url(#SVGID_00000099657645821930023650000003661457582728304011_);fill:none;stroke:#FFFFFF;stroke-width:0.9873;stroke-miterlimit:2.5797;" x1="9.88" y1="12.56" x2="9.88" y2="11.45"/>
									</g>
								</g>
							</g>
						</g>
					</g>
					<g>
						<g>
							<g>
								<g>
									<g>
										<defs>
											<path id="SVGID_00000152960282868808072110000007654166323381344947_" d="M18.63,7.96c0.02,0.24,0.04,0.48,0.04,0.72
												c0,4.35-3.94,7.88-8.8,7.88s-8.8-3.53-8.8-7.88c0-0.24,0.01-0.48,0.04-0.72L18.63,7.96L18.63,7.96z"/>
										</defs>
										<clipPath id="SVGID_00000089564913379676270080000014592015044219585686_">
											<use xlink:href="#SVGID_00000152960282868808072110000007654166323381344947_"  style="overflow:visible;"/>
										</clipPath>
										
											<line style="clip-path:url(#SVGID_00000089564913379676270080000014592015044219585686_);fill:none;stroke:#FFFFFF;stroke-width:0.9873;stroke-miterlimit:2.5797;" x1="9.88" y1="12.56" x2="10.3" y2="11.52"/>
									</g>
								</g>
							</g>
						</g>
					</g>
					<g>
						<g>
							<g>
								<g>
									<g>
										<defs>
											<path id="SVGID_00000039842362279026162170000014971700726460010901_" d="M18.63,7.96c0.02,0.24,0.04,0.48,0.04,0.72
												c0,4.35-3.94,7.88-8.8,7.88s-8.8-3.53-8.8-7.88c0-0.24,0.01-0.48,0.04-0.72L18.63,7.96L18.63,7.96z"/>
										</defs>
										<clipPath id="SVGID_00000158723379025168266110000014951285811514512568_">
											<use xlink:href="#SVGID_00000039842362279026162170000014971700726460010901_"  style="overflow:visible;"/>
										</clipPath>
										
											<line style="clip-path:url(#SVGID_00000158723379025168266110000014951285811514512568_);fill:none;stroke:#FFFFFF;stroke-width:0.9873;stroke-miterlimit:2.5797;" x1="9.88" y1="12.56" x2="10.67" y2="11.71"/>
									</g>
								</g>
							</g>
						</g>
					</g>
					<g>
						<g>
							<g>
								<g>
									<g>
										<defs>
											<path id="SVGID_00000067230263014238585410000002712089823828351662_" d="M18.63,7.96c0.02,0.24,0.04,0.48,0.04,0.72
												c0,4.35-3.94,7.88-8.8,7.88s-8.8-3.53-8.8-7.88c0-0.24,0.01-0.48,0.04-0.72L18.63,7.96L18.63,7.96z"/>
										</defs>
										<clipPath id="SVGID_00000155126079492095391680000001503548091372020659_">
											<use xlink:href="#SVGID_00000067230263014238585410000002712089823828351662_"  style="overflow:visible;"/>
										</clipPath>
										
											<line style="clip-path:url(#SVGID_00000155126079492095391680000001503548091372020659_);fill:none;stroke:#FFFFFF;stroke-width:0.9873;stroke-miterlimit:2.5797;" x1="9.88" y1="12.56" x2="10.94" y2="12"/>
									</g>
								</g>
							</g>
						</g>
					</g>
					<g>
						<g>
							<g>
								<g>
									<g>
										<defs>
											<path id="SVGID_00000087404994776799749490000007971672793508360616_" d="M18.63,7.96c0.02,0.24,0.04,0.48,0.04,0.72
												c0,4.35-3.94,7.88-8.8,7.88s-8.8-3.53-8.8-7.88c0-0.24,0.01-0.48,0.04-0.72L18.63,7.96L18.63,7.96z"/>
										</defs>
										<clipPath id="SVGID_00000081628491971958299480000009105452535988162204_">
											<use xlink:href="#SVGID_00000087404994776799749490000007971672793508360616_"  style="overflow:visible;"/>
										</clipPath>
										
											<line style="clip-path:url(#SVGID_00000081628491971958299480000009105452535988162204_);fill:none;stroke:#FFFFFF;stroke-width:0.9873;stroke-miterlimit:2.5797;" x1="9.88" y1="12.56" x2="11.09" y2="12.36"/>
									</g>
								</g>
							</g>
						</g>
					</g>
					<g>
						<g>
							<g>
								<g>
									<g>
										<defs>
											<path id="SVGID_00000167394924604806480980000018219182042975969208_" d="M18.63,7.96c0.02,0.24,0.04,0.48,0.04,0.72
												c0,4.35-3.94,7.88-8.8,7.88s-8.8-3.53-8.8-7.88c0-0.24,0.01-0.48,0.04-0.72L18.63,7.96L18.63,7.96z"/>
										</defs>
										<clipPath id="SVGID_00000052819334564575688560000006540110461189463716_">
											<use xlink:href="#SVGID_00000167394924604806480980000018219182042975969208_"  style="overflow:visible;"/>
										</clipPath>
										
											<line style="clip-path:url(#SVGID_00000052819334564575688560000006540110461189463716_);fill:none;stroke:#FFFFFF;stroke-width:0.9873;stroke-miterlimit:2.5797;" x1="9.88" y1="12.56" x2="9.45" y2="11.52"/>
									</g>
								</g>
							</g>
						</g>
					</g>
					<g>
						<g>
							<g>
								<g>
									<g>
										<defs>
											<path id="SVGID_00000003791685308285963710000012453370510296404104_" d="M18.63,7.96c0.02,0.24,0.04,0.48,0.04,0.72
												c0,4.35-3.94,7.88-8.8,7.88s-8.8-3.53-8.8-7.88c0-0.24,0.01-0.48,0.04-0.72L18.63,7.96L18.63,7.96z"/>
										</defs>
										<clipPath id="SVGID_00000123442274748633010230000015983948555604762812_">
											<use xlink:href="#SVGID_00000003791685308285963710000012453370510296404104_"  style="overflow:visible;"/>
										</clipPath>
										
											<line style="clip-path:url(#SVGID_00000123442274748633010230000015983948555604762812_);fill:none;stroke:#FFFFFF;stroke-width:0.9873;stroke-miterlimit:2.5797;" x1="9.88" y1="12.56" x2="9.08" y2="11.71"/>
									</g>
								</g>
							</g>
						</g>
					</g>
					<g>
						<g>
							<g>
								<g>
									<g>
										<defs>
											<path id="SVGID_00000139981743950798396980000011543315325587648956_" d="M18.63,7.96c0.02,0.24,0.04,0.48,0.04,0.72
												c0,4.35-3.94,7.88-8.8,7.88s-8.8-3.53-8.8-7.88c0-0.24,0.01-0.48,0.04-0.72L18.63,7.96L18.63,7.96z"/>
										</defs>
										<clipPath id="SVGID_00000139285856205256670520000015581243067870475179_">
											<use xlink:href="#SVGID_00000139981743950798396980000011543315325587648956_"  style="overflow:visible;"/>
										</clipPath>
										
											<line style="clip-path:url(#SVGID_00000139285856205256670520000015581243067870475179_);fill:none;stroke:#FFFFFF;stroke-width:0.9873;stroke-miterlimit:2.5797;" x1="9.88" y1="12.56" x2="8.81" y2="12"/>
									</g>
								</g>
							</g>
						</g>
					</g>
					<g>
						<g>
							<g>
								<g>
									<g>
										<defs>
											<path id="SVGID_00000007423309076001425800000008107171636588093070_" d="M18.63,7.96c0.02,0.24,0.04,0.48,0.04,0.72
												c0,4.35-3.94,7.88-8.8,7.88s-8.8-3.53-8.8-7.88c0-0.24,0.01-0.48,0.04-0.72L18.63,7.96L18.63,7.96z"/>
										</defs>
										<clipPath id="SVGID_00000085935526247653364130000004711312007022163369_">
											<use xlink:href="#SVGID_00000007423309076001425800000008107171636588093070_"  style="overflow:visible;"/>
										</clipPath>
										
											<line style="clip-path:url(#SVGID_00000085935526247653364130000004711312007022163369_);fill:none;stroke:#FFFFFF;stroke-width:0.9873;stroke-miterlimit:2.5797;" x1="9.88" y1="12.56" x2="8.66" y2="12.36"/>
									</g>
								</g>
							</g>
						</g>
					</g>
					<g>
						<g>
							<g>
								<g>
									<g>
										<defs>
											<path id="SVGID_00000021083832906176532310000004150085504880608910_" d="M18.63,7.96c0.02,0.24,0.04,0.48,0.04,0.72
												c0,4.35-3.94,7.88-8.8,7.88s-8.8-3.53-8.8-7.88c0-0.24,0.01-0.48,0.04-0.72L18.63,7.96L18.63,7.96z"/>
										</defs>
										<clipPath id="SVGID_00000126297661863637059440000005355870968189150609_">
											<use xlink:href="#SVGID_00000021083832906176532310000004150085504880608910_"  style="overflow:visible;"/>
										</clipPath>
										
											<path style="clip-path:url(#SVGID_00000126297661863637059440000005355870968189150609_);fill-rule:evenodd;clip-rule:evenodd;fill:#FCBC00;" d="
											M9.86,12.21c0.23,0,0.41,0.23,0.41,0.52c0,0.29-0.18,0.52-0.41,0.52s-0.41-0.23-0.41-0.52S9.64,12.21,9.86,12.21"/>
									</g>
								</g>
							</g>
						</g>
					</g>
					<g>
						<g>
							<g>
								<g>
									<g>
										<defs>
											<path id="SVGID_00000158742064786877461120000009674615225868439998_" d="M18.63,7.96c0.02,0.24,0.04,0.48,0.04,0.72
												c0,4.35-3.94,7.88-8.8,7.88s-8.8-3.53-8.8-7.88c0-0.24,0.01-0.48,0.04-0.72L18.63,7.96L18.63,7.96z"/>
										</defs>
										<clipPath id="SVGID_00000110447144999869659590000007731155517622148029_">
											<use xlink:href="#SVGID_00000158742064786877461120000009674615225868439998_"  style="overflow:visible;"/>
										</clipPath>
										
											<path style="clip-path:url(#SVGID_00000110447144999869659590000007731155517622148029_);fill-rule:evenodd;clip-rule:evenodd;fill:#FFFFFF;" d="
											M9.82,13.35v-0.07c-0.19,0.01-0.29,0.04-0.29,0.08c0,0.02,0.03,0.04,0.1,0.05c0.07,0.02,0.14,0.02,0.21,0.02
											c0.11,0,0.2-0.01,0.25-0.02c0.06-0.01,0.08-0.03,0.08-0.06c0-0.04-0.09-0.07-0.28-0.08v0.07L9.82,13.35L9.82,13.35
											L9.82,13.35z M9.84,12.43c-0.01,0.05-0.05,0.12-0.11,0.22L9.69,12.7c-0.06,0.08-0.08,0.15-0.08,0.19
											c0,0.05,0.02,0.09,0.07,0.12c0.05,0.03,0.1,0.05,0.16,0.05c0.07,0,0.13-0.02,0.18-0.06c0.05-0.04,0.07-0.1,0.07-0.16
											C10.09,12.7,10.01,12.56,9.84,12.43z M9.9,13.12v0.09c0.16,0.01,0.27,0.04,0.32,0.07c0.05,0.04,0.07,0.11,0.07,0.22v0.58
											H10.2v-0.64c-0.04,0.02-0.09,0.04-0.15,0.05C10,13.5,9.93,13.5,9.86,13.5c-0.07,0-0.14-0.01-0.2-0.02
											c-0.06-0.01-0.11-0.03-0.15-0.05v0.64H9.44v-0.58c0-0.09,0-0.14,0.01-0.16c0.01-0.02,0.04-0.04,0.08-0.06
											c0.06-0.03,0.16-0.05,0.29-0.06v-0.09c-0.09,0-0.16-0.03-0.21-0.07c-0.05-0.04-0.08-0.1-0.08-0.16
											c0-0.07,0.03-0.15,0.1-0.24l0.04-0.05c0.07-0.09,0.1-0.17,0.1-0.23c0-0.01,0-0.03-0.01-0.05c0.26,0.13,0.39,0.3,0.39,0.51
											c0,0.08-0.02,0.14-0.07,0.19C10.05,13.06,9.99,13.09,9.9,13.12z"/>
									</g>
								</g>
							</g>
						</g>
					</g>
				</g>
				<path class="st0" d="M9.88,0.8c2.66,0,5.04,1.05,6.65,2.72H3.23C4.84,1.86,7.22,0.8,9.88,0.8"/>
				<g>
					<g>
						<g>
							<g>
								<g>
									<g>
										<defs>
											<path id="SVGID_00000183941954683090225030000005311446790303548572_" d="M9.88,0.8c2.66,0,5.04,1.05,6.65,2.72H3.23
												C4.84,1.86,7.22,0.8,9.88,0.8"/>
										</defs>
										<clipPath id="SVGID_00000008850404812701800870000012128488401896663683_">
											<use xlink:href="#SVGID_00000183941954683090225030000005311446790303548572_"  style="overflow:visible;"/>
										</clipPath>
										
											<line style="clip-path:url(#SVGID_00000008850404812701800870000012128488401896663683_);fill:none;stroke:#FFFFFF;stroke-width:0.1;stroke-miterlimit:10;" x1="9.88" y1="3.73" x2="9.88" y2="-2.17"/>
										
											<use xlink:href="#SVGID_00000183941954683090225030000005311446790303548572_"  style="overflow:visible;fill:none;stroke:#FFFFFF;stroke-width:0.1;stroke-miterlimit:10;"/>
									</g>
								</g>
							</g>
						</g>
					</g>
					<g>
						<g>
							<g>
								<g>
									<g>
										<defs>
											<path id="SVGID_00000094583958053419118040000017899548418839104404_" d="M9.88,0.8c2.66,0,5.04,1.05,6.65,2.72H3.23
												C4.84,1.86,7.22,0.8,9.88,0.8"/>
										</defs>
										<clipPath id="SVGID_00000081635365590830297040000016736311014172675006_">
											<use xlink:href="#SVGID_00000094583958053419118040000017899548418839104404_"  style="overflow:visible;"/>
										</clipPath>
										
											<line style="clip-path:url(#SVGID_00000081635365590830297040000016736311014172675006_);fill:none;stroke:#FFFFFF;stroke-width:0.1;stroke-miterlimit:10;" x1="9.88" y1="3.73" x2="11.02" y2="-2.08"/>
										
											<use xlink:href="#SVGID_00000094583958053419118040000017899548418839104404_"  style="overflow:visible;fill:none;stroke:#FFFFFF;stroke-width:0.1;stroke-miterlimit:10;"/>
									</g>
								</g>
							</g>
						</g>
					</g>
					<g>
						<g>
							<g>
								<g>
									<g>
										<defs>
											<path id="SVGID_00000008130236362761565760000016392608906287945915_" d="M9.88,0.8c2.66,0,5.04,1.05,6.65,2.72H3.23
												C4.84,1.86,7.22,0.8,9.88,0.8"/>
										</defs>
										<clipPath id="SVGID_00000024713005271385148830000016899835821002217125_">
											<use xlink:href="#SVGID_00000008130236362761565760000016392608906287945915_"  style="overflow:visible;"/>
										</clipPath>
										
											<line style="clip-path:url(#SVGID_00000024713005271385148830000016899835821002217125_);fill:none;stroke:#FFFFFF;stroke-width:0.1;stroke-miterlimit:10;" x1="9.88" y1="3.73" x2="12.13" y2="-1.81"/>
										
											<use xlink:href="#SVGID_00000008130236362761565760000016392608906287945915_"  style="overflow:visible;fill:none;stroke:#FFFFFF;stroke-width:0.1;stroke-miterlimit:10;"/>
									</g>
								</g>
							</g>
						</g>
					</g>
					<g>
						<g>
							<g>
								<g>
									<g>
										<defs>
											<path id="SVGID_00000123399921103926805990000001125135907872377243_" d="M9.88,0.8c2.66,0,5.04,1.05,6.65,2.72H3.23
												C4.84,1.86,7.22,0.8,9.88,0.8"/>
										</defs>
										<clipPath id="SVGID_00000096036809008713589100000001346713873163940771_">
											<use xlink:href="#SVGID_00000123399921103926805990000001125135907872377243_"  style="overflow:visible;"/>
										</clipPath>
										
											<line style="clip-path:url(#SVGID_00000096036809008713589100000001346713873163940771_);fill:none;stroke:#FFFFFF;stroke-width:0.1;stroke-miterlimit:10;" x1="9.88" y1="3.73" x2="13.17" y2="-1.38"/>
										
											<use xlink:href="#SVGID_00000123399921103926805990000001125135907872377243_"  style="overflow:visible;fill:none;stroke:#FFFFFF;stroke-width:0.1;stroke-miterlimit:10;"/>
									</g>
								</g>
							</g>
						</g>
					</g>
					<g>
						<g>
							<g>
								<g>
									<g>
										<defs>
											<path id="SVGID_00000119107254500620125850000002741109342128467132_" d="M9.88,0.8c2.66,0,5.04,1.05,6.65,2.72H3.23
												C4.84,1.86,7.22,0.8,9.88,0.8"/>
										</defs>
										<clipPath id="SVGID_00000016767118732065361670000008080065179449622414_">
											<use xlink:href="#SVGID_00000119107254500620125850000002741109342128467132_"  style="overflow:visible;"/>
										</clipPath>
										
											<line style="clip-path:url(#SVGID_00000016767118732065361670000008080065179449622414_);fill:none;stroke:#FFFFFF;stroke-width:0.1;stroke-miterlimit:10;" x1="9.88" y1="3.73" x2="14.11" y2="-0.79"/>
										
											<use xlink:href="#SVGID_00000119107254500620125850000002741109342128467132_"  style="overflow:visible;fill:none;stroke:#FFFFFF;stroke-width:0.1;stroke-miterlimit:10;"/>
									</g>
								</g>
							</g>
						</g>
					</g>
					<g>
						<g>
							<g>
								<g>
									<g>
										<defs>
											<path id="SVGID_00000066475749435277554570000002587695535016012160_" d="M9.88,0.8c2.66,0,5.04,1.05,6.65,2.72H3.23
												C4.84,1.86,7.22,0.8,9.88,0.8"/>
										</defs>
										<clipPath id="SVGID_00000047047434617397902530000008897576798037032598_">
											<use xlink:href="#SVGID_00000066475749435277554570000002587695535016012160_"  style="overflow:visible;"/>
										</clipPath>
										
											<line style="clip-path:url(#SVGID_00000047047434617397902530000008897576798037032598_);fill:none;stroke:#FFFFFF;stroke-width:0.1;stroke-miterlimit:10;" x1="9.88" y1="3.73" x2="14.92" y2="-0.06"/>
										
											<use xlink:href="#SVGID_00000066475749435277554570000002587695535016012160_"  style="overflow:visible;fill:none;stroke:#FFFFFF;stroke-width:0.1;stroke-miterlimit:10;"/>
									</g>
								</g>
							</g>
						</g>
					</g>
					<g>
						<g>
							<g>
								<g>
									<g>
										<defs>
											<path id="SVGID_00000158750088229114188280000001892000421681510062_" d="M9.88,0.8c2.66,0,5.04,1.05,6.65,2.72H3.23
												C4.84,1.86,7.22,0.8,9.88,0.8"/>
										</defs>
										<clipPath id="SVGID_00000111892525529566343080000017938029344204334527_">
											<use xlink:href="#SVGID_00000158750088229114188280000001892000421681510062_"  style="overflow:visible;"/>
										</clipPath>
										
											<line style="clip-path:url(#SVGID_00000111892525529566343080000017938029344204334527_);fill:none;stroke:#FFFFFF;stroke-width:0.1;stroke-miterlimit:10;" x1="9.88" y1="3.73" x2="15.58" y2="0.78"/>
										
											<use xlink:href="#SVGID_00000158750088229114188280000001892000421681510062_"  style="overflow:visible;fill:none;stroke:#FFFFFF;stroke-width:0.1;stroke-miterlimit:10;"/>
									</g>
								</g>
							</g>
						</g>
					</g>
					<g>
						<g>
							<g>
								<g>
									<g>
										<defs>
											<path id="SVGID_00000103965305123834142360000017960031052526389640_" d="M9.88,0.8c2.66,0,5.04,1.05,6.65,2.72H3.23
												C4.84,1.86,7.22,0.8,9.88,0.8"/>
										</defs>
										<clipPath id="SVGID_00000051376618041394670390000015460526993605425588_">
											<use xlink:href="#SVGID_00000103965305123834142360000017960031052526389640_"  style="overflow:visible;"/>
										</clipPath>
										
											<line style="clip-path:url(#SVGID_00000051376618041394670390000015460526993605425588_);fill:none;stroke:#FFFFFF;stroke-width:0.1;stroke-miterlimit:10;" x1="9.88" y1="3.73" x2="16.06" y2="1.71"/>
										
											<use xlink:href="#SVGID_00000103965305123834142360000017960031052526389640_"  style="overflow:visible;fill:none;stroke:#FFFFFF;stroke-width:0.1;stroke-miterlimit:10;"/>
									</g>
								</g>
							</g>
						</g>
					</g>
					<g>
						<g>
							<g>
								<g>
									<g>
										<defs>
											<path id="SVGID_00000111887484914815281950000000031754392412946597_" d="M9.88,0.8c2.66,0,5.04,1.05,6.65,2.72H3.23
												C4.84,1.86,7.22,0.8,9.88,0.8"/>
										</defs>
										<clipPath id="SVGID_00000095325668974261422630000004942821953963297967_">
											<use xlink:href="#SVGID_00000111887484914815281950000000031754392412946597_"  style="overflow:visible;"/>
										</clipPath>
										
											<line style="clip-path:url(#SVGID_00000095325668974261422630000004942821953963297967_);fill:none;stroke:#FFFFFF;stroke-width:0.1;stroke-miterlimit:10;" x1="9.88" y1="3.73" x2="16.36" y2="2.7"/>
										
											<use xlink:href="#SVGID_00000111887484914815281950000000031754392412946597_"  style="overflow:visible;fill:none;stroke:#FFFFFF;stroke-width:0.1;stroke-miterlimit:10;"/>
									</g>
								</g>
							</g>
						</g>
					</g>
					<g>
						<g>
							<g>
								<g>
									<g>
										<defs>
											<path id="SVGID_00000071523123756731580120000017866718781938002858_" d="M9.88,0.8c2.66,0,5.04,1.05,6.65,2.72H3.23
												C4.84,1.86,7.22,0.8,9.88,0.8"/>
										</defs>
										<clipPath id="SVGID_00000001631671719534695550000015977525689109407906_">
											<use xlink:href="#SVGID_00000071523123756731580120000017866718781938002858_"  style="overflow:visible;"/>
										</clipPath>
										
											<line style="clip-path:url(#SVGID_00000001631671719534695550000015977525689109407906_);fill:none;stroke:#FFFFFF;stroke-width:0.1;stroke-miterlimit:10;" x1="9.88" y1="3.73" x2="8.73" y2="-2.08"/>
										
											<use xlink:href="#SVGID_00000071523123756731580120000017866718781938002858_"  style="overflow:visible;fill:none;stroke:#FFFFFF;stroke-width:0.1;stroke-miterlimit:10;"/>
									</g>
								</g>
							</g>
						</g>
					</g>
					<g>
						<g>
							<g>
								<g>
									<g>
										<defs>
											<path id="SVGID_00000034806955536971760100000011357078823623093182_" d="M9.88,0.8c2.66,0,5.04,1.05,6.65,2.72H3.23
												C4.84,1.86,7.22,0.8,9.88,0.8"/>
										</defs>
										<clipPath id="SVGID_00000109012665048250425600000011498549164226715811_">
											<use xlink:href="#SVGID_00000034806955536971760100000011357078823623093182_"  style="overflow:visible;"/>
										</clipPath>
										
											<line style="clip-path:url(#SVGID_00000109012665048250425600000011498549164226715811_);fill:none;stroke:#FFFFFF;stroke-width:0.1;stroke-miterlimit:10;" x1="9.88" y1="3.73" x2="7.62" y2="-1.81"/>
										
											<use xlink:href="#SVGID_00000034806955536971760100000011357078823623093182_"  style="overflow:visible;fill:none;stroke:#FFFFFF;stroke-width:0.1;stroke-miterlimit:10;"/>
									</g>
								</g>
							</g>
						</g>
					</g>
					<g>
						<g>
							<g>
								<g>
									<g>
										<defs>
											<path id="SVGID_00000111912282859577508360000008930532984896819642_" d="M9.88,0.8c2.66,0,5.04,1.05,6.65,2.72H3.23
												C4.84,1.86,7.22,0.8,9.88,0.8"/>
										</defs>
										<clipPath id="SVGID_00000168824583681245908020000017562696555085251507_">
											<use xlink:href="#SVGID_00000111912282859577508360000008930532984896819642_"  style="overflow:visible;"/>
										</clipPath>
										
											<line style="clip-path:url(#SVGID_00000168824583681245908020000017562696555085251507_);fill:none;stroke:#FFFFFF;stroke-width:0.1;stroke-miterlimit:10;" x1="9.88" y1="3.73" x2="6.58" y2="-1.38"/>
										
											<use xlink:href="#SVGID_00000111912282859577508360000008930532984896819642_"  style="overflow:visible;fill:none;stroke:#FFFFFF;stroke-width:0.1;stroke-miterlimit:10;"/>
									</g>
								</g>
							</g>
						</g>
					</g>
					<g>
						<g>
							<g>
								<g>
									<g>
										<defs>
											<path id="SVGID_00000075862929534017621680000008706724322163847573_" d="M9.88,0.8c2.66,0,5.04,1.05,6.65,2.72H3.23
												C4.84,1.86,7.22,0.8,9.88,0.8"/>
										</defs>
										<clipPath id="SVGID_00000132075350434304245370000011065125021998475676_">
											<use xlink:href="#SVGID_00000075862929534017621680000008706724322163847573_"  style="overflow:visible;"/>
										</clipPath>
										
											<line style="clip-path:url(#SVGID_00000132075350434304245370000011065125021998475676_);fill:none;stroke:#FFFFFF;stroke-width:0.1;stroke-miterlimit:10;" x1="9.88" y1="3.73" x2="5.64" y2="-0.79"/>
										
											<use xlink:href="#SVGID_00000075862929534017621680000008706724322163847573_"  style="overflow:visible;fill:none;stroke:#FFFFFF;stroke-width:0.1;stroke-miterlimit:10;"/>
									</g>
								</g>
							</g>
						</g>
					</g>
					<g>
						<g>
							<g>
								<g>
									<g>
										<defs>
											<path id="SVGID_00000116934172043653595790000014925815041608709801_" d="M9.88,0.8c2.66,0,5.04,1.05,6.65,2.72H3.23
												C4.84,1.86,7.22,0.8,9.88,0.8"/>
										</defs>
										<clipPath id="SVGID_00000038395680218432582080000017626820232797990289_">
											<use xlink:href="#SVGID_00000116934172043653595790000014925815041608709801_"  style="overflow:visible;"/>
										</clipPath>
										
											<line style="clip-path:url(#SVGID_00000038395680218432582080000017626820232797990289_);fill:none;stroke:#FFFFFF;stroke-width:0.1;stroke-miterlimit:10;" x1="9.88" y1="3.73" x2="4.83" y2="-0.06"/>
										
											<use xlink:href="#SVGID_00000116934172043653595790000014925815041608709801_"  style="overflow:visible;fill:none;stroke:#FFFFFF;stroke-width:0.1;stroke-miterlimit:10;"/>
									</g>
								</g>
							</g>
						</g>
					</g>
					<g>
						<g>
							<g>
								<g>
									<g>
										<defs>
											<path id="SVGID_00000101808609594349878170000002131688847963292319_" d="M9.88,0.8c2.66,0,5.04,1.05,6.65,2.72H3.23
												C4.84,1.86,7.22,0.8,9.88,0.8"/>
										</defs>
										<clipPath id="SVGID_00000048486616560745186030000002619481913550535820_">
											<use xlink:href="#SVGID_00000101808609594349878170000002131688847963292319_"  style="overflow:visible;"/>
										</clipPath>
										
											<line style="clip-path:url(#SVGID_00000048486616560745186030000002619481913550535820_);fill:none;stroke:#FFFFFF;stroke-width:0.1;stroke-miterlimit:10;" x1="9.88" y1="3.73" x2="4.17" y2="0.78"/>
										
											<use xlink:href="#SVGID_00000101808609594349878170000002131688847963292319_"  style="overflow:visible;fill:none;stroke:#FFFFFF;stroke-width:0.1;stroke-miterlimit:10;"/>
									</g>
								</g>
							</g>
						</g>
					</g>
					<g>
						<g>
							<g>
								<g>
									<g>
										<defs>
											<path id="SVGID_00000159428487048491646580000002815856652981972119_" d="M9.88,0.8c2.66,0,5.04,1.05,6.65,2.72H3.23
												C4.84,1.86,7.22,0.8,9.88,0.8"/>
										</defs>
										<clipPath id="SVGID_00000001621754666255047440000005638942684794716593_">
											<use xlink:href="#SVGID_00000159428487048491646580000002815856652981972119_"  style="overflow:visible;"/>
										</clipPath>
										
											<line style="clip-path:url(#SVGID_00000001621754666255047440000005638942684794716593_);fill:none;stroke:#FFFFFF;stroke-width:0.1;stroke-miterlimit:10;" x1="9.88" y1="3.73" x2="3.69" y2="1.71"/>
										
											<use xlink:href="#SVGID_00000159428487048491646580000002815856652981972119_"  style="overflow:visible;fill:none;stroke:#FFFFFF;stroke-width:0.1;stroke-miterlimit:10;"/>
									</g>
								</g>
							</g>
						</g>
					</g>
					<g>
						<g>
							<g>
								<g>
									<g>
										<defs>
											<path id="SVGID_00000098941616137010532630000013615337785518451098_" d="M9.88,0.8c2.66,0,5.04,1.05,6.65,2.72H3.23
												C4.84,1.86,7.22,0.8,9.88,0.8"/>
										</defs>
										<clipPath id="SVGID_00000170269495758429109330000003849234809070374567_">
											<use xlink:href="#SVGID_00000098941616137010532630000013615337785518451098_"  style="overflow:visible;"/>
										</clipPath>
										
											<line style="clip-path:url(#SVGID_00000170269495758429109330000003849234809070374567_);fill:none;stroke:#FFFFFF;stroke-width:0.1;stroke-miterlimit:10;" x1="9.88" y1="3.73" x2="3.39" y2="2.7"/>
										
											<use xlink:href="#SVGID_00000098941616137010532630000013615337785518451098_"  style="overflow:visible;fill:none;stroke:#FFFFFF;stroke-width:0.1;stroke-miterlimit:10;"/>
									</g>
								</g>
							</g>
						</g>
					</g>
				</g>
				<path class="st31" d="M16.87,4.87c-0.1-0.11-0.2-0.19-0.31-0.24c-0.1-0.05-0.22-0.07-0.34-0.07c-0.13,0-0.23,0.03-0.32,0.1
					c-0.08,0.07-0.13,0.15-0.13,0.25c0,0.09,0.03,0.17,0.09,0.25c0.06,0.08,0.17,0.18,0.33,0.29c0.26,0.19,0.45,0.38,0.58,0.57
					c0.13,0.18,0.19,0.37,0.19,0.57c0,0.32-0.11,0.58-0.33,0.79c-0.22,0.21-0.5,0.31-0.84,0.31c-0.17,0-0.31-0.01-0.43-0.03
					c-0.12-0.02-0.26-0.07-0.42-0.13V6.75c0.11,0.13,0.22,0.23,0.34,0.29c0.12,0.06,0.24,0.09,0.38,0.09c0.14,0,0.25-0.04,0.34-0.12
					c0.09-0.08,0.14-0.18,0.14-0.31c0-0.11-0.04-0.22-0.12-0.32c-0.08-0.1-0.22-0.23-0.44-0.39c-0.22-0.16-0.37-0.32-0.48-0.47
					c-0.1-0.16-0.15-0.32-0.15-0.5c0-0.29,0.11-0.54,0.35-0.73S15.84,4,16.19,4c0.14,0,0.27,0.01,0.38,0.04
					c0.12,0.03,0.22,0.07,0.3,0.12L16.87,4.87L16.87,4.87z M12.24,7.65c0.05-0.09,0.08-0.19,0.1-0.29c0.02-0.1,0.03-0.23,0.03-0.39
					V4.73c0-0.16-0.01-0.29-0.03-0.39c-0.02-0.1-0.05-0.2-0.1-0.29h0.9h1.27L14.25,4.4l-0.16,0.35c-0.15-0.07-0.29-0.11-0.41-0.14
					c-0.13-0.03-0.28-0.04-0.44-0.04h-0.09v0.99h1.16l-0.18,0.33l-0.18,0.33c-0.18-0.05-0.31-0.09-0.41-0.12
					c-0.1-0.02-0.18-0.04-0.25-0.04h-0.14v1.05c0.27-0.01,0.5-0.03,0.69-0.07c0.26-0.05,0.51-0.14,0.76-0.26l-0.18,0.43l-0.18,0.43
					h-1.09L12.24,7.65L12.24,7.65z M8.59,6.96c0,0.16,0.01,0.29,0.03,0.39c0.02,0.1,0.05,0.2,0.1,0.29h-0.5H7.71
					c0.05-0.09,0.08-0.19,0.1-0.29c0.02-0.1,0.03-0.23,0.03-0.39V4.54L7.41,4.05H8h0.59c0.01,0.07,0.04,0.14,0.09,0.22
					C8.73,4.35,8.81,4.46,8.92,4.6l0.83,1.06h0L10.6,4.6c0.11-0.13,0.19-0.24,0.24-0.32c0.05-0.08,0.08-0.16,0.1-0.22h0.45h0.45
					c-0.11,0.21-0.18,0.38-0.23,0.51c-0.04,0.13-0.07,0.26-0.07,0.37v2.03c0,0.16,0.01,0.29,0.03,0.39c0.02,0.1,0.05,0.2,0.1,0.29
					h-0.51h-0.52c0.05-0.09,0.08-0.19,0.1-0.29c0.02-0.1,0.03-0.23,0.03-0.39V5.4h0L9.68,6.75L8.59,5.36h0V6.96L8.59,6.96z
					 M6.19,6.96V4.73c0-0.16-0.01-0.29-0.03-0.39c-0.02-0.1-0.05-0.2-0.1-0.29h0.51h0.52c-0.05,0.09-0.08,0.19-0.1,0.29
					c-0.02,0.1-0.03,0.23-0.03,0.39v2.23c0,0.16,0.01,0.29,0.03,0.39c0.02,0.1,0.05,0.2,0.1,0.29H6.57H6.06
					c0.05-0.09,0.08-0.19,0.1-0.29C6.18,7.26,6.19,7.12,6.19,6.96z M3.9,6.96V4.58c-0.27,0-0.48,0.02-0.64,0.04
					C3.03,4.64,2.87,4.68,2.78,4.75L2.86,4.4l0.09-0.35h1.33h1.5L5.68,4.4l-0.1,0.35c-0.1-0.06-0.22-0.11-0.37-0.14
					C5.08,4.59,4.9,4.57,4.67,4.57v2.39c0,0.15,0.01,0.28,0.03,0.38c0.02,0.1,0.06,0.2,0.11,0.3H4.28H3.75
					c0.05-0.1,0.09-0.2,0.11-0.3C3.88,7.24,3.9,7.11,3.9,6.96z"/>
			</g>
			<ellipse class="st32" cx="9.88" cy="8.68" rx="9.3" ry="8.35"/>
		</g>
		<g class="st33">
			<path class="st34" d="M6.19,9.33L6.15,9.39C6.12,9.46,6.1,9.54,6.1,9.61v0.33c0,0.08,0,0.13,0.01,0.17
				c0.01,0.04,0.02,0.08,0.04,0.13l-0.11,0.04c-0.25,0.09-0.48,0.13-0.7,0.13c-0.34,0-0.61-0.1-0.81-0.3c-0.2-0.2-0.3-0.46-0.3-0.78
				c0-0.31,0.11-0.57,0.33-0.77c0.22-0.21,0.49-0.31,0.83-0.31c0.09,0,0.19,0.01,0.28,0.03s0.19,0.04,0.29,0.07l0.07,0.03V8.8
				c-0.05-0.06-0.12-0.12-0.2-0.17c-0.15-0.1-0.29-0.15-0.45-0.15c-0.14,0-0.26,0.04-0.37,0.12C4.88,8.67,4.8,8.78,4.75,8.92
				C4.7,9.06,4.67,9.2,4.67,9.33c0,0.26,0.07,0.46,0.2,0.62c0.14,0.15,0.31,0.23,0.52,0.23c0.07,0,0.14-0.01,0.22-0.03l0.04-0.01
				l0.02,0V9.61c0-0.04-0.01-0.09-0.03-0.14c-0.02-0.05-0.04-0.1-0.06-0.14L6.19,9.33L6.19,9.33z"/>
			<path class="st34" d="M8.53,10.41H8.12c-0.3-0.27-0.55-0.6-0.74-0.97v0.67c0,0.09,0.02,0.17,0.05,0.25l0.03,0.05H6.85
				c0.03-0.04,0.05-0.08,0.07-0.13c0.01-0.05,0.02-0.1,0.02-0.17V8.56c0-0.11-0.03-0.2-0.09-0.28h0.6l0.14,0.01
				c0.18,0.03,0.33,0.08,0.44,0.18C8.1,8.52,8.15,8.58,8.18,8.66c0.04,0.07,0.05,0.15,0.05,0.23c0,0.1-0.03,0.19-0.08,0.28
				C8.1,9.25,8.03,9.32,7.93,9.38L7.84,9.42C8.03,9.78,8.26,10.11,8.53,10.41z M7.75,9.08c0.02-0.06,0.03-0.12,0.03-0.17
				c0-0.1-0.03-0.18-0.09-0.25C7.63,8.59,7.54,8.55,7.44,8.53c-0.02,0-0.04-0.01-0.07-0.01v0.81l0.05-0.01
				C7.59,9.3,7.7,9.22,7.75,9.08z"/>
			<path class="st34" d="M11.08,9.01c0.04,0.12,0.05,0.24,0.05,0.35c0,0.24-0.07,0.46-0.22,0.65c-0.15,0.19-0.34,0.32-0.58,0.38
				c-0.1,0.03-0.21,0.04-0.31,0.04c-0.25,0-0.48-0.08-0.66-0.23c-0.19-0.15-0.31-0.36-0.37-0.61C8.98,9.51,8.97,9.43,8.97,9.34
				c0-0.32,0.1-0.58,0.31-0.78c0.2-0.21,0.46-0.31,0.76-0.31c0.09,0,0.19,0.01,0.29,0.04c0.18,0.04,0.34,0.13,0.47,0.25
				C10.93,8.67,11.03,8.82,11.08,9.01z M10.65,9.76c0.02-0.1,0.03-0.21,0.03-0.32c0-0.16-0.02-0.29-0.07-0.41
				c-0.05-0.12-0.11-0.22-0.2-0.31c-0.07-0.07-0.15-0.11-0.23-0.15C10.09,8.55,10,8.53,9.92,8.53c-0.1,0-0.19,0.02-0.27,0.06
				C9.57,8.63,9.52,8.69,9.5,8.75c-0.02,0.07-0.04,0.13-0.06,0.2C9.43,9.01,9.42,9.09,9.42,9.18c0,0.03,0,0.05,0,0.08
				c0,0.02,0,0.05,0.01,0.09c0.02,0.16,0.06,0.29,0.12,0.4c0.06,0.11,0.15,0.2,0.25,0.27c0.07,0.05,0.14,0.08,0.21,0.11
				c0.07,0.02,0.13,0.03,0.2,0.03c0.09,0,0.17-0.02,0.24-0.06c0.07-0.04,0.11-0.1,0.14-0.16C10.61,9.89,10.63,9.83,10.65,9.76z"/>
			<path class="st34" d="M13.6,8.28l-0.03,0.05c-0.04,0.07-0.05,0.15-0.05,0.24v1.54c0,0.11,0.03,0.21,0.08,0.3h-0.53
				c0.02-0.05,0.03-0.1,0.03-0.15c0-0.01,0-0.03,0-0.05c-0.07,0.07-0.15,0.12-0.25,0.16c-0.1,0.04-0.2,0.07-0.31,0.07
				c-0.17,0-0.31-0.05-0.43-0.15c-0.12-0.1-0.19-0.23-0.21-0.39c0-0.03-0.01-0.06-0.01-0.09c0-0.03,0-0.06,0-0.1V8.56
				c0-0.1-0.03-0.2-0.09-0.28h0.61c-0.02,0.04-0.04,0.07-0.05,0.1c-0.02,0.06-0.03,0.12-0.03,0.18v1.21c0,0.12,0.03,0.21,0.09,0.27
				c0.06,0.07,0.14,0.1,0.25,0.1c0.02,0,0.03,0,0.05,0c0.02,0,0.04,0,0.05-0.01c0.07-0.02,0.13-0.04,0.18-0.08
				c0.1-0.07,0.14-0.15,0.14-0.22V8.56c0-0.08-0.02-0.16-0.06-0.24l-0.03-0.05L13.6,8.28L13.6,8.28z"/>
			<path class="st34" d="M15.5,8.52c0.08,0.1,0.12,0.22,0.12,0.35c0,0.1-0.02,0.2-0.07,0.29c-0.05,0.09-0.11,0.16-0.2,0.22
				c-0.06,0.04-0.13,0.06-0.21,0.08c-0.08,0.02-0.18,0.03-0.28,0.03H14.8v0.62c0,0.12,0.03,0.22,0.08,0.3h-0.61l0.04-0.05
				c0.02-0.03,0.04-0.07,0.04-0.1c0.01-0.03,0.01-0.08,0.01-0.15V8.56c0-0.11-0.03-0.21-0.09-0.28h0.58c0.15,0,0.28,0.02,0.39,0.06
				C15.35,8.38,15.43,8.44,15.5,8.52z M15.17,8.93c0-0.18-0.06-0.3-0.19-0.38c-0.06-0.03-0.13-0.05-0.19-0.04v0.87
				c0.04,0,0.08-0.01,0.12-0.02c0.08-0.03,0.14-0.08,0.19-0.15C15.15,9.14,15.17,9.04,15.17,8.93z"/>
		</g>
	</g>
	<g class="st33">
		<path class="st35" d="M22.91,4.51V5.3h-0.08c-0.05-0.18-0.1-0.31-0.15-0.39c-0.06-0.08-0.13-0.14-0.23-0.19
			c-0.05-0.03-0.15-0.04-0.29-0.04h-0.22v2.26c0,0.15,0.01,0.24,0.03,0.28c0.02,0.04,0.05,0.07,0.1,0.1
			c0.05,0.03,0.11,0.04,0.2,0.04h0.1v0.08h-1.53V7.36h0.1c0.08,0,0.15-0.01,0.21-0.05c0.04-0.02,0.07-0.05,0.09-0.1
			c0.02-0.04,0.02-0.13,0.02-0.27V4.68h-0.21c-0.2,0-0.34,0.04-0.43,0.13c-0.13,0.12-0.2,0.28-0.24,0.5h-0.08V4.51L22.91,4.51
			L22.91,4.51L22.91,4.51z"/>
		<path class="st35" d="M24.78,7.36v0.08h-1.53V7.36h0.1c0.08,0,0.15-0.01,0.21-0.05c0.04-0.02,0.07-0.05,0.09-0.1
			c0.02-0.04,0.02-0.13,0.02-0.27V5.01c0-0.15-0.01-0.24-0.02-0.28s-0.05-0.07-0.1-0.1c-0.05-0.03-0.11-0.04-0.2-0.04h-0.1V4.51
			h1.53v0.08h-0.1c-0.08,0-0.15,0.01-0.21,0.05c-0.04,0.02-0.07,0.05-0.09,0.1c-0.02,0.04-0.02,0.13-0.02,0.27v1.93
			c0,0.15,0.01,0.24,0.03,0.28c0.02,0.04,0.05,0.07,0.1,0.1c0.05,0.03,0.11,0.04,0.2,0.04L24.78,7.36L24.78,7.36z"/>
		<path class="st35" d="M27.07,6.44l0.8-1.93h1.19v0.08h-0.1c-0.09,0-0.16,0.01-0.21,0.05c-0.04,0.02-0.07,0.05-0.09,0.1
			c-0.02,0.04-0.02,0.12-0.02,0.27v1.93c0,0.15,0.01,0.24,0.02,0.28c0.02,0.04,0.05,0.07,0.1,0.1c0.05,0.03,0.11,0.04,0.2,0.04h0.1
			v0.08h-1.53V7.36h0.1c0.09,0,0.16-0.01,0.21-0.05c0.04-0.02,0.07-0.05,0.09-0.1c0.02-0.04,0.02-0.13,0.02-0.27V4.77l-1.12,2.67
			h-0.05l-1.14-2.65v2.06c0,0.14,0,0.23,0.01,0.27c0.02,0.07,0.06,0.13,0.12,0.18c0.06,0.05,0.16,0.07,0.29,0.07v0.08h-1V7.36h0.03
			c0.07,0,0.13-0.01,0.18-0.03c0.06-0.02,0.1-0.05,0.13-0.09c0.03-0.04,0.05-0.09,0.07-0.16c0-0.02,0-0.09,0-0.22V5.01
			c0-0.15-0.01-0.24-0.02-0.28c-0.02-0.04-0.05-0.07-0.1-0.1c-0.05-0.03-0.11-0.04-0.2-0.04h-0.09V4.51h1.2L27.07,6.44z"/>
		<path class="st35" d="M30.43,4.68v1.19h0.06c0.19,0,0.32-0.06,0.4-0.18s0.14-0.29,0.16-0.52h0.08v1.53h-0.08
			c-0.02-0.17-0.05-0.3-0.11-0.41c-0.06-0.11-0.12-0.18-0.19-0.22c-0.07-0.04-0.18-0.06-0.32-0.06v0.83c0,0.16,0.01,0.26,0.02,0.3
			c0.01,0.04,0.04,0.07,0.08,0.09c0.04,0.02,0.1,0.04,0.18,0.04h0.18c0.27,0,0.49-0.06,0.66-0.19c0.16-0.13,0.28-0.32,0.36-0.58
			h0.08l-0.13,0.93h-2.53V7.36h0.1c0.08,0,0.15-0.01,0.21-0.05c0.04-0.02,0.07-0.05,0.09-0.1c0.02-0.04,0.02-0.13,0.02-0.27V5.01
			c0-0.13,0-0.21-0.01-0.24c-0.01-0.05-0.04-0.09-0.08-0.12c-0.05-0.04-0.13-0.06-0.22-0.06h-0.1V4.51h2.45v0.87h-0.08
			c-0.04-0.21-0.1-0.36-0.18-0.46c-0.08-0.09-0.18-0.16-0.32-0.2c-0.08-0.03-0.23-0.04-0.45-0.04L30.43,4.68L30.43,4.68L30.43,4.68z
			"/>
		<path class="st35" d="M34.33,4.44l0.02,0.98h-0.09c-0.04-0.25-0.14-0.44-0.31-0.59c-0.16-0.15-0.34-0.22-0.53-0.22
			c-0.15,0-0.26,0.04-0.35,0.12C33,4.8,32.95,4.89,32.95,4.99c0,0.07,0.01,0.12,0.05,0.17c0.04,0.07,0.11,0.13,0.2,0.2
			c0.07,0.05,0.22,0.13,0.47,0.25c0.34,0.17,0.57,0.33,0.69,0.48c0.12,0.15,0.18,0.32,0.18,0.51c0,0.25-0.1,0.46-0.29,0.63
			s-0.43,0.26-0.73,0.26c-0.09,0-0.18-0.01-0.26-0.03c-0.08-0.02-0.18-0.05-0.31-0.11c-0.07-0.03-0.13-0.04-0.17-0.04
			c-0.04,0-0.08,0.01-0.12,0.04c-0.04,0.03-0.08,0.07-0.1,0.13h-0.08V6.4h0.08c0.06,0.31,0.18,0.55,0.37,0.71
			c0.18,0.16,0.38,0.25,0.58,0.25c0.16,0,0.29-0.04,0.39-0.13c0.1-0.09,0.14-0.19,0.14-0.31c0-0.07-0.02-0.14-0.06-0.2
			c-0.04-0.07-0.09-0.13-0.17-0.18c-0.07-0.06-0.21-0.13-0.4-0.23c-0.27-0.13-0.46-0.24-0.58-0.33c-0.12-0.09-0.21-0.19-0.27-0.31
			c-0.06-0.11-0.09-0.24-0.09-0.38c0-0.23,0.09-0.43,0.26-0.6c0.17-0.16,0.39-0.25,0.65-0.25c0.1,0,0.19,0.01,0.28,0.04
			c0.07,0.02,0.15,0.05,0.25,0.1c0.1,0.05,0.17,0.07,0.2,0.07c0.04,0,0.07-0.01,0.09-0.04c0.02-0.02,0.04-0.08,0.06-0.17L34.33,4.44
			L34.33,4.44z"/>
		<path class="st35" d="M39.04,4.44v1.03h-0.08c-0.1-0.28-0.24-0.5-0.43-0.64c-0.19-0.15-0.4-0.22-0.63-0.22
			c-0.22,0-0.4,0.06-0.55,0.18c-0.15,0.12-0.25,0.29-0.31,0.51c-0.06,0.22-0.09,0.45-0.09,0.68c0,0.28,0.03,0.53,0.1,0.74
			c0.07,0.21,0.17,0.37,0.32,0.47c0.15,0.1,0.32,0.15,0.53,0.15c0.07,0,0.14-0.01,0.22-0.02c0.07-0.01,0.15-0.04,0.23-0.07V6.65
			c0-0.11-0.01-0.19-0.02-0.22c-0.02-0.03-0.05-0.06-0.1-0.09s-0.11-0.04-0.18-0.04h-0.08V6.21h1.42v0.08
			c-0.11,0.01-0.18,0.02-0.23,0.04c-0.04,0.02-0.07,0.06-0.1,0.11c-0.01,0.03-0.02,0.09-0.02,0.2v0.61
			c-0.19,0.08-0.38,0.15-0.58,0.19c-0.2,0.04-0.41,0.06-0.63,0.06c-0.28,0-0.51-0.04-0.69-0.11c-0.18-0.08-0.35-0.18-0.49-0.3
			s-0.25-0.26-0.33-0.42c-0.1-0.2-0.15-0.42-0.15-0.67c0-0.44,0.15-0.81,0.46-1.12c0.31-0.3,0.7-0.46,1.17-0.46
			c0.14,0,0.28,0.01,0.39,0.04c0.06,0.01,0.17,0.04,0.31,0.1c0.14,0.05,0.23,0.08,0.25,0.08c0.04,0,0.08-0.01,0.11-0.04
			c0.04-0.03,0.07-0.09,0.1-0.17L39.04,4.44L39.04,4.44L39.04,4.44L39.04,4.44z"/>
		<path class="st35" d="M40.69,6.11v0.82c0,0.16,0.01,0.26,0.03,0.3c0.02,0.04,0.05,0.07,0.1,0.1c0.05,0.02,0.14,0.04,0.27,0.04
			v0.08h-1.5V7.36c0.14,0,0.23-0.01,0.28-0.04s0.08-0.06,0.1-0.1C40,7.19,40,7.08,40,6.93v-1.9c0-0.16-0.01-0.26-0.03-0.3
			c-0.02-0.04-0.05-0.07-0.1-0.1c-0.05-0.02-0.14-0.04-0.27-0.04V4.51h1.36c0.35,0,0.61,0.02,0.78,0.07c0.16,0.05,0.3,0.14,0.4,0.27
			s0.16,0.29,0.16,0.46c0,0.22-0.08,0.4-0.23,0.54c-0.1,0.09-0.24,0.16-0.42,0.2l0.7,0.99c0.09,0.13,0.16,0.21,0.2,0.24
			c0.06,0.04,0.13,0.07,0.21,0.07v0.08h-0.92L40.89,6.1L40.69,6.11L40.69,6.11L40.69,6.11z M40.69,4.67v1.28h0.12
			c0.2,0,0.35-0.02,0.45-0.06c0.1-0.04,0.18-0.1,0.23-0.2s0.09-0.22,0.09-0.37c0-0.22-0.05-0.39-0.16-0.49
			c-0.1-0.11-0.27-0.16-0.5-0.16L40.69,4.67L40.69,4.67z"/>
		<path class="st35" d="M44.5,4.47c0.47-0.02,0.85,0.12,1.14,0.41s0.44,0.65,0.44,1.09c0,0.37-0.11,0.7-0.33,0.98
			c-0.29,0.37-0.69,0.56-1.22,0.56c-0.53,0-0.94-0.18-1.22-0.54c-0.23-0.28-0.34-0.62-0.34-1c0-0.43,0.15-0.8,0.44-1.09
			C43.71,4.59,44.07,4.45,44.5,4.47z M44.53,4.61c-0.27,0-0.47,0.14-0.61,0.41c-0.11,0.22-0.17,0.55-0.17,0.97
			c0,0.5,0.09,0.87,0.26,1.11c0.12,0.17,0.29,0.25,0.51,0.25c0.15,0,0.27-0.04,0.37-0.11c0.13-0.09,0.23-0.24,0.3-0.44
			C45.26,6.59,45.3,6.33,45.3,6c0-0.39-0.04-0.68-0.11-0.87c-0.07-0.19-0.16-0.33-0.28-0.41C44.8,4.65,44.68,4.61,44.53,4.61z"/>
		<path class="st35" d="M46.42,4.51h1.51v0.08h-0.08c-0.11,0-0.19,0.01-0.23,0.04c-0.04,0.02-0.07,0.06-0.09,0.1
			c-0.02,0.04-0.03,0.15-0.03,0.31v1.43c0,0.26,0.02,0.44,0.06,0.52c0.04,0.08,0.11,0.16,0.2,0.21c0.09,0.06,0.21,0.08,0.34,0.08
			c0.16,0,0.29-0.04,0.4-0.11s0.19-0.17,0.25-0.29s0.08-0.34,0.08-0.65v-1.2c0-0.13-0.01-0.22-0.04-0.28
			c-0.03-0.06-0.06-0.1-0.1-0.12c-0.07-0.03-0.16-0.05-0.27-0.05V4.51h1.01v0.08h-0.06c-0.08,0-0.15,0.02-0.21,0.05
			s-0.09,0.08-0.12,0.15c-0.02,0.05-0.03,0.13-0.03,0.25v1.11c0,0.34-0.02,0.59-0.07,0.75c-0.04,0.15-0.16,0.29-0.33,0.42
			c-0.18,0.13-0.42,0.19-0.72,0.19c-0.25,0-0.45-0.03-0.59-0.1C47.14,7.32,47,7.2,46.92,7.05c-0.08-0.14-0.12-0.34-0.12-0.58V5.04
			c0-0.17-0.01-0.27-0.03-0.31c-0.02-0.04-0.05-0.07-0.1-0.1c-0.05-0.02-0.13-0.04-0.25-0.04L46.42,4.51L46.42,4.51L46.42,4.51z"/>
		<path class="st35" d="M50.8,6.11v0.81c0,0.16,0.01,0.26,0.03,0.3c0.02,0.04,0.05,0.07,0.1,0.1c0.05,0.02,0.14,0.04,0.27,0.04v0.08
			h-1.49V7.36c0.14,0,0.23-0.01,0.28-0.04s0.08-0.06,0.1-0.1c0.02-0.04,0.03-0.14,0.03-0.3v-1.9c0-0.16-0.01-0.26-0.03-0.3
			c-0.02-0.04-0.05-0.07-0.1-0.1c-0.05-0.02-0.14-0.04-0.27-0.04V4.51h1.28c0.42,0,0.72,0.07,0.91,0.22s0.27,0.34,0.27,0.56
			c0,0.19-0.06,0.35-0.18,0.49c-0.12,0.14-0.28,0.23-0.49,0.28C51.36,6.1,51.13,6.11,50.8,6.11z M50.8,4.68v1.27
			c0.05,0,0.08,0,0.11,0c0.18,0,0.31-0.05,0.41-0.16c0.1-0.1,0.14-0.27,0.14-0.48c0-0.22-0.05-0.38-0.14-0.48s-0.24-0.15-0.43-0.15
			L50.8,4.68L50.8,4.68z"/>
		<path class="st35" d="M55.04,4.47c0.47-0.02,0.85,0.12,1.14,0.41c0.29,0.29,0.44,0.65,0.44,1.09c0,0.37-0.11,0.7-0.33,0.98
			C56,7.32,55.6,7.51,55.07,7.51c-0.53,0-0.94-0.18-1.22-0.54c-0.23-0.28-0.34-0.62-0.34-1c0-0.43,0.15-0.8,0.44-1.09
			C54.25,4.59,54.61,4.45,55.04,4.47z M55.07,4.61c-0.27,0-0.47,0.14-0.61,0.41c-0.11,0.22-0.17,0.55-0.17,0.97
			c0,0.5,0.09,0.87,0.26,1.11c0.12,0.17,0.29,0.25,0.51,0.25c0.15,0,0.27-0.04,0.37-0.11c0.13-0.09,0.23-0.24,0.3-0.44
			c0.07-0.2,0.11-0.47,0.11-0.79c0-0.39-0.04-0.68-0.11-0.87c-0.07-0.19-0.16-0.33-0.28-0.41C55.34,4.65,55.21,4.61,55.07,4.61z"/>
		<path class="st35" d="M58.08,4.68v1.2h0.08c0.13,0,0.24-0.02,0.32-0.06c0.08-0.04,0.15-0.1,0.21-0.2
			c0.06-0.09,0.09-0.22,0.11-0.37h0.08v1.47H58.8c-0.03-0.28-0.1-0.46-0.22-0.55c-0.12-0.09-0.26-0.13-0.41-0.13h-0.08v0.9
			c0,0.15,0.01,0.24,0.03,0.28c0.02,0.04,0.05,0.07,0.1,0.1c0.05,0.03,0.11,0.04,0.2,0.04h0.1v0.08h-1.53V7.36h0.1
			c0.08,0,0.15-0.01,0.21-0.05c0.04-0.02,0.07-0.05,0.09-0.1c0.02-0.04,0.02-0.13,0.02-0.27V5.01c0-0.15-0.01-0.24-0.02-0.28
			c-0.02-0.04-0.05-0.07-0.1-0.1c-0.05-0.03-0.11-0.04-0.2-0.04h-0.1V4.51h2.47v0.84h-0.09c-0.02-0.2-0.07-0.34-0.15-0.44
			c-0.08-0.1-0.2-0.16-0.36-0.2c-0.09-0.02-0.25-0.03-0.48-0.03L58.08,4.68L58.08,4.68z"/>
	</g>
	<g class="st33">
		<path class="st35" d="M21.74,12.67v0.08h-1.53v-0.08h0.1c0.08,0,0.15-0.01,0.21-0.05c0.04-0.02,0.07-0.05,0.09-0.1
			c0.02-0.04,0.02-0.13,0.02-0.27v-1.93c0-0.15-0.01-0.24-0.02-0.28c-0.02-0.04-0.05-0.07-0.1-0.1c-0.05-0.03-0.11-0.04-0.2-0.04
			h-0.1V9.82h1.53V9.9h-0.1c-0.08,0-0.15,0.01-0.21,0.05c-0.04,0.02-0.07,0.05-0.09,0.1c-0.02,0.04-0.02,0.13-0.02,0.27v1.93
			c0,0.15,0.01,0.24,0.03,0.28c0.02,0.04,0.05,0.07,0.1,0.1c0.05,0.03,0.11,0.04,0.2,0.04L21.74,12.67L21.74,12.67z"/>
		<path class="st35" d="M23.03,9.82l1.45,1.82v-1.26c0-0.18-0.03-0.29-0.08-0.36c-0.07-0.08-0.18-0.12-0.35-0.12V9.82h0.97V9.9
			c-0.12,0.02-0.21,0.04-0.25,0.06c-0.04,0.03-0.08,0.07-0.1,0.12c-0.02,0.06-0.04,0.15-0.04,0.29v2.44h-0.07l-1.98-2.44v1.86
			c0,0.17,0.04,0.28,0.12,0.34c0.08,0.06,0.17,0.09,0.26,0.09h0.07v0.08h-1.04v-0.08c0.16,0,0.27-0.04,0.34-0.1
			c0.06-0.07,0.1-0.18,0.1-0.33v-2.07l-0.06-0.08c-0.06-0.08-0.12-0.13-0.16-0.15c-0.05-0.02-0.12-0.04-0.21-0.04V9.82H23.03
			L23.03,9.82z"/>
		<path class="st35" d="M27.28,9.75l0.02,0.98h-0.09c-0.04-0.25-0.14-0.44-0.31-0.59c-0.16-0.15-0.34-0.22-0.53-0.22
			c-0.15,0-0.26,0.04-0.35,0.12c-0.09,0.08-0.13,0.17-0.13,0.27c0,0.07,0.01,0.12,0.05,0.17c0.04,0.07,0.11,0.13,0.2,0.2
			c0.07,0.05,0.22,0.13,0.47,0.25c0.34,0.17,0.57,0.33,0.69,0.48c0.12,0.15,0.18,0.32,0.18,0.51c0,0.25-0.1,0.46-0.29,0.63
			c-0.19,0.18-0.43,0.26-0.73,0.26c-0.09,0-0.18-0.01-0.26-0.03c-0.08-0.02-0.18-0.05-0.31-0.11c-0.07-0.03-0.13-0.04-0.17-0.04
			c-0.04,0-0.08,0.01-0.12,0.04c-0.04,0.03-0.08,0.07-0.1,0.13h-0.08v-1.11h0.08c0.06,0.31,0.19,0.55,0.37,0.71
			c0.18,0.16,0.38,0.25,0.58,0.25c0.16,0,0.29-0.04,0.39-0.13c0.1-0.09,0.14-0.19,0.14-0.31c0-0.07-0.02-0.14-0.06-0.2
			c-0.04-0.07-0.09-0.13-0.17-0.18c-0.07-0.06-0.21-0.13-0.4-0.23c-0.27-0.13-0.46-0.24-0.58-0.33c-0.12-0.09-0.21-0.19-0.27-0.31
			c-0.06-0.11-0.09-0.24-0.09-0.38c0-0.23,0.09-0.43,0.26-0.6c0.17-0.16,0.39-0.25,0.65-0.25c0.1,0,0.19,0.01,0.28,0.04
			c0.07,0.02,0.15,0.05,0.25,0.1c0.1,0.05,0.17,0.07,0.2,0.07c0.04,0,0.07-0.01,0.09-0.04c0.02-0.02,0.04-0.08,0.06-0.17L27.28,9.75
			L27.28,9.75L27.28,9.75z"/>
		<path class="st35" d="M30.54,9.82v0.79h-0.08c-0.05-0.18-0.1-0.31-0.15-0.39c-0.06-0.08-0.13-0.14-0.23-0.19
			c-0.05-0.03-0.15-0.04-0.29-0.04h-0.22v2.26c0,0.15,0.01,0.24,0.03,0.28c0.02,0.04,0.05,0.07,0.1,0.1
			c0.05,0.03,0.11,0.04,0.2,0.04h0.1v0.08h-1.53v-0.08h0.1c0.08,0,0.15-0.01,0.21-0.05c0.04-0.02,0.07-0.05,0.09-0.1
			c0.02-0.04,0.02-0.13,0.02-0.27V9.99h-0.21c-0.2,0-0.34,0.04-0.43,0.13c-0.13,0.12-0.2,0.28-0.24,0.5h-0.08V9.82H30.54L30.54,9.82
			z"/>
		<path class="st35" d="M32.41,12.67v0.08h-1.53v-0.08h0.1c0.08,0,0.15-0.01,0.21-0.05c0.04-0.02,0.07-0.05,0.09-0.1
			c0.02-0.04,0.02-0.13,0.02-0.27v-1.93c0-0.15-0.01-0.24-0.02-0.28c-0.02-0.04-0.05-0.07-0.1-0.1c-0.05-0.03-0.11-0.04-0.2-0.04
			h-0.1V9.82h1.53V9.9h-0.1c-0.08,0-0.15,0.01-0.21,0.05c-0.04,0.02-0.07,0.05-0.09,0.1c-0.02,0.04-0.02,0.13-0.02,0.27v1.93
			c0,0.15,0.01,0.24,0.03,0.28c0.02,0.04,0.05,0.07,0.1,0.1c0.05,0.03,0.11,0.04,0.2,0.04L32.41,12.67L32.41,12.67z"/>
		<path class="st35" d="M35.38,9.82v0.79H35.3c-0.05-0.18-0.1-0.31-0.15-0.39c-0.06-0.08-0.13-0.14-0.23-0.19
			c-0.05-0.03-0.15-0.04-0.29-0.04h-0.22v2.26c0,0.15,0.01,0.24,0.03,0.28c0.02,0.04,0.05,0.07,0.1,0.1
			c0.05,0.03,0.11,0.04,0.2,0.04h0.1v0.08H33.3v-0.08h0.1c0.08,0,0.15-0.01,0.21-0.05c0.04-0.02,0.07-0.05,0.09-0.1
			c0.02-0.04,0.02-0.13,0.02-0.27V9.99H33.5c-0.2,0-0.34,0.04-0.43,0.13c-0.13,0.12-0.2,0.28-0.24,0.5h-0.08V9.82H35.38L35.38,9.82z
			"/>
		<path class="st35" d="M35.73,9.82h1.51V9.9h-0.08c-0.11,0-0.19,0.01-0.23,0.04c-0.04,0.02-0.07,0.06-0.09,0.1
			c-0.02,0.04-0.03,0.15-0.03,0.31v1.43c0,0.26,0.02,0.44,0.06,0.52c0.04,0.08,0.11,0.16,0.2,0.21c0.09,0.06,0.21,0.08,0.34,0.08
			c0.16,0,0.29-0.04,0.4-0.11c0.11-0.07,0.19-0.17,0.25-0.29c0.06-0.13,0.08-0.34,0.08-0.65v-1.2c0-0.13-0.01-0.22-0.04-0.28
			c-0.03-0.06-0.06-0.1-0.1-0.12c-0.07-0.03-0.16-0.05-0.27-0.05V9.82h1.01V9.9h-0.06c-0.08,0-0.15,0.02-0.21,0.05
			s-0.09,0.08-0.12,0.15c-0.02,0.05-0.03,0.13-0.03,0.25v1.11c0,0.34-0.02,0.59-0.07,0.75c-0.04,0.15-0.16,0.29-0.33,0.42
			c-0.18,0.13-0.42,0.19-0.72,0.19c-0.25,0-0.45-0.03-0.59-0.1c-0.19-0.09-0.32-0.21-0.4-0.35c-0.08-0.14-0.12-0.34-0.12-0.58v-1.44
			c0-0.17-0.01-0.27-0.03-0.31c-0.02-0.04-0.05-0.07-0.1-0.1c-0.05-0.02-0.13-0.04-0.25-0.04L35.73,9.82L35.73,9.82L35.73,9.82z"/>
		<path class="st35" d="M41.7,9.82v0.79h-0.08c-0.05-0.18-0.1-0.31-0.15-0.39c-0.06-0.08-0.13-0.14-0.23-0.19
			c-0.05-0.03-0.15-0.04-0.29-0.04h-0.22v2.26c0,0.15,0.01,0.24,0.03,0.28c0.02,0.04,0.05,0.07,0.1,0.1
			c0.05,0.03,0.11,0.04,0.2,0.04h0.1v0.08h-1.53v-0.08h0.1c0.08,0,0.15-0.01,0.21-0.05c0.04-0.02,0.07-0.05,0.09-0.1
			c0.02-0.04,0.02-0.13,0.02-0.27V9.99h-0.21c-0.2,0-0.34,0.04-0.43,0.13c-0.13,0.12-0.2,0.28-0.24,0.5h-0.08V9.82H41.7L41.7,9.82z"
			/>
		<path class="st35" d="M43.56,12.67v0.08h-1.53v-0.08h0.1c0.08,0,0.15-0.01,0.21-0.05c0.04-0.02,0.07-0.05,0.09-0.1
			c0.02-0.04,0.02-0.13,0.02-0.27v-1.93c0-0.15-0.01-0.24-0.02-0.28c-0.02-0.04-0.05-0.07-0.1-0.1c-0.05-0.03-0.11-0.04-0.2-0.04
			h-0.1V9.82h1.53V9.9h-0.1c-0.08,0-0.15,0.01-0.21,0.05c-0.04,0.02-0.07,0.05-0.09,0.1c-0.02,0.04-0.02,0.13-0.02,0.27v1.93
			c0,0.15,0.01,0.24,0.03,0.28c0.02,0.04,0.05,0.07,0.1,0.1c0.05,0.03,0.11,0.04,0.2,0.04L43.56,12.67L43.56,12.67z"/>
		<path class="st35" d="M45.46,9.78c0.47-0.02,0.85,0.12,1.14,0.41s0.44,0.65,0.44,1.09c0,0.37-0.11,0.7-0.33,0.98
			c-0.29,0.37-0.69,0.56-1.22,0.56c-0.53,0-0.94-0.18-1.22-0.54c-0.23-0.28-0.34-0.62-0.34-1c0-0.43,0.15-0.8,0.44-1.09
			C44.66,9.9,45.02,9.76,45.46,9.78z M45.48,9.92c-0.27,0-0.47,0.14-0.61,0.41c-0.11,0.22-0.17,0.55-0.17,0.97
			c0,0.5,0.09,0.87,0.26,1.11c0.12,0.17,0.29,0.25,0.51,0.25c0.15,0,0.27-0.04,0.37-0.11c0.13-0.09,0.23-0.24,0.3-0.44
			c0.07-0.2,0.11-0.47,0.11-0.79c0-0.39-0.04-0.68-0.11-0.87c-0.07-0.19-0.16-0.33-0.28-0.41C45.76,9.96,45.63,9.92,45.48,9.92z"/>
		<path class="st35" d="M48.37,9.82l1.45,1.82v-1.26c0-0.18-0.03-0.29-0.08-0.36c-0.07-0.08-0.18-0.12-0.35-0.12V9.82h0.97V9.9
			c-0.12,0.02-0.21,0.04-0.25,0.06c-0.04,0.03-0.08,0.07-0.1,0.12c-0.02,0.06-0.04,0.15-0.04,0.29v2.44H49.9l-1.98-2.44v1.86
			c0,0.17,0.04,0.28,0.12,0.34c0.08,0.06,0.17,0.09,0.26,0.09h0.07v0.08h-1.04v-0.08c0.16,0,0.27-0.04,0.34-0.1
			c0.06-0.07,0.1-0.18,0.1-0.33v-2.07L47.7,10.1c-0.06-0.08-0.12-0.13-0.16-0.15c-0.05-0.02-0.12-0.04-0.21-0.04V9.82H48.37
			L48.37,9.82z"/>
		<path class="st35" d="M52.63,9.75l0.02,0.98h-0.09c-0.04-0.25-0.14-0.44-0.31-0.59c-0.16-0.15-0.34-0.22-0.53-0.22
			c-0.15,0-0.26,0.04-0.35,0.12c-0.09,0.08-0.13,0.17-0.13,0.27c0,0.07,0.01,0.12,0.05,0.17c0.04,0.07,0.11,0.13,0.2,0.2
			c0.07,0.05,0.22,0.13,0.47,0.25c0.34,0.17,0.57,0.33,0.69,0.48c0.12,0.15,0.18,0.32,0.18,0.51c0,0.25-0.1,0.46-0.29,0.63
			c-0.19,0.18-0.43,0.26-0.73,0.26c-0.09,0-0.18-0.01-0.26-0.03c-0.08-0.02-0.18-0.05-0.31-0.11c-0.07-0.03-0.13-0.04-0.17-0.04
			c-0.04,0-0.08,0.01-0.12,0.04c-0.04,0.03-0.08,0.07-0.1,0.13h-0.08v-1.11h0.08c0.06,0.31,0.18,0.55,0.37,0.71
			c0.18,0.16,0.38,0.25,0.58,0.25c0.16,0,0.29-0.04,0.39-0.13c0.1-0.09,0.14-0.19,0.14-0.31c0-0.07-0.02-0.14-0.06-0.2
			c-0.04-0.07-0.09-0.13-0.17-0.18c-0.07-0.06-0.21-0.13-0.4-0.23c-0.27-0.13-0.46-0.24-0.58-0.33c-0.12-0.09-0.21-0.19-0.27-0.31
			c-0.06-0.11-0.09-0.24-0.09-0.38c0-0.23,0.09-0.43,0.26-0.6c0.17-0.16,0.39-0.25,0.65-0.25c0.1,0,0.19,0.01,0.28,0.04
			c0.07,0.02,0.15,0.05,0.25,0.1c0.1,0.05,0.17,0.07,0.2,0.07c0.04,0,0.07-0.01,0.09-0.04s0.04-0.08,0.06-0.17L52.63,9.75
			L52.63,9.75L52.63,9.75z"/>
	</g>
</g>
</svg>
