<?xml version="1.0" encoding="utf-8"?>
<!-- Generator: Adobe Illustrator 25.4.1, SVG Export Plug-In . SVG Version: 6.00 Build 0)  -->
<svg version="1.1" id="Layer_1" xmlns="http://www.w3.org/2000/svg" xmlns:xlink="http://www.w3.org/1999/xlink" x="0px" y="0px"
	 viewBox="0 0 8192 2384.64" style="enable-background:new 0 0 8192 2384.64;" xml:space="preserve">
<style type="text/css">
	.st0{fill-rule:evenodd;clip-rule:evenodd;fill:#FCBC00;}
	
		.st1{clip-path:url(#SVGID_00000000910639908820592950000014424022886534200216_);fill-rule:evenodd;clip-rule:evenodd;fill:#038137;}
	
		.st2{clip-path:url(#SVGID_00000139982948084021715450000008538202216993969820_);fill-rule:evenodd;clip-rule:evenodd;fill:#FFFFFF;}
	
		.st3{clip-path:url(#SVGID_00000041256720789043111970000007349726444585501887_);fill:none;stroke:#FFFFFF;stroke-width:0.9873;stroke-miterlimit:2.5797;}
	
		.st4{clip-path:url(#SVGID_00000009587984707356632550000007311409367940044703_);fill:none;stroke:#FFFFFF;stroke-width:0.9873;stroke-miterlimit:2.5797;}
	
		.st5{clip-path:url(#SVGID_00000059277460497582784720000011155855370468015264_);fill:none;stroke:#FFFFFF;stroke-width:0.9873;stroke-miterlimit:2.5797;}
	
		.st6{clip-path:url(#SVGID_00000024701168783247002820000014478157015310576780_);fill:none;stroke:#FFFFFF;stroke-width:0.9873;stroke-miterlimit:2.5797;}
	
		.st7{clip-path:url(#SVGID_00000082366113938613674490000014165833799602635425_);fill:none;stroke:#FFFFFF;stroke-width:0.9873;stroke-miterlimit:2.5797;}
	
		.st8{clip-path:url(#SVGID_00000176025299157717631430000000414556077855524786_);fill:none;stroke:#FFFFFF;stroke-width:0.9873;stroke-miterlimit:2.5797;}
	
		.st9{clip-path:url(#SVGID_00000097470122172265805410000012522720774668622263_);fill:none;stroke:#FFFFFF;stroke-width:0.9873;stroke-miterlimit:2.5797;}
	
		.st10{clip-path:url(#SVGID_00000153678358660787059670000010186319655556292030_);fill:none;stroke:#FFFFFF;stroke-width:0.9873;stroke-miterlimit:2.5797;}
	
		.st11{clip-path:url(#SVGID_00000031173026821123243840000010235760001458361780_);fill:none;stroke:#FFFFFF;stroke-width:0.9873;stroke-miterlimit:2.5797;}
	
		.st12{clip-path:url(#SVGID_00000096739982920530938830000009060291264430874549_);fill-rule:evenodd;clip-rule:evenodd;fill:#FCBC00;}
	
		.st13{clip-path:url(#SVGID_00000098217656203480626360000011117247268431161731_);fill-rule:evenodd;clip-rule:evenodd;fill:#FFFFFF;}
	
		.st14{clip-path:url(#SVGID_00000124120905532003007360000017117436599729685177_);fill:none;stroke:#FFFFFF;stroke-width:0.9873;stroke-miterlimit:2.5797;}
	
		.st15{clip-path:url(#SVGID_00000037671914071593723160000015570250950368833666_);fill:none;stroke:#FFFFFF;stroke-width:0.9873;stroke-miterlimit:2.5797;}
	
		.st16{clip-path:url(#SVGID_00000002362319266704623160000014315437111504004499_);fill:none;stroke:#FFFFFF;stroke-width:0.9873;stroke-miterlimit:2.5797;}
	
		.st17{clip-path:url(#SVGID_00000114054380291597956210000001561330107241862071_);fill:none;stroke:#FFFFFF;stroke-width:0.9873;stroke-miterlimit:2.5797;}
	
		.st18{clip-path:url(#SVGID_00000005955932768602052440000006903259270188334270_);fill:none;stroke:#FFFFFF;stroke-width:0.9873;stroke-miterlimit:2.5797;}
	
		.st19{clip-path:url(#SVGID_00000075145478602896680970000003689962830507123644_);fill:none;stroke:#FFFFFF;stroke-width:0.9873;stroke-miterlimit:2.5797;}
	
		.st20{clip-path:url(#SVGID_00000071544642367286755080000008882156165732929698_);fill:none;stroke:#FFFFFF;stroke-width:0.9873;stroke-miterlimit:2.5797;}
	
		.st21{clip-path:url(#SVGID_00000018221930109036834310000009380239759546976181_);fill:none;stroke:#FFFFFF;stroke-width:0.9873;stroke-miterlimit:2.5797;}
	
		.st22{clip-path:url(#SVGID_00000023260356163646833830000010010071979174538673_);fill:none;stroke:#FFFFFF;stroke-width:0.9873;stroke-miterlimit:2.5797;}
	
		.st23{clip-path:url(#SVGID_00000098924925171399925140000014240790369853593989_);fill:none;stroke:#FFFFFF;stroke-width:0.9873;stroke-miterlimit:2.5797;}
	
		.st24{clip-path:url(#SVGID_00000170273897946650653940000009863242206256276365_);fill:none;stroke:#FFFFFF;stroke-width:0.9873;stroke-miterlimit:2.5797;}
	
		.st25{clip-path:url(#SVGID_00000120559236614428607070000002610831743124063872_);fill:none;stroke:#FFFFFF;stroke-width:0.9873;stroke-miterlimit:2.5797;}
	
		.st26{clip-path:url(#SVGID_00000018217575881577218610000000585970011608608439_);fill:none;stroke:#FFFFFF;stroke-width:0.9873;stroke-miterlimit:2.5797;}
	
		.st27{clip-path:url(#SVGID_00000128474541601873099820000004158544546374665917_);fill:none;stroke:#FFFFFF;stroke-width:0.9873;stroke-miterlimit:2.5797;}
	
		.st28{clip-path:url(#SVGID_00000094595525778823640750000005106472245613418429_);fill:none;stroke:#FFFFFF;stroke-width:0.9873;stroke-miterlimit:2.5797;}
	
		.st29{clip-path:url(#SVGID_00000087392334510893099470000013639018271673256620_);fill:none;stroke:#FFFFFF;stroke-width:0.9873;stroke-miterlimit:2.5797;}
	
		.st30{clip-path:url(#SVGID_00000021096822876834097500000013311775875853496508_);fill:none;stroke:#FFFFFF;stroke-width:0.9873;stroke-miterlimit:2.5797;}
	.st31{fill:#E3000F;}
	.st32{fill:none;stroke:#038137;stroke-width:34.5531;stroke-miterlimit:2.5797;}
	.st33{enable-background:new    ;}
	.st34{fill:#FFFFFF;}
	.st35{fill:#038137;}
</style>
<g>
	<g>
		<g>
			<g>
				<path class="st0" d="M2519.4,1096.8c3.32,32.8,5.11,65.98,5.11,99.54c0,601.19-544.36,1088.72-1215.6,1088.72
					S93.31,1797.53,93.31,1196.35c0-33.57,1.8-66.76,5.11-99.54L2519.4,1096.8L2519.4,1096.8z"/>
				<g>
					<g>
						<g>
							<g>
								<defs>
									<path id="SVGID_1_" d="M2519.4,1096.8c3.32,32.8,5.11,65.98,5.11,99.54c0,601.19-544.36,1088.72-1215.6,1088.72
										S93.31,1797.53,93.31,1196.35c0-33.57,1.8-66.76,5.11-99.54L2519.4,1096.8L2519.4,1096.8z"/>
								</defs>
								<clipPath id="SVGID_00000019647333700915930470000009803199550921145219_">
									<use xlink:href="#SVGID_1_"  style="overflow:visible;"/>
								</clipPath>
								
									<rect x="32.29" y="1043.11" style="clip-path:url(#SVGID_00000019647333700915930470000009803199550921145219_);fill-rule:evenodd;clip-rule:evenodd;fill:#038137;" width="2704.8" height="433.44"/>
							</g>
						</g>
					</g>
					<g>
						<g>
							<g>
								<defs>
									<path id="SVGID_00000074420834011105076170000010044531058632396950_" d="M2519.4,1096.8c3.32,32.8,5.11,65.98,5.11,99.54
										c0,601.19-544.36,1088.72-1215.6,1088.72S93.31,1797.53,93.31,1196.35c0-33.57,1.8-66.76,5.11-99.54L2519.4,1096.8
										L2519.4,1096.8z"/>
								</defs>
								<clipPath id="SVGID_00000054267000469163363180000015248681897306255531_">
									<use xlink:href="#SVGID_00000074420834011105076170000010044531058632396950_"  style="overflow:visible;"/>
								</clipPath>
								
									<path style="clip-path:url(#SVGID_00000054267000469163363180000015248681897306255531_);fill-rule:evenodd;clip-rule:evenodd;fill:#FFFFFF;" d="
									M853.32,1715.63l37.34-13.14c194.67,55.96,316.65,156.47,418.25,269.45c101.62-112.99,223.58-213.49,418.25-269.45
									l37.34,13.14c-175.44,39.34-320.16,131.42-436.9,271.53c97.65-70.11,179.51-189.16,542.17-246.71l55.45,30.22
									c-265.79,6.26-427.21,118.21-579.78,239.11c229.15-153.23,465.63-218.83,709.45-196.8l33.85,67.26
									c-256.59-18.63-491.25,72.22-713.59,224.47l-21.77,43.09l-44.48,0.37l-44.48-0.37l-21.77-43.09
									c-222.35-152.25-457-243.1-713.59-224.47l33.85-67.26c243.82-22.03,480.3,43.58,709.45,196.8
									c-152.57-120.9-313.99-232.84-579.78-239.11l55.45-30.22c362.66,57.55,444.52,176.6,542.17,246.71
									C1173.48,1847.06,1028.76,1754.97,853.32,1715.63"/>
							</g>
						</g>
					</g>
					<g>
						<g>
							<g>
								<defs>
									<path id="SVGID_00000099625227282455976190000012461893899652693905_" d="M2519.4,1096.8c3.32,32.8,5.11,65.98,5.11,99.54
										c0,601.19-544.36,1088.72-1215.6,1088.72S93.31,1797.53,93.31,1196.35c0-33.57,1.8-66.76,5.11-99.54L2519.4,1096.8
										L2519.4,1096.8z"/>
								</defs>
								<clipPath id="SVGID_00000183239419666571132480000010208150409420573104_">
									<use xlink:href="#SVGID_00000099625227282455976190000012461893899652693905_"  style="overflow:visible;"/>
								</clipPath>
								
									<line style="clip-path:url(#SVGID_00000183239419666571132480000010208150409420573104_);fill:none;stroke:#FFFFFF;stroke-width:0.9873;stroke-miterlimit:2.5797;" x1="1308.92" y1="1732.25" x2="1308.92" y2="1579.42"/>
							</g>
						</g>
					</g>
					<g>
						<g>
							<g>
								<defs>
									<path id="SVGID_00000132085640039844362040000017781055545324603305_" d="M2519.4,1096.8c3.32,32.8,5.11,65.98,5.11,99.54
										c0,601.19-544.36,1088.72-1215.6,1088.72S93.31,1797.53,93.31,1196.35c0-33.57,1.8-66.76,5.11-99.54L2519.4,1096.8
										L2519.4,1096.8z"/>
								</defs>
								<clipPath id="SVGID_00000075845810886813630350000007902730041702565554_">
									<use xlink:href="#SVGID_00000132085640039844362040000017781055545324603305_"  style="overflow:visible;"/>
								</clipPath>
								
									<line style="clip-path:url(#SVGID_00000075845810886813630350000007902730041702565554_);fill:none;stroke:#FFFFFF;stroke-width:0.9873;stroke-miterlimit:2.5797;" x1="1308.92" y1="1732.25" x2="1367.28" y2="1588.64"/>
							</g>
						</g>
					</g>
					<g>
						<g>
							<g>
								<defs>
									<path id="SVGID_00000051366609957495962920000017206967323882841235_" d="M2519.4,1096.8c3.32,32.8,5.11,65.98,5.11,99.54
										c0,601.19-544.36,1088.72-1215.6,1088.72S93.31,1797.53,93.31,1196.35c0-33.57,1.8-66.76,5.11-99.54L2519.4,1096.8
										L2519.4,1096.8z"/>
								</defs>
								<clipPath id="SVGID_00000168108491430714183020000007158245374276264834_">
									<use xlink:href="#SVGID_00000051366609957495962920000017206967323882841235_"  style="overflow:visible;"/>
								</clipPath>
								
									<line style="clip-path:url(#SVGID_00000168108491430714183020000007158245374276264834_);fill:none;stroke:#FFFFFF;stroke-width:0.9873;stroke-miterlimit:2.5797;" x1="1308.92" y1="1732.25" x2="1418.61" y2="1615.17"/>
							</g>
						</g>
					</g>
					<g>
						<g>
							<g>
								<defs>
									<path id="SVGID_00000134226752063033898790000011764913785693214602_" d="M2519.4,1096.8c3.32,32.8,5.11,65.98,5.11,99.54
										c0,601.19-544.36,1088.72-1215.6,1088.72S93.31,1797.53,93.31,1196.35c0-33.57,1.8-66.76,5.11-99.54L2519.4,1096.8
										L2519.4,1096.8z"/>
								</defs>
								<clipPath id="SVGID_00000073000049633872854690000018257290673348107158_">
									<use xlink:href="#SVGID_00000134226752063033898790000011764913785693214602_"  style="overflow:visible;"/>
								</clipPath>
								
									<line style="clip-path:url(#SVGID_00000073000049633872854690000018257290673348107158_);fill:none;stroke:#FFFFFF;stroke-width:0.9873;stroke-miterlimit:2.5797;" x1="1308.92" y1="1732.25" x2="1456.7" y2="1655.84"/>
							</g>
						</g>
					</g>
					<g>
						<g>
							<g>
								<defs>
									<path id="SVGID_00000153700388714198308990000013690064706475538844_" d="M2519.4,1096.8c3.32,32.8,5.11,65.98,5.11,99.54
										c0,601.19-544.36,1088.72-1215.6,1088.72S93.31,1797.53,93.31,1196.35c0-33.57,1.8-66.76,5.11-99.54L2519.4,1096.8
										L2519.4,1096.8z"/>
								</defs>
								<clipPath id="SVGID_00000047019748614780323300000016460679844485471891_">
									<use xlink:href="#SVGID_00000153700388714198308990000013690064706475538844_"  style="overflow:visible;"/>
								</clipPath>
								
									<line style="clip-path:url(#SVGID_00000047019748614780323300000016460679844485471891_);fill:none;stroke:#FFFFFF;stroke-width:0.9873;stroke-miterlimit:2.5797;" x1="1308.92" y1="1732.25" x2="1476.96" y2="1705.71"/>
							</g>
						</g>
					</g>
					<g>
						<g>
							<g>
								<defs>
									<path id="SVGID_00000072263330187843478370000010638101807958802822_" d="M2519.4,1096.8c3.32,32.8,5.11,65.98,5.11,99.54
										c0,601.19-544.36,1088.72-1215.6,1088.72S93.31,1797.53,93.31,1196.35c0-33.57,1.8-66.76,5.11-99.54L2519.4,1096.8
										L2519.4,1096.8z"/>
								</defs>
								<clipPath id="SVGID_00000078040202965928563090000004676504175109653385_">
									<use xlink:href="#SVGID_00000072263330187843478370000010638101807958802822_"  style="overflow:visible;"/>
								</clipPath>
								
									<line style="clip-path:url(#SVGID_00000078040202965928563090000004676504175109653385_);fill:none;stroke:#FFFFFF;stroke-width:0.9873;stroke-miterlimit:2.5797;" x1="1308.92" y1="1732.25" x2="1250.55" y2="1588.64"/>
							</g>
						</g>
					</g>
					<g>
						<g>
							<g>
								<defs>
									<path id="SVGID_00000111897230798561845090000009071967353898865295_" d="M2519.4,1096.8c3.32,32.8,5.11,65.98,5.11,99.54
										c0,601.19-544.36,1088.72-1215.6,1088.72S93.31,1797.53,93.31,1196.35c0-33.57,1.8-66.76,5.11-99.54L2519.4,1096.8
										L2519.4,1096.8z"/>
								</defs>
								<clipPath id="SVGID_00000065071196108025844520000011720070363516349088_">
									<use xlink:href="#SVGID_00000111897230798561845090000009071967353898865295_"  style="overflow:visible;"/>
								</clipPath>
								
									<line style="clip-path:url(#SVGID_00000065071196108025844520000011720070363516349088_);fill:none;stroke:#FFFFFF;stroke-width:0.9873;stroke-miterlimit:2.5797;" x1="1308.92" y1="1732.25" x2="1199.22" y2="1615.17"/>
							</g>
						</g>
					</g>
					<g>
						<g>
							<g>
								<defs>
									<path id="SVGID_00000123422600257813466030000003965414165692342674_" d="M2519.4,1096.8c3.32,32.8,5.11,65.98,5.11,99.54
										c0,601.19-544.36,1088.72-1215.6,1088.72S93.31,1797.53,93.31,1196.35c0-33.57,1.8-66.76,5.11-99.54L2519.4,1096.8
										L2519.4,1096.8z"/>
								</defs>
								<clipPath id="SVGID_00000081649410943671280040000015740974128834947259_">
									<use xlink:href="#SVGID_00000123422600257813466030000003965414165692342674_"  style="overflow:visible;"/>
								</clipPath>
								
									<line style="clip-path:url(#SVGID_00000081649410943671280040000015740974128834947259_);fill:none;stroke:#FFFFFF;stroke-width:0.9873;stroke-miterlimit:2.5797;" x1="1308.92" y1="1732.25" x2="1161.14" y2="1655.84"/>
							</g>
						</g>
					</g>
					<g>
						<g>
							<g>
								<defs>
									<path id="SVGID_00000116917120112283718570000000815870261391649465_" d="M2519.4,1096.8c3.32,32.8,5.11,65.98,5.11,99.54
										c0,601.19-544.36,1088.72-1215.6,1088.72S93.31,1797.53,93.31,1196.35c0-33.57,1.8-66.76,5.11-99.54L2519.4,1096.8
										L2519.4,1096.8z"/>
								</defs>
								<clipPath id="SVGID_00000124845104093484834290000010715024690876762520_">
									<use xlink:href="#SVGID_00000116917120112283718570000000815870261391649465_"  style="overflow:visible;"/>
								</clipPath>
								
									<line style="clip-path:url(#SVGID_00000124845104093484834290000010715024690876762520_);fill:none;stroke:#FFFFFF;stroke-width:0.9873;stroke-miterlimit:2.5797;" x1="1308.92" y1="1732.25" x2="1140.86" y2="1705.71"/>
							</g>
						</g>
					</g>
					<g>
						<g>
							<g>
								<defs>
									<path id="SVGID_00000047047239731214771150000009780387875146102709_" d="M2519.4,1096.8c3.32,32.8,5.11,65.98,5.11,99.54
										c0,601.19-544.36,1088.72-1215.6,1088.72S93.31,1797.53,93.31,1196.35c0-33.57,1.8-66.76,5.11-99.54L2519.4,1096.8
										L2519.4,1096.8z"/>
								</defs>
								<clipPath id="SVGID_00000026156371808596891820000002216963340192685451_">
									<use xlink:href="#SVGID_00000047047239731214771150000009780387875146102709_"  style="overflow:visible;"/>
								</clipPath>
								
									<path style="clip-path:url(#SVGID_00000026156371808596891820000002216963340192685451_);fill-rule:evenodd;clip-rule:evenodd;fill:#FCBC00;" d="
									M1307.13,1684.12c31.45,0,56.95,32.07,56.95,71.62c0,39.56-25.5,71.62-56.95,71.62s-56.95-32.07-56.95-71.62
									C1250.17,1716.19,1275.68,1684.12,1307.13,1684.12"/>
							</g>
						</g>
					</g>
					<g>
						<g>
							<g>
								<defs>
									<path id="SVGID_00000103947908167940486610000005590811695977371829_" d="M2519.4,1096.8c3.32,32.8,5.11,65.98,5.11,99.54
										c0,601.19-544.36,1088.72-1215.6,1088.72S93.31,1797.53,93.31,1196.35c0-33.57,1.8-66.76,5.11-99.54L2519.4,1096.8
										L2519.4,1096.8z"/>
								</defs>
								<clipPath id="SVGID_00000005250969958699247370000010745732742143651742_">
									<use xlink:href="#SVGID_00000103947908167940486610000005590811695977371829_"  style="overflow:visible;"/>
								</clipPath>
								
									<path style="clip-path:url(#SVGID_00000005250969958699247370000010745732742143651742_);fill-rule:evenodd;clip-rule:evenodd;fill:#FFFFFF;" d="
									M1301.24,1841.61v-9.76c-26.43,1.78-39.67,5.58-39.67,11.34c0,2.56,4.53,4.92,13.53,7.08c9,2.17,18.82,3.29,29.57,3.29
									c15.45,0,27.02-0.92,34.78-2.7c7.67-1.77,11.56-4.39,11.56-7.86c0-5.51-13.1-9.24-39.23-11.15v9.76L1301.24,1841.61
									L1301.24,1841.61L1301.24,1841.61z M1304.32,1714.3c-1.61,6.95-6.89,16.98-15.88,30.16l-4.77,7.08
									c-7.68,11.54-11.57,20.26-11.57,26.16c0,6.49,3.15,12.13,9.44,16.78c6.3,4.66,13.84,7.01,22.55,7.01
									c9.45,0,17.5-2.95,24.16-8.9c6.65-5.97,9.96-13.18,9.96-21.64C1338.2,1751.88,1326.92,1732.99,1304.32,1714.3z
									 M1311.78,1809.56v12.12c22.77,1.9,37.27,5.31,43.56,10.11c6.29,4.78,9.45,14.74,9.45,29.82v79.7h-10.69v-87.96
									c-5.56,3.22-12.37,5.64-20.27,7.21c-7.99,1.64-17.06,2.42-27.39,2.42c-10.17,0-19.18-0.78-27.15-2.42
									c-7.91-1.58-14.79-4-20.49-7.21v87.96h-10.54v-79.51c0-11.87,0.59-19.4,1.84-22.42c1.24-3.09,4.76-6.03,10.61-8.86
									c8.92-4.39,22.4-7.34,40.62-8.86v-12.12c-12-0.65-21.66-4-28.91-9.97c-7.25-6.03-10.83-13.57-10.83-22.69
									c0-9.82,4.68-20.71,13.98-32.65l5.35-7.07c9.6-12.32,14.41-22.88,14.41-31.73c0-1.64-0.29-3.99-0.87-7.08
									c36.3,18.42,54.46,41.83,54.46,70.08c0,10.62-3.08,19.4-9.22,26.23C1333.52,1801.49,1324.22,1806.48,1311.78,1809.56z"/>
							</g>
						</g>
					</g>
				</g>
				<path class="st0" d="M1308.92,107.63c367.03,0,696.13,145.77,919.04,376.17H389.88C612.79,253.4,941.88,107.63,1308.92,107.63"
					/>
				<g>
					<g>
						<g>
							<g>
								<defs>
									<path id="SVGID_00000114040160043392383090000004584313998791506841_" d="M1308.92,107.63
										c367.03,0,696.13,145.77,919.04,376.17H389.88C612.79,253.4,941.88,107.63,1308.92,107.63"/>
								</defs>
								<clipPath id="SVGID_00000124123552920357514790000009789980292699972248_">
									<use xlink:href="#SVGID_00000114040160043392383090000004584313998791506841_"  style="overflow:visible;"/>
								</clipPath>
								
									<line style="clip-path:url(#SVGID_00000124123552920357514790000009789980292699972248_);fill:none;stroke:#FFFFFF;stroke-width:0.9873;stroke-miterlimit:2.5797;" x1="1308.92" y1="511.8" x2="1308.92" y2="-303.1"/>
							</g>
						</g>
					</g>
					<g>
						<g>
							<g>
								<defs>
									<path id="SVGID_00000146461799882134233080000017247948613825499018_" d="M1308.92,107.63
										c367.03,0,696.13,145.77,919.04,376.17H389.88C612.79,253.4,941.88,107.63,1308.92,107.63"/>
								</defs>
								<clipPath id="SVGID_00000004548616575182295150000016416512099786060219_">
									<use xlink:href="#SVGID_00000146461799882134233080000017247948613825499018_"  style="overflow:visible;"/>
								</clipPath>
								
									<line style="clip-path:url(#SVGID_00000004548616575182295150000016416512099786060219_);fill:none;stroke:#FFFFFF;stroke-width:0.9873;stroke-miterlimit:2.5797;" x1="1308.92" y1="511.8" x2="1466.92" y2="-290.72"/>
							</g>
						</g>
					</g>
					<g>
						<g>
							<g>
								<defs>
									<path id="SVGID_00000179643569801914178470000005384383334656144513_" d="M1308.92,107.63
										c367.03,0,696.13,145.77,919.04,376.17H389.88C612.79,253.4,941.88,107.63,1308.92,107.63"/>
								</defs>
								<clipPath id="SVGID_00000090995496848665528580000016075186134347206018_">
									<use xlink:href="#SVGID_00000179643569801914178470000005384383334656144513_"  style="overflow:visible;"/>
								</clipPath>
								
									<line style="clip-path:url(#SVGID_00000090995496848665528580000016075186134347206018_);fill:none;stroke:#FFFFFF;stroke-width:0.9873;stroke-miterlimit:2.5797;" x1="1308.92" y1="511.8" x2="1620.12" y2="-253.96"/>
							</g>
						</g>
					</g>
					<g>
						<g>
							<g>
								<defs>
									<path id="SVGID_00000045579315806995136470000002964565090016177287_" d="M1308.92,107.63
										c367.03,0,696.13,145.77,919.04,376.17H389.88C612.79,253.4,941.88,107.63,1308.92,107.63"/>
								</defs>
								<clipPath id="SVGID_00000049193793429209386140000003845975648930103476_">
									<use xlink:href="#SVGID_00000045579315806995136470000002964565090016177287_"  style="overflow:visible;"/>
								</clipPath>
								
									<line style="clip-path:url(#SVGID_00000049193793429209386140000003845975648930103476_);fill:none;stroke:#FFFFFF;stroke-width:0.9873;stroke-miterlimit:2.5797;" x1="1308.93" y1="511.8" x2="1763.86" y2="-193.93"/>
							</g>
						</g>
					</g>
					<g>
						<g>
							<g>
								<defs>
									<path id="SVGID_00000013151484069398669080000008627990990050319490_" d="M1308.92,107.63
										c367.03,0,696.13,145.77,919.04,376.17H389.88C612.79,253.4,941.88,107.63,1308.92,107.63"/>
								</defs>
								<clipPath id="SVGID_00000090984552698342771210000014937655205264253832_">
									<use xlink:href="#SVGID_00000013151484069398669080000008627990990050319490_"  style="overflow:visible;"/>
								</clipPath>
								
									<line style="clip-path:url(#SVGID_00000090984552698342771210000014937655205264253832_);fill:none;stroke:#FFFFFF;stroke-width:0.9873;stroke-miterlimit:2.5797;" x1="1308.93" y1="511.81" x2="1893.78" y2="-112.45"/>
							</g>
						</g>
					</g>
					<g>
						<g>
							<g>
								<defs>
									<path id="SVGID_00000170981223897467874110000009776947921470331784_" d="M1308.92,107.63
										c367.03,0,696.13,145.77,919.04,376.17H389.88C612.79,253.4,941.88,107.63,1308.92,107.63"/>
								</defs>
								<clipPath id="SVGID_00000048478362678953336820000003056399192973656747_">
									<use xlink:href="#SVGID_00000170981223897467874110000009776947921470331784_"  style="overflow:visible;"/>
								</clipPath>
								
									<line style="clip-path:url(#SVGID_00000048478362678953336820000003056399192973656747_);fill:none;stroke:#FFFFFF;stroke-width:0.9873;stroke-miterlimit:2.5797;" x1="1308.93" y1="511.81" x2="2005.93" y2="-12.01"/>
							</g>
						</g>
					</g>
					<g>
						<g>
							<g>
								<defs>
									<path id="SVGID_00000115516486761406926810000017144851309352781452_" d="M1308.92,107.63
										c367.03,0,696.13,145.77,919.04,376.17H389.88C612.79,253.4,941.88,107.63,1308.92,107.63"/>
								</defs>
								<clipPath id="SVGID_00000109734963405319138870000000198904723386195900_">
									<use xlink:href="#SVGID_00000115516486761406926810000017144851309352781452_"  style="overflow:visible;"/>
								</clipPath>
								
									<line style="clip-path:url(#SVGID_00000109734963405319138870000000198904723386195900_);fill:none;stroke:#FFFFFF;stroke-width:0.9873;stroke-miterlimit:2.5797;" x1="1308.93" y1="511.81" x2="2096.9" y2="104.36"/>
							</g>
						</g>
					</g>
					<g>
						<g>
							<g>
								<defs>
									<path id="SVGID_00000031183462298883989930000013915988172659980208_" d="M1308.92,107.63
										c367.03,0,696.13,145.77,919.04,376.17H389.88C612.79,253.4,941.88,107.63,1308.92,107.63"/>
								</defs>
								<clipPath id="SVGID_00000052101308986062741000000008581511354719331482_">
									<use xlink:href="#SVGID_00000031183462298883989930000013915988172659980208_"  style="overflow:visible;"/>
								</clipPath>
								
									<line style="clip-path:url(#SVGID_00000052101308986062741000000008581511354719331482_);fill:none;stroke:#FFFFFF;stroke-width:0.9873;stroke-miterlimit:2.5797;" x1="1308.93" y1="511.81" x2="2163.93" y2="233.09"/>
							</g>
						</g>
					</g>
					<g>
						<g>
							<g>
								<defs>
									<path id="SVGID_00000021080061187891456910000007695217535846782853_" d="M1308.92,107.63
										c367.03,0,696.13,145.77,919.04,376.17H389.88C612.79,253.4,941.88,107.63,1308.92,107.63"/>
								</defs>
								<clipPath id="SVGID_00000001638830115234910750000008972137494141627582_">
									<use xlink:href="#SVGID_00000021080061187891456910000007695217535846782853_"  style="overflow:visible;"/>
								</clipPath>
								
									<line style="clip-path:url(#SVGID_00000001638830115234910750000008972137494141627582_);fill:none;stroke:#FFFFFF;stroke-width:0.9873;stroke-miterlimit:2.5797;" x1="1308.93" y1="511.81" x2="2204.98" y2="370.3"/>
							</g>
						</g>
					</g>
					<g>
						<g>
							<g>
								<defs>
									<path id="SVGID_00000169533435975013414400000001903205197828047545_" d="M1308.92,107.63
										c367.03,0,696.13,145.77,919.04,376.17H389.88C612.79,253.4,941.88,107.63,1308.92,107.63"/>
								</defs>
								<clipPath id="SVGID_00000108303837709069604600000000297090206208654012_">
									<use xlink:href="#SVGID_00000169533435975013414400000001903205197828047545_"  style="overflow:visible;"/>
								</clipPath>
								
									<line style="clip-path:url(#SVGID_00000108303837709069604600000000297090206208654012_);fill:none;stroke:#FFFFFF;stroke-width:0.9873;stroke-miterlimit:2.5797;" x1="1308.92" y1="511.8" x2="1150.92" y2="-290.72"/>
							</g>
						</g>
					</g>
					<g>
						<g>
							<g>
								<defs>
									<path id="SVGID_00000091012674712796139300000007054763873584325260_" d="M1308.92,107.63
										c367.03,0,696.13,145.77,919.04,376.17H389.88C612.79,253.4,941.88,107.63,1308.92,107.63"/>
								</defs>
								<clipPath id="SVGID_00000006667049915963649270000018136467708187824539_">
									<use xlink:href="#SVGID_00000091012674712796139300000007054763873584325260_"  style="overflow:visible;"/>
								</clipPath>
								
									<line style="clip-path:url(#SVGID_00000006667049915963649270000018136467708187824539_);fill:none;stroke:#FFFFFF;stroke-width:0.9873;stroke-miterlimit:2.5797;" x1="1308.92" y1="511.8" x2="997.72" y2="-253.96"/>
							</g>
						</g>
					</g>
					<g>
						<g>
							<g>
								<defs>
									<path id="SVGID_00000026162629752711890000000009056980792799106965_" d="M1308.92,107.63
										c367.03,0,696.13,145.77,919.04,376.17H389.88C612.79,253.4,941.88,107.63,1308.92,107.63"/>
								</defs>
								<clipPath id="SVGID_00000098901477189572190420000017579809802677870760_">
									<use xlink:href="#SVGID_00000026162629752711890000000009056980792799106965_"  style="overflow:visible;"/>
								</clipPath>
								
									<line style="clip-path:url(#SVGID_00000098901477189572190420000017579809802677870760_);fill:none;stroke:#FFFFFF;stroke-width:0.9873;stroke-miterlimit:2.5797;" x1="1308.92" y1="511.8" x2="853.98" y2="-193.93"/>
							</g>
						</g>
					</g>
					<g>
						<g>
							<g>
								<defs>
									<path id="SVGID_00000033335609306847792010000015890784318749616771_" d="M1308.92,107.63
										c367.03,0,696.13,145.77,919.04,376.17H389.88C612.79,253.4,941.88,107.63,1308.92,107.63"/>
								</defs>
								<clipPath id="SVGID_00000121239949778431223160000006406238956450779297_">
									<use xlink:href="#SVGID_00000033335609306847792010000015890784318749616771_"  style="overflow:visible;"/>
								</clipPath>
								
									<line style="clip-path:url(#SVGID_00000121239949778431223160000006406238956450779297_);fill:none;stroke:#FFFFFF;stroke-width:0.9873;stroke-miterlimit:2.5797;" x1="1308.92" y1="511.8" x2="724.06" y2="-112.46"/>
							</g>
						</g>
					</g>
					<g>
						<g>
							<g>
								<defs>
									<path id="SVGID_00000031907304444048248780000013833681674778135690_" d="M1308.92,107.63
										c367.03,0,696.13,145.77,919.04,376.17H389.88C612.79,253.4,941.88,107.63,1308.92,107.63"/>
								</defs>
								<clipPath id="SVGID_00000160887603439688859310000004342316846092139424_">
									<use xlink:href="#SVGID_00000031907304444048248780000013833681674778135690_"  style="overflow:visible;"/>
								</clipPath>
								
									<line style="clip-path:url(#SVGID_00000160887603439688859310000004342316846092139424_);fill:none;stroke:#FFFFFF;stroke-width:0.9873;stroke-miterlimit:2.5797;" x1="1308.92" y1="511.8" x2="611.91" y2="-12.01"/>
							</g>
						</g>
					</g>
					<g>
						<g>
							<g>
								<defs>
									<path id="SVGID_00000124162625551228745720000011956324829074113413_" d="M1308.92,107.63
										c367.03,0,696.13,145.77,919.04,376.17H389.88C612.79,253.4,941.88,107.63,1308.92,107.63"/>
								</defs>
								<clipPath id="SVGID_00000128482294388085538950000008566809990833777568_">
									<use xlink:href="#SVGID_00000124162625551228745720000011956324829074113413_"  style="overflow:visible;"/>
								</clipPath>
								
									<line style="clip-path:url(#SVGID_00000128482294388085538950000008566809990833777568_);fill:none;stroke:#FFFFFF;stroke-width:0.9873;stroke-miterlimit:2.5797;" x1="1308.92" y1="511.8" x2="520.93" y2="104.35"/>
							</g>
						</g>
					</g>
					<g>
						<g>
							<g>
								<defs>
									<path id="SVGID_00000098942935327817864600000015770998642095832468_" d="M1308.92,107.63
										c367.03,0,696.13,145.77,919.04,376.17H389.88C612.79,253.4,941.88,107.63,1308.92,107.63"/>
								</defs>
								<clipPath id="SVGID_00000178176527690724116540000004574268878243076503_">
									<use xlink:href="#SVGID_00000098942935327817864600000015770998642095832468_"  style="overflow:visible;"/>
								</clipPath>
								
									<line style="clip-path:url(#SVGID_00000178176527690724116540000004574268878243076503_);fill:none;stroke:#FFFFFF;stroke-width:0.9873;stroke-miterlimit:2.5797;" x1="1308.91" y1="511.8" x2="453.9" y2="233.08"/>
							</g>
						</g>
					</g>
					<g>
						<g>
							<g>
								<defs>
									<path id="SVGID_00000086687568707551965590000018308884074412948395_" d="M1308.92,107.63
										c367.03,0,696.13,145.77,919.04,376.17H389.88C612.79,253.4,941.88,107.63,1308.92,107.63"/>
								</defs>
								<clipPath id="SVGID_00000177471987967260772260000006915859858865925555_">
									<use xlink:href="#SVGID_00000086687568707551965590000018308884074412948395_"  style="overflow:visible;"/>
								</clipPath>
								
									<line style="clip-path:url(#SVGID_00000177471987967260772260000006915859858865925555_);fill:none;stroke:#FFFFFF;stroke-width:0.9873;stroke-miterlimit:2.5797;" x1="1308.91" y1="511.8" x2="412.85" y2="370.3"/>
							</g>
						</g>
					</g>
				</g>
				<path class="st31" d="M2276.15,670.37c-14.06-15.29-28.13-26.24-42.31-33.18c-14.19-6.84-29.69-10.3-46.64-10.3
					c-17.51,0-32.13,4.66-43.75,13.98c-11.75,9.33-17.61,21.04-17.61,35.24c0,12.47,4.09,24.08,12.41,34.92
					c8.18,10.84,23.25,24.39,45.29,40.65c36.11,26.68,62.81,52.82,80.19,78.41c17.4,25.49,26.02,51.51,26.02,78.18
					c0,43.61-15.39,79.92-46.07,108.98c-30.8,28.96-69.23,43.49-115.64,43.49c-23.16,0-42.88-1.53-59.06-4.56
					c-16.27-3.14-35.56-9-57.81-17.68V929.86c15.39,18.43,31.12,31.89,47.3,40.34c16.05,8.46,33.8,12.69,53.05,12.69
					c19.05,0,34.9-5.65,47.42-17.03c12.63-11.27,18.84-25.38,18.84-42.39c0-15.62-5.43-30.59-16.51-44.79
					c-10.73-13.87-30.9-31.66-60.26-53.35c-29.69-21.8-51.62-43.59-65.91-65.39c-14.07-21.8-21.16-44.78-21.16-68.97
					c0-40.65,15.94-74.49,47.84-101.5c31.92-27,71.9-40.45,119.98-40.45c19.06,0,36.78,1.94,53.18,5.85
					c16.5,3.91,30.24,9.44,41.2,16.38L2276.15,670.37L2276.15,670.37z M1635.53,1053.48c6.54-12.47,11.08-25.81,13.73-40.01
					c2.77-14.21,4.12-32.31,4.12-54.33V650.63c0-22.02-1.33-40.11-4.12-54.33c-2.66-14.21-7.2-27.53-13.73-40h124.63h175.79
					l-22.37,48.9l-22.71,48.91c-20.38-9.33-39.33-15.84-57.17-19.63c-17.72-3.79-38.09-5.76-61.24-5.76h-12.3v136.53h160.18
					l-24.26,45.11l-24.37,45.12c-24.26-7.59-43.19-13.01-56.95-16.16c-13.73-3.14-25.25-4.77-34.55-4.77h-20.04v145.85
					c36.76-1.3,68.56-4.56,95.37-9.87c35.68-6.95,70.68-18.98,104.8-35.91l-24.93,59.43l-25.04,59.42h-150.2L1635.53,1053.48
					L1635.53,1053.48z M1131.5,959.13c0,22.02,1.33,40.13,4.1,54.33c2.66,14.21,7.2,27.54,13.73,40.01h-69.45h-69.8
					c6.55-12.47,11.09-25.81,13.74-40.01c2.77-14.21,4.12-32.31,4.12-54.33V623.96l-60.38-67.67h82.19h82.08
					c1.78,9.33,5.98,19.63,12.63,31.01c6.75,11.27,17.39,26.13,32.13,44.56l114.97,146.08h0.44l116.76-146.08
					c15.07-18.43,26.15-33.29,33.12-44.78c7.09-11.38,11.51-21.68,13.53-30.79h61.92h62.26c-14.97,28.84-25.47,52.37-31.68,70.8
					c-6.09,18.44-9.19,35.68-9.19,51.83v280.21c0,22.02,1.32,40.13,4.1,54.33c2.66,14.21,7.2,27.54,13.73,40.01h-71.12h-71.34
					c6.54-12.47,11.08-25.81,13.73-40.01c2.77-14.21,4.12-32.31,4.12-54.33V742.48h0.32l-150.53,186.74l-150.33-191.5h0.11
					L1131.5,959.13L1131.5,959.13z M799.06,959.13V650.62c0-22.02-1.33-40.11-4.1-54.33c-2.66-14.21-7.21-27.53-13.74-40h71.13
					h71.33c-6.52,12.47-11.08,25.8-13.73,40c-2.76,14.22-4.1,32.31-4.1,54.33v308.51c0,22.24,1.33,40.35,4.1,54.45
					c2.66,14.1,7.21,27.44,13.73,39.9h-71.12h-71.34c6.54-12.47,11.2-25.81,13.96-40.01C797.73,999.49,799.06,981.38,799.06,959.13z
					 M482.34,959.13V629.38c-36.99,0.65-66.47,2.28-88.29,4.77c-31.57,3.58-53.62,9.87-65.92,18.77l11.75-48.36l11.97-48.25h183.78
					H743l-13.29,48.35l-13.63,48.26c-13.18-8.9-30.13-15.17-50.63-18.77c-18.61-3.37-44.09-5.2-76.33-5.42v330.42
					c0,20.72,1.44,38.18,4.43,52.38c2.89,14.21,7.98,28.19,15.41,41.97h-73.11h-73.33c7.42-13.77,12.51-27.76,15.61-41.97
					C480.91,997.32,482.34,979.87,482.34,959.13z"/>
			</g>
			<ellipse class="st32" cx="1308.92" cy="1196.36" rx="1285.9" ry="1154.33"/>
		</g>
		<g class="st33">
			<path class="st34" d="M799.08,1285.98l-4.49,8.16c-4.9,10.35-7.35,20.69-7.35,31.04v46.14c0,10.61,0.4,18.58,1.22,23.89
				c0.82,5.31,2.59,11.5,5.31,18.58l-15.92,5.72c-34.31,11.99-66.56,17.97-96.79,17.97c-47.1,0-84.61-13.68-112.51-41.04
				c-27.91-27.36-41.86-63.36-41.86-108.01c0-43.01,14.97-78.67,44.92-107c29.94-28.31,68.2-42.47,114.76-42.47
				c12.79,0,25.87,1.16,39.2,3.47c13.34,2.32,26.55,5.79,39.61,10.42l9.8,3.67v56.77c-7.35-8.71-16.48-16.74-27.36-24.1
				c-20.15-14.16-40.83-21.24-62.07-21.24c-18.79,0-35.81,5.51-51.05,16.54c-15.25,11.03-26.41,26.13-33.49,45.33
				c-7.08,19.19-10.61,38.19-10.61,56.96c0,35.39,9.39,63.71,28.18,84.94c18.79,21.24,42.74,31.85,71.87,31.85
				c9.53,0,19.87-1.49,31.04-4.49l4.9-1.63l2.45-0.4v-71.87c0-6.26-1.16-12.92-3.48-20.01c-2.32-7.08-5.1-13.48-8.37-19.19
				L799.08,1285.98L799.08,1285.98z"/>
			<path class="st34" d="M1122.5,1435.03h-56.35c-41.93-37.84-76.23-82.36-102.91-133.53v92.3c0,12.53,2.45,23.96,7.35,34.31
				l4.09,6.94h-84.12c4.35-5.44,7.55-11.43,9.6-17.97c2.04-6.54,3.06-14.3,3.06-23.28v-213.58c0-14.97-4.09-28.04-12.25-39.2h82.9
				l18.79,1.22c25.05,3.54,45.46,11.71,61.26,24.5c9.25,7.35,16.34,16.13,21.24,26.34c4.9,10.21,7.35,20.76,7.35,31.65
				c0,13.61-3.67,26.48-11.03,38.59c-7.35,12.11-17.83,21.99-31.44,29.61l-11.85,5.72C1053.76,1348.74,1085.2,1394.2,1122.5,1435.03
				z M1014.69,1252.09c2.99-8.43,4.49-16.34,4.49-23.68c0-13.61-4.28-25.25-12.86-34.92c-8.58-9.67-20.08-15.58-34.5-17.76
				c-2.18-0.54-5.45-0.82-9.8-0.82v111.89l7.35-0.82C993.05,1282.44,1008.15,1271.14,1014.69,1252.09z"/>
			<path class="st34" d="M1475.74,1242.28c4.9,16.88,7.35,33.22,7.35,49.01c0,33.76-10.15,63.78-30.43,90.05
				c-20.29,26.28-47.03,43.64-80.24,52.07c-14.16,3.53-28.45,5.31-42.88,5.31c-35.12,0-65.75-10.54-91.88-31.65
				c-26.13-21.1-43.02-49.2-50.64-84.33c-2.72-10.89-4.09-22.46-4.09-34.71c0-43.56,14.09-79.56,42.26-108.01
				c28.18-28.44,63.36-42.68,105.57-42.68c13.07,0,26.55,1.63,40.43,4.9c25.32,5.72,47.17,17.36,65.54,34.92
				C1455.12,1194.71,1468.12,1216.42,1475.74,1242.28z M1415.71,1346.01c2.99-14.16,4.49-28.72,4.49-43.7c0-21.5-3.2-40.5-9.6-56.96
				c-6.4-16.47-15.73-30.55-27.97-42.26c-9.54-8.98-20.36-15.79-32.47-20.42c-12.11-4.63-24.03-6.94-35.73-6.94
				c-13.88,0-26.13,2.86-36.75,8.58c-10.62,5.72-17.63,13.14-21.03,22.25c-3.41,9.12-5.99,18.18-7.76,27.16
				c-1.78,8.98-2.66,19.87-2.66,32.67c0,3.82,0,7.42,0,10.82c0,3.41,0.27,7.42,0.82,12.04c2.45,21.79,7.97,40.22,16.54,55.33
				c8.58,15.11,20.22,27.7,34.92,37.77c10.07,6.81,19.73,11.71,29,14.7c9.25,3,18.51,4.49,27.77,4.49c12.52,0,23.41-2.79,32.67-8.37
				c9.25-5.58,15.92-13.13,20.01-22.67C1410.95,1363.16,1413.52,1355,1415.71,1346.01z"/>
			<path class="st34" d="M1823.26,1141l-4.09,6.94c-4.9,10.35-7.35,21.24-7.35,32.67v213.17c0,15.8,3.53,29.54,10.61,41.25h-73.09
				c2.71-6.54,4.09-13.61,4.09-21.24c0-1.63,0-4.09,0-7.35c-9.26,8.98-20.76,16.48-34.5,22.46c-13.75,5.99-28.12,8.98-43.08,8.98
				c-23.14,0-43.08-7.01-59.83-21.03c-16.74-14.02-26.62-32.19-29.61-54.52c-0.55-4.09-0.96-8.1-1.22-12.04
				c-0.28-3.95-0.4-8.51-0.4-13.68v-156.41c0-14.42-3.95-27.49-11.85-39.2h83.72c-3,4.9-5.31,9.67-6.94,14.3
				c-3,8.44-4.49,16.74-4.49,24.91v166.62c0,16.06,4.22,28.73,12.66,37.98c8.43,9.26,19.87,13.88,34.31,13.88
				c2.17,0,4.63-0.21,7.35-0.61c2.71-0.4,4.9-0.75,6.54-1.02c10.07-2.17,18.51-5.98,25.32-11.43
				c13.34-10.35,20.01-20.28,20.01-29.81v-175.19c0-10.89-2.59-21.78-7.76-32.67l-4.09-6.94L1823.26,1141L1823.26,1141z"/>
			<path class="st34" d="M2085.84,1174.01c11.43,13.85,17.15,30.01,17.15,48.48c0,14.13-3.27,27.3-9.8,39.52
				c-6.54,12.22-15.92,22.13-28.18,29.74c-8.44,4.89-18.24,8.76-29.4,11.61c-11.17,2.85-24.24,4.27-39.2,4.27h-6.94v86.17
				c0,16.61,3.67,30.36,11.03,41.25h-84.12l4.9-6.54c2.99-4.63,5.03-9.25,6.13-13.88c1.09-4.63,1.63-11.57,1.63-20.83v-213.58
				c0-15.52-4.09-28.59-12.25-39.2h79.63c21.24,0,39.2,2.78,53.9,8.35C2065.01,1154.93,2076.86,1163.14,2085.84,1174.01z
				 M2040.51,1231.26c0-24.77-8.58-42.07-25.73-51.86c-8.44-4.63-17.42-6.54-26.95-5.72v119.65c5.72,0,11.43-0.82,17.15-2.45
				c10.89-3.53,19.53-10.47,25.93-20.83C2037.31,1259.71,2040.51,1246.78,2040.51,1231.26z"/>
		</g>
	</g>
	<g class="st33">
		<path class="st35" d="M3110.62,620.45v109.58h-10.75c-6.37-25.28-13.44-43.45-21.2-54.5c-7.76-11.05-18.42-19.85-31.95-26.43
			c-7.57-3.57-20.8-5.38-39.71-5.38h-30.16v312.32c0,20.71,1.14,33.64,3.43,38.82c2.29,5.17,6.77,9.69,13.44,13.58
			s15.78,5.82,27.32,5.82h13.44v11.05h-211.99v-11.05h13.44c11.74,0,21.2-2.08,28.37-6.27c5.17-2.78,9.25-7.57,12.24-14.32
			c2.19-4.78,3.28-17.31,3.28-37.62V643.73h-29.25c-27.28,0-47.08,5.78-59.41,17.31c-17.31,16.13-28.26,39.11-32.85,68.98h-11.35
			V620.43h363.67L3110.62,620.45L3110.62,620.45z"/>
		<path class="st35" d="M3368.27,1014.28v11.05h-211.69v-11.05h13.44c11.74,0,21.2-2.08,28.37-6.27c5.17-2.78,9.15-7.57,11.95-14.32
			c2.19-4.78,3.28-17.31,3.28-37.62V689.71c0-20.69-1.1-33.64-3.28-38.82c-2.19-5.17-6.62-9.69-13.29-13.58s-15.67-5.82-27.02-5.82
			h-13.44v-11.05h211.69v11.05h-13.44c-11.75,0-21.2,2.08-28.37,6.27c-5.17,2.79-9.25,7.57-12.24,14.32
			c-2.19,4.78-3.28,17.31-3.28,37.62v266.35c0,20.71,1.14,33.64,3.43,38.82c2.29,5.17,6.77,9.69,13.44,13.58s15.67,5.82,27.02,5.82
			L3368.27,1014.28L3368.27,1014.28z"/>
		<path class="st35" d="M3685.34,887.38l109.88-266.94h164.82v11.05h-13.14c-11.95,0-21.49,2.08-28.66,6.27
			c-4.99,2.79-8.95,7.46-11.95,14.03c-2.19,4.78-3.28,17.23-3.28,37.33v266.94c0,20.71,1.1,33.64,3.28,38.82
			c2.19,5.17,6.66,9.69,13.44,13.58c6.77,3.89,15.84,5.82,27.17,5.82h13.14v11.05h-211.4v-11.05h13.14
			c11.95,0,21.49-2.08,28.67-6.27c4.97-2.78,8.95-7.57,11.95-14.32c2.19-4.78,3.28-17.31,3.28-37.62V655.97l-155.26,369.35h-7.17
			l-157.65-366.67v285.15c0,19.91,0.48,32.15,1.49,36.73c2.59,9.96,8.2,18.07,16.87,24.34c8.67,6.27,22.25,9.4,40.75,9.4v11.05
			h-138.55v-11.05h4.19c8.95,0.21,17.31-1.24,25.09-4.33c7.76-3.09,13.63-7.22,17.62-12.39c3.98-5.17,7.07-12.43,9.25-21.79
			c0.39-2.19,0.59-12.34,0.59-30.46V689.12c0-20.5-1.1-33.29-3.28-38.36c-2.19-5.07-6.66-9.55-13.44-13.44
			c-6.77-3.89-15.84-5.82-27.17-5.82h-12.83v-11.05h165.42L3685.34,887.38z"/>
		<path class="st35" d="M4149.32,643.73v164.82h8.06c25.68,0,44.29-8.06,55.84-24.19c11.55-16.13,18.91-39.91,22.1-71.36h11.33V925
			h-11.33c-2.4-23.09-7.42-42-15.08-56.74c-7.66-14.72-16.58-24.63-26.72-29.72c-10.16-5.08-24.88-7.61-44.19-7.61V945
			c0,22.29,0.95,35.94,2.84,40.9c1.9,4.99,5.43,9.06,10.6,12.24c5.17,3.19,13.54,4.78,25.09,4.78h24.19
			c37.81,0,68.12-8.75,90.91-26.27c22.79-17.52,39.16-44.19,49.12-80.03h11.05l-18.21,128.69h-349.95v-11.05h13.44
			c11.74,0,21.2-2.08,28.37-6.27c5.17-2.78,9.15-7.57,11.95-14.32c2.19-4.78,3.28-17.31,3.28-37.62V689.71
			c0-18.31-0.5-29.57-1.49-33.73c-1.99-6.96-5.68-12.34-11.05-16.13c-7.57-5.58-17.92-8.37-31.06-8.37h-13.44v-11.05h338.89v119.73
			h-11.33c-5.78-29.25-13.88-50.26-24.33-63.01s-25.23-22.1-44.34-28.08c-11.15-3.57-32.05-5.38-62.71-5.38h-41.81v0.04H4149.32z"/>
		<path class="st35" d="M4689.45,611.18l3.28,134.96h-12.24c-5.79-33.84-19.96-61.05-42.55-81.66
			c-22.59-20.6-47.02-30.91-73.29-30.91c-20.3,0-36.38,5.43-48.23,16.28c-11.84,10.85-17.77,23.34-17.77,37.48
			c0,8.95,2.08,16.93,6.27,23.89c5.77,9.36,15.04,18.61,27.76,27.76c9.36,6.57,30.96,18.21,64.79,34.93
			c47.37,23.28,79.32,45.28,95.84,66c16.32,20.71,24.48,44.4,24.48,71.06c0,33.84-13.19,62.97-39.56,87.34
			c-26.37,24.39-59.88,36.58-100.48,36.58c-12.75,0-24.78-1.3-36.13-3.87c-11.33-2.59-25.58-7.46-42.7-14.63
			c-9.55-3.98-17.42-5.97-23.6-5.97c-5.17,0-10.66,1.99-16.43,5.97c-5.78,3.99-10.46,10.05-14.03,18.21h-11.05V881.72h11.05
			c8.75,42.99,25.62,75.79,50.62,98.38c24.99,22.59,51.91,33.88,80.76,33.88c22.29,0,40.06-6.07,53.29-18.21
			c13.23-12.13,19.85-26.27,19.85-42.4c0-9.55-2.55-18.81-7.61-27.76c-5.07-8.95-12.78-17.47-23.13-25.53
			c-10.35-8.06-28.67-18.55-54.93-31.5c-36.82-18.11-63.3-33.55-79.43-46.28c-16.13-12.74-28.52-26.96-37.18-42.7
			c-8.67-15.73-12.99-33.04-12.99-51.95c0-32.24,11.84-59.73,35.54-82.41c23.68-22.7,53.55-34.05,89.57-34.05
			c13.14,0,25.87,1.6,38.22,4.78c9.36,2.4,20.75,6.81,34.2,13.29c13.44,6.48,22.85,9.69,28.23,9.69c5.17,0,9.25-1.6,12.24-4.78
			c2.98-3.18,5.77-10.85,8.37-22.98L4689.45,611.18L4689.45,611.18z"/>
		<path class="st35" d="M5340.3,611.18v142.73h-11.05c-13.34-39.02-33.34-68.68-60.02-88.98c-26.68-20.3-55.84-30.46-87.49-30.46
			c-30.26,0-55.43,8.52-75.54,25.53c-20.11,17.01-34.35,40.75-42.7,71.21c-8.35,30.46-12.54,61.7-12.54,93.76
			c0,38.82,4.58,72.85,13.73,102.12c9.15,29.25,23.93,50.76,44.34,64.5c20.4,13.73,44.64,20.6,72.7,20.6
			c9.75,0,19.75-1.05,30.01-3.13c10.25-2.08,20.75-5.11,31.5-9.1v-84.2c0-15.92-1.1-26.22-3.28-30.9
			c-2.19-4.67-6.71-8.89-13.58-12.69s-15.18-5.68-24.94-5.68h-10.45v-11.05h196.77v11.05c-14.93,1.01-25.34,3.03-31.21,6.12
			c-5.87,3.09-10.41,8.2-13.58,15.37c-1.79,3.78-2.69,13.04-2.69,27.76v84.2c-25.89,11.55-52.81,20.25-80.76,26.12
			c-27.97,5.86-56.99,8.81-87.04,8.81c-38.42,0-70.32-5.22-95.69-15.67c-25.37-10.45-47.78-24.19-67.19-41.2
			c-19.41-17.02-34.59-36.17-45.53-57.48c-13.94-27.46-20.9-58.23-20.9-92.26c0-60.9,21.39-112.37,64.2-154.36
			c42.8-42,96.64-63.01,161.53-63.01c20.11,0,38.22,1.6,54.35,4.78c8.75,1.6,22.94,6.12,42.55,13.58
			c19.61,7.46,31.21,11.2,34.78,11.2c5.58,0,10.75-2.04,15.52-6.12c4.78-4.08,9.15-11.8,13.14-23.13h11.06v-0.04H5340.3z"/>
		<path class="st35" d="M5568.1,840.81v113.46c0,21.9,1.34,35.69,4.04,41.35c2.7,5.67,7.4,10.2,14.18,13.58
			c6.77,3.39,19.41,5.07,37.92,5.07v11.05h-207.21v-11.05c18.72,0,31.4-1.75,38.07-5.22c6.66-3.48,11.34-8.02,14.03-13.58
			c2.7-5.58,4.04-19.31,4.04-41.2V691.52c0-21.9-1.34-35.69-4.04-41.35c-2.7-5.68-7.42-10.2-14.18-13.58
			c-6.77-3.39-19.41-5.07-37.92-5.07v-11.05h188.12c48.97,0,84.79,3.39,107.49,10.16c22.7,6.77,41.2,19.26,55.54,37.48
			c14.32,18.21,21.49,39.56,21.49,64.04c0,29.86-10.75,54.55-32.24,74.05c-13.73,12.34-32.95,21.6-57.62,27.76l97.33,137.06
			c12.75,17.72,21.79,28.77,27.17,33.14c8.16,6.18,17.62,9.55,28.37,10.16v11.05h-127.49L5594.7,840.83h-26.6L5568.1,840.81
			L5568.1,840.81z M5568.1,642.24V819.6h17.01c27.66,0,48.37-2.55,62.11-7.61c13.73-5.07,24.52-14.23,32.39-27.46
			c7.87-13.23,11.8-30.5,11.8-51.8c0-30.85-7.22-53.65-21.64-68.38c-14.42-14.72-37.66-22.1-69.72-22.1H5568.1L5568.1,642.24z"/>
		<path class="st35" d="M6095.08,614.78c64.5-2.4,116.89,16.43,157.21,56.43c40.31,40.02,60.46,90.08,60.46,150.18
			c0,51.36-15.04,96.55-45.09,135.56c-39.81,51.76-96.05,77.63-168.71,77.63c-72.85,0-129.19-24.69-169-74.05
			c-31.46-39.02-47.17-85.3-47.17-138.84c0-60.11,20.46-110.22,61.37-150.35C5985.06,631.24,6035.36,612.38,6095.08,614.78z
			 M6098.67,633.88c-37.03,0-65.2,18.91-84.5,56.74c-15.73,31.06-23.59,75.64-23.59,133.77c0,69.08,12.13,120.13,36.43,153.17
			c16.91,23.09,40.6,34.63,71.06,34.63c20.5,0,37.62-4.97,51.36-14.93c17.51-12.75,31.15-33.08,40.9-61.05s14.63-64.44,14.63-109.43
			c0-53.55-4.99-93.61-14.93-120.19c-9.95-26.58-22.65-45.34-38.07-56.28C6136.54,639.36,6118.77,633.88,6098.67,633.88z"/>
		<path class="st35" d="M6360.5,620.45h209.01v11.05h-10.46c-15.73,0-26.52,1.64-32.39,4.93c-5.86,3.28-10.05,7.82-12.54,13.58
			c-2.5,5.78-3.72,20.21-3.72,43.3v198.26c0,36.23,2.73,60.21,8.2,71.96c5.47,11.75,14.48,21.49,27.02,29.25
			s28.37,11.65,47.47,11.65c21.9,0,40.55-4.93,55.99-14.78c15.42-9.86,26.96-23.43,34.64-40.75c7.66-17.31,11.5-47.47,11.5-90.47
			V693.3c0-18.11-1.9-31.05-5.68-38.82c-3.78-7.76-8.56-13.14-14.34-16.13c-8.95-4.58-21.6-6.87-37.92-6.87v-11.05h140.04v11.05
			h-8.37c-11.34,0-20.8,2.29-28.37,6.87c-7.57,4.58-13.04,11.44-16.43,20.6c-2.59,6.37-3.89,17.81-3.89,34.35v153.77
			c0,47.57-3.13,81.91-9.4,103.01s-21.55,40.51-45.83,58.23c-24.29,17.71-57.44,26.58-99.43,26.58c-35.04,0-62.11-4.69-81.22-14.03
			c-26.08-12.75-44.48-29.06-55.25-48.96c-10.75-19.9-16.13-46.67-16.13-80.32V693.3c0-23.28-1.3-37.77-3.89-43.45
			c-2.59-5.68-7.07-10.2-13.44-13.58c-6.37-3.39-18.11-4.97-35.23-4.78v-11.05L6360.5,620.45L6360.5,620.45z"/>
		<path class="st35" d="M6964.51,841.99v112.26c0,21.9,1.34,35.69,4.04,41.35c2.7,5.68,7.46,10.2,14.34,13.58
			c6.87,3.39,19.46,5.07,37.77,5.07v11.05h-205.72v-11.05c18.72,0,31.4-1.75,38.07-5.22c6.66-3.48,11.34-8.02,14.03-13.58
			c2.7-5.58,4.04-19.31,4.04-41.2V691.52c0-21.9-1.34-35.69-4.04-41.35c-2.7-5.68-7.42-10.2-14.18-13.58
			c-6.77-3.39-19.41-5.07-37.92-5.07v-11.05h176.47c58.13,0,99.83,10.35,125.11,31.06c25.28,20.71,37.92,46.58,37.92,77.63
			c0,26.27-8.16,48.77-24.48,67.49c-16.32,18.72-38.82,31.46-67.49,38.22C7043.14,839.61,7010.49,841.99,6964.51,841.99z
			 M6964.51,643.73v174.98c6.56,0.39,11.54,0.59,14.93,0.59c24.29,0,42.99-7.22,56.13-21.64c13.14-14.42,19.71-36.78,19.71-67.02
			c0-30.05-6.56-52.05-19.71-66c-13.14-13.93-32.75-20.9-58.82-20.9L6964.51,643.73L6964.51,643.73z"/>
		<path class="st35" d="M7551.47,614.78c64.5-2.4,116.89,16.43,157.21,56.43c40.31,40.02,60.46,90.08,60.46,150.18
			c0,51.36-15.04,96.55-45.09,135.56c-39.81,51.76-96.05,77.63-168.71,77.63c-72.85,0-129.19-24.69-169-74.05
			c-31.46-39.02-47.17-85.3-47.17-138.84c0-60.11,20.46-110.22,61.37-150.35C7441.44,631.24,7491.76,612.38,7551.47,614.78z
			 M7555.07,633.88c-37.03,0-65.2,18.91-84.5,56.74c-15.73,31.06-23.6,75.64-23.6,133.77c0,69.08,12.13,120.13,36.43,153.17
			c16.91,23.09,40.6,34.63,71.06,34.63c20.5,0,37.62-4.97,51.36-14.93c17.51-12.75,31.15-33.08,40.9-61.05
			c9.75-27.97,14.63-64.44,14.63-109.43c0-53.55-4.99-93.61-14.93-120.19s-22.65-45.34-38.07-56.28
			C7592.93,639.36,7575.18,633.88,7555.07,633.88z"/>
		<path class="st35" d="M7970.67,643.73v166.31h11.65c17.92,0,32.55-2.7,43.89-8.06c11.34-5.37,20.95-14.42,28.82-27.17
			c7.87-12.75,12.99-29.95,15.37-51.65h10.45v203.34h-10.45c-3.78-38.42-14.09-63.75-30.9-75.99
			c-16.82-12.24-35.88-18.36-57.18-18.36h-11.65v123.91c0,20.71,1.14,33.64,3.43,38.82s6.77,9.69,13.44,13.58
			c6.66,3.89,15.67,5.82,27.02,5.82h13.44v11.05H7816.3v-11.04h13.44c11.74,0,21.2-2.08,28.37-6.27c5.17-2.78,9.15-7.57,11.95-14.32
			c2.19-4.78,3.28-17.31,3.28-37.62V689.71c0-20.69-1.1-33.64-3.28-38.82c-2.19-5.17-6.62-9.69-13.29-13.58
			c-6.66-3.89-15.67-5.82-27.02-5.82h-13.44v-11.05h341.58v116.16h-12.24c-2.79-27.28-9.9-47.47-21.34-60.61
			c-11.44-13.14-28.02-22.4-49.72-27.76c-11.95-2.98-34.05-4.48-66.28-4.48L7970.67,643.73L7970.67,643.73z"/>
	</g>
	<g class="st33">
		<path class="st35" d="M2948.78,1748.08v11.05h-211.69v-11.05h13.44c11.74,0,21.2-2.08,28.37-6.27c5.17-2.78,9.15-7.57,11.95-14.32
			c2.19-4.78,3.28-17.31,3.28-37.62v-266.35c0-20.69-1.1-33.64-3.28-38.82c-2.19-5.17-6.62-9.69-13.29-13.58
			c-6.66-3.89-15.67-5.82-27.02-5.82h-13.44v-11.05h211.69v11.05h-13.44c-11.75,0-21.2,2.08-28.37,6.27
			c-5.17,2.79-9.25,7.57-12.24,14.32c-2.19,4.78-3.28,17.31-3.28,37.62v266.35c0,20.71,1.14,33.64,3.43,38.82
			c2.29,5.17,6.77,9.69,13.44,13.58c6.66,3.89,15.67,5.82,27.02,5.82H2948.78z"/>
		<path class="st35" d="M3126.71,1354.26l199.75,251.1v-174.07c0-24.29-3.49-40.71-10.45-49.27c-9.55-11.55-25.58-17.12-48.08-16.72
			v-11.05h133.77v11.05c-17.12,2.19-28.62,5.03-34.49,8.52c-5.86,3.48-10.45,9.16-13.73,17.02c-3.28,7.87-4.93,21.34-4.93,40.46
			v337.1h-10.16l-273.8-337.1v257.37c0,23.28,5.32,39.02,15.98,47.17c10.64,8.16,22.84,12.24,36.58,12.24h9.55v11.05h-143.62v-11.05
			c22.29-0.19,37.81-4.78,46.58-13.73c8.75-8.95,13.14-24.19,13.14-45.68v-285.75l-8.67-10.75c-8.56-10.75-16.13-17.81-22.7-21.2
			c-6.56-3.39-16.02-5.28-28.37-5.68v-11.05L3126.71,1354.26L3126.71,1354.26z"/>
		<path class="st35" d="M3714.91,1345l3.28,134.96h-12.24c-5.78-33.84-19.96-61.05-42.55-81.66c-22.59-20.6-47.02-30.91-73.29-30.91
			c-20.3,0-36.38,5.43-48.23,16.28c-11.85,10.85-17.77,23.34-17.77,37.48c0,8.95,2.08,16.93,6.27,23.89
			c5.77,9.36,15.04,18.61,27.76,27.76c9.36,6.57,30.96,18.21,64.79,34.93c47.37,23.28,79.32,45.28,95.84,66
			c16.32,20.71,24.48,44.4,24.48,71.06c0,33.84-13.19,62.97-39.56,87.34c-26.37,24.39-59.88,36.58-100.48,36.58
			c-12.75,0-24.78-1.3-36.13-3.87c-11.35-2.59-25.58-7.46-42.7-14.63c-9.55-3.98-17.42-5.97-23.59-5.97
			c-5.17,0-10.66,1.99-16.43,5.97c-5.78,3.99-10.46,10.05-14.03,18.21h-11.05v-152.87h11.05c8.75,42.99,25.64,75.79,50.62,98.38
			c24.99,22.59,51.9,33.88,80.76,33.88c22.29,0,40.06-6.07,53.29-18.21c13.23-12.13,19.85-26.27,19.85-42.4
			c0-9.55-2.55-18.81-7.61-27.76c-5.07-8.95-12.78-17.47-23.13-25.53c-10.35-8.06-28.66-18.55-54.93-31.5
			c-36.82-18.11-63.3-33.55-79.43-46.28c-16.13-12.75-28.52-26.96-37.18-42.7c-8.67-15.73-12.99-33.04-12.99-51.95
			c0-32.24,11.84-59.73,35.54-82.41c23.68-22.7,53.55-34.05,89.57-34.05c13.14,0,25.87,1.6,38.22,4.78
			c9.36,2.4,20.75,6.81,34.2,13.29c13.44,6.48,22.84,9.69,28.23,9.69c5.17,0,9.25-1.6,12.24-4.78c2.98-3.18,5.77-10.85,8.37-22.99
			h8.97L3714.91,1345L3714.91,1345z"/>
		<path class="st35" d="M4165.15,1354.26v109.58h-10.75c-6.37-25.28-13.44-43.45-21.2-54.5c-7.76-11.05-18.42-19.85-31.95-26.43
			c-7.57-3.57-20.8-5.38-39.71-5.38h-30.16v312.32c0,20.71,1.14,33.64,3.43,38.82c2.29,5.17,6.77,9.69,13.44,13.58
			c6.66,3.89,15.78,5.82,27.32,5.82H4089v11.05h-211.99v-11.05h13.44c11.74,0,21.2-2.08,28.37-6.27c5.17-2.78,9.25-7.57,12.24-14.32
			c2.19-4.78,3.28-17.31,3.28-37.62v-312.32h-29.25c-27.28,0-47.08,5.78-59.41,17.31c-17.31,16.13-28.26,39.11-32.85,68.98h-11.34
			v-109.58L4165.15,1354.26L4165.15,1354.26z"/>
		<path class="st35" d="M4422.79,1748.08v11.05H4211.1v-11.05h13.44c11.74,0,21.2-2.08,28.37-6.27c5.17-2.78,9.15-7.57,11.95-14.32
			c2.19-4.78,3.28-17.31,3.28-37.62v-266.35c0-20.69-1.1-33.64-3.28-38.82c-2.19-5.17-6.62-9.69-13.29-13.58
			c-6.66-3.89-15.67-5.82-27.02-5.82h-13.44v-11.05h211.69v11.05h-13.44c-11.75,0-21.2,2.08-28.37,6.27
			c-5.17,2.79-9.25,7.57-12.24,14.32c-2.19,4.78-3.28,17.31-3.28,37.62v266.35c0,20.71,1.14,33.64,3.43,38.82
			c2.29,5.17,6.77,9.69,13.44,13.58c6.66,3.89,15.67,5.82,27.02,5.82H4422.79z"/>
		<path class="st35" d="M4834.23,1354.26v109.58h-10.75c-6.37-25.28-13.44-43.45-21.2-54.5c-7.76-11.05-18.42-19.85-31.95-26.43
			c-7.57-3.57-20.8-5.38-39.71-5.38h-30.16v312.32c0,20.71,1.14,33.64,3.43,38.82c2.29,5.17,6.77,9.69,13.44,13.58
			c6.66,3.89,15.78,5.82,27.32,5.82h13.44v11.05h-211.99v-11.05h13.44c11.74,0,21.2-2.08,28.37-6.27
			c5.17-2.78,9.25-7.57,12.24-14.32c2.19-4.78,3.28-17.31,3.28-37.62v-312.32h-29.25c-27.28,0-47.08,5.78-59.41,17.31
			c-17.31,16.13-28.26,39.11-32.85,68.98h-11.33v-109.58L4834.23,1354.26L4834.23,1354.26z"/>
		<path class="st35" d="M4882.27,1354.26h209.01v11.05h-10.45c-15.73,0-26.52,1.64-32.39,4.93c-5.87,3.28-10.05,7.82-12.54,13.58
			c-2.5,5.78-3.72,20.21-3.72,43.3v198.26c0,36.23,2.73,60.21,8.2,71.97c5.47,11.75,14.48,21.49,27.02,29.25
			c12.54,7.76,28.37,11.65,47.47,11.65c21.9,0,40.55-4.93,55.99-14.78c15.42-9.86,26.96-23.43,34.63-40.75
			c7.66-17.31,11.5-47.47,11.5-90.47v-165.12c0-18.11-1.9-31.05-5.68-38.82c-3.78-7.76-8.56-13.14-14.34-16.13
			c-8.95-4.58-21.6-6.87-37.92-6.87v-11.05h140.04v11.05h-8.37c-11.34,0-20.8,2.29-28.37,6.87c-7.57,4.58-13.04,11.44-16.43,20.6
			c-2.59,6.37-3.89,17.81-3.89,34.35v153.77c0,47.57-3.13,81.91-9.4,103.01s-21.55,40.51-45.83,58.23
			c-24.29,17.71-57.44,26.58-99.43,26.58c-35.04,0-62.11-4.69-81.22-14.03c-26.08-12.75-44.48-29.06-55.25-48.96
			c-10.75-19.9-16.13-46.67-16.13-80.32v-198.29c0-23.28-1.3-37.77-3.89-43.45c-2.59-5.68-7.07-10.2-13.44-13.58
			s-18.11-4.97-35.22-4.78v-11.05L4882.27,1354.26L4882.27,1354.26z"/>
		<path class="st35" d="M5706.94,1354.26v109.58h-10.75c-6.37-25.28-13.44-43.45-21.2-54.5c-7.76-11.05-18.42-19.85-31.95-26.43
			c-7.57-3.57-20.8-5.38-39.71-5.38h-30.16v312.32c0,20.71,1.14,33.64,3.43,38.82c2.29,5.17,6.77,9.69,13.44,13.58
			c6.66,3.89,15.78,5.82,27.32,5.82h13.44v11.05h-211.99v-11.05h13.44c11.74,0,21.2-2.08,28.37-6.27
			c5.17-2.78,9.25-7.57,12.24-14.32c2.19-4.78,3.28-17.31,3.28-37.62v-312.32h-29.25c-27.28,0-47.08,5.78-59.41,17.31
			c-17.31,16.13-28.26,39.11-32.85,68.98h-11.34v-109.58L5706.94,1354.26L5706.94,1354.26z"/>
		<path class="st35" d="M5964.59,1748.08v11.05H5752.9v-11.05h13.44c11.74,0,21.2-2.08,28.37-6.27c5.17-2.78,9.15-7.57,11.95-14.32
			c2.19-4.78,3.28-17.31,3.28-37.62v-266.35c0-20.69-1.1-33.64-3.28-38.82c-2.19-5.17-6.62-9.69-13.29-13.58
			c-6.66-3.89-15.67-5.82-27.02-5.82h-13.44v-11.05h211.69v11.05h-13.44c-11.76,0-21.2,2.08-28.37,6.27
			c-5.17,2.79-9.25,7.57-12.24,14.32c-2.19,4.78-3.28,17.31-3.28,37.62v266.35c0,20.71,1.14,33.64,3.43,38.82
			c2.29,5.17,6.77,9.69,13.44,13.58c6.66,3.89,15.67,5.82,27.02,5.82H5964.59z"/>
		<path class="st35" d="M6226.43,1348.58c64.5-2.4,116.89,16.43,157.21,56.43c40.31,40.02,60.46,90.08,60.46,150.18
			c0,51.36-15.04,96.55-45.09,135.56c-39.81,51.75-96.05,77.63-168.71,77.63c-72.85,0-129.19-24.69-169-74.05
			c-31.45-39.02-47.17-85.3-47.17-138.84c0-60.11,20.46-110.22,61.37-150.35C6116.4,1365.06,6166.71,1346.19,6226.43,1348.58z
			 M6230.01,1367.68c-37.03,0-65.2,18.91-84.5,56.74c-15.73,31.06-23.59,75.64-23.59,133.77c0,69.08,12.13,120.13,36.43,153.17
			c16.91,23.09,40.6,34.63,71.06,34.63c20.51,0,37.62-4.97,51.36-14.93c17.51-12.75,31.15-33.08,40.9-61.05
			c9.75-27.97,14.63-64.44,14.63-109.43c0-53.55-4.99-93.61-14.93-120.19c-9.95-26.58-22.65-45.34-38.07-56.28
			C6267.89,1373.17,6250.12,1367.68,6230.01,1367.68z"/>
		<path class="st35" d="M6629.79,1354.26l199.75,251.1v-174.07c0-24.29-3.48-40.71-10.45-49.27c-9.55-11.55-25.58-17.12-48.08-16.72
			v-11.05h133.77v11.05c-17.12,2.19-28.62,5.03-34.49,8.52c-5.86,3.48-10.45,9.16-13.73,17.02c-3.28,7.87-4.93,21.34-4.93,40.46
			v337.1h-10.16l-273.8-337.1v257.37c0,23.28,5.32,39.02,15.98,47.17c10.64,8.16,22.84,12.24,36.58,12.24h9.55v11.05h-143.62v-11.05
			c22.29-0.19,37.81-4.78,46.58-13.73c8.75-8.95,13.14-24.19,13.14-45.68v-285.75l-8.66-10.75c-8.56-10.75-16.13-17.81-22.7-21.2
			c-6.56-3.39-16.02-5.28-28.37-5.68v-11.05L6629.79,1354.26L6629.79,1354.26z"/>
		<path class="st35" d="M7217.98,1345l3.28,134.96h-12.24c-5.78-33.84-19.96-61.05-42.55-81.66c-22.59-20.6-47.02-30.91-73.29-30.91
			c-20.3,0-36.38,5.43-48.23,16.28c-11.84,10.85-17.77,23.34-17.77,37.48c0,8.95,2.08,16.93,6.27,23.89
			c5.77,9.36,15.04,18.61,27.76,27.76c9.36,6.57,30.96,18.21,64.79,34.93c47.37,23.28,79.32,45.28,95.84,66
			c16.32,20.71,24.48,44.4,24.48,71.06c0,33.84-13.19,62.97-39.56,87.34c-26.37,24.39-59.88,36.58-100.48,36.58
			c-12.75,0-24.78-1.3-36.13-3.87c-11.33-2.59-25.57-7.46-42.7-14.63c-9.55-3.98-17.42-5.97-23.59-5.97
			c-5.17,0-10.66,1.99-16.43,5.97c-5.79,3.99-10.45,10.05-14.03,18.21h-11.05v-152.87h11.05c8.75,42.99,25.62,75.79,50.62,98.38
			c24.99,22.59,51.9,33.88,80.76,33.88c22.29,0,40.06-6.07,53.29-18.21c13.23-12.13,19.85-26.27,19.85-42.4
			c0-9.55-2.55-18.81-7.61-27.76c-5.07-8.95-12.78-17.47-23.13-25.53c-10.35-8.06-28.67-18.55-54.93-31.5
			c-36.82-18.11-63.3-33.55-79.43-46.28c-16.13-12.75-28.52-26.96-37.18-42.7c-8.66-15.73-12.99-33.04-12.99-51.95
			c0-32.24,11.84-59.73,35.54-82.41c23.68-22.7,53.55-34.05,89.57-34.05c13.14,0,25.88,1.6,38.22,4.78
			c9.36,2.4,20.75,6.81,34.2,13.29c13.44,6.48,22.84,9.69,28.22,9.69c5.17,0,9.25-1.6,12.24-4.78c2.99-3.18,5.77-10.85,8.37-22.99
			h8.97L7217.98,1345L7217.98,1345z"/>
	</g>
</g>
</svg>
